%TF.GenerationSoftware,KiCad,Pcbnew,(5.1.9)-1*%
%TF.CreationDate,2021-04-07T01:06:44+02:00*%
%TF.ProjectId,HB-RC-6-PBU-LED_328,48422d52-432d-4362-9d50-42552d4c4544,rev?*%
%TF.SameCoordinates,Original*%
%TF.FileFunction,Legend,Top*%
%TF.FilePolarity,Positive*%
%FSLAX46Y46*%
G04 Gerber Fmt 4.6, Leading zero omitted, Abs format (unit mm)*
G04 Created by KiCad (PCBNEW (5.1.9)-1) date 2021-04-07 01:06:44*
%MOMM*%
%LPD*%
G01*
G04 APERTURE LIST*
%ADD10C,0.120000*%
%ADD11C,0.150000*%
G04 APERTURE END LIST*
D10*
%TO.C,JP2*%
X122100000Y-72450000D02*
G75*
G02*
X122800000Y-71750000I700000J0D01*
G01*
X122800000Y-73750000D02*
G75*
G02*
X122100000Y-73050000I0J700000D01*
G01*
X124900000Y-73050000D02*
G75*
G02*
X124200000Y-73750000I-700000J0D01*
G01*
X124200000Y-71750000D02*
G75*
G02*
X124900000Y-72450000I0J-700000D01*
G01*
X122100000Y-73050000D02*
X122100000Y-72450000D01*
X124200000Y-73750000D02*
X122800000Y-73750000D01*
X124900000Y-72450000D02*
X124900000Y-73050000D01*
X122800000Y-71750000D02*
X124200000Y-71750000D01*
%TO.C,JP1*%
X122000000Y-78950000D02*
G75*
G02*
X122700000Y-78250000I700000J0D01*
G01*
X122700000Y-80250000D02*
G75*
G02*
X122000000Y-79550000I0J700000D01*
G01*
X124800000Y-79550000D02*
G75*
G02*
X124100000Y-80250000I-700000J0D01*
G01*
X124100000Y-78250000D02*
G75*
G02*
X124800000Y-78950000I0J-700000D01*
G01*
X122000000Y-79550000D02*
X122000000Y-78950000D01*
X124100000Y-80250000D02*
X122700000Y-80250000D01*
X124800000Y-78950000D02*
X124800000Y-79550000D01*
X122700000Y-78250000D02*
X124100000Y-78250000D01*
%TO.C,D2*%
X115800000Y-79950000D02*
X115800000Y-74050000D01*
X119700000Y-79950000D02*
X119700000Y-74050000D01*
X119700000Y-74050000D02*
X118625000Y-74050000D01*
%TO.C,D3*%
X116050000Y-97950000D02*
X116050000Y-92050000D01*
X119950000Y-97950000D02*
X119950000Y-92050000D01*
X119950000Y-92050000D02*
X118875000Y-92050000D01*
%TO.C,SW7*%
X155190000Y-116060000D02*
X155190000Y-109940000D01*
X155190000Y-109940000D02*
X158810000Y-109940000D01*
X158810000Y-109940000D02*
X158810000Y-116060000D01*
X158810000Y-116060000D02*
X155190000Y-116060000D01*
%TO.C,SW6*%
X158810000Y-91940000D02*
X158810000Y-98060000D01*
X158810000Y-98060000D02*
X155190000Y-98060000D01*
X155190000Y-98060000D02*
X155190000Y-91940000D01*
X155190000Y-91940000D02*
X158810000Y-91940000D01*
%TO.C,SW5*%
X158810000Y-73940000D02*
X158810000Y-80060000D01*
X158810000Y-80060000D02*
X155190000Y-80060000D01*
X155190000Y-80060000D02*
X155190000Y-73940000D01*
X155190000Y-73940000D02*
X158810000Y-73940000D01*
%TO.C,SW4*%
X111190000Y-116060000D02*
X111190000Y-109940000D01*
X111190000Y-109940000D02*
X114810000Y-109940000D01*
X114810000Y-109940000D02*
X114810000Y-116060000D01*
X114810000Y-116060000D02*
X111190000Y-116060000D01*
%TO.C,SW3*%
X114810000Y-91940000D02*
X114810000Y-98060000D01*
X114810000Y-98060000D02*
X111190000Y-98060000D01*
X111190000Y-98060000D02*
X111190000Y-91940000D01*
X111190000Y-91940000D02*
X114810000Y-91940000D01*
%TO.C,SW2*%
X114810000Y-73940000D02*
X114810000Y-80060000D01*
X114810000Y-80060000D02*
X111190000Y-80060000D01*
X111190000Y-80060000D02*
X111190000Y-73940000D01*
X111190000Y-73940000D02*
X114810000Y-73940000D01*
%TO.C,R2*%
X128772936Y-72765000D02*
X129227064Y-72765000D01*
X128772936Y-74235000D02*
X129227064Y-74235000D01*
%TO.C,R1*%
X128772936Y-70765000D02*
X129227064Y-70765000D01*
X128772936Y-72235000D02*
X129227064Y-72235000D01*
%TO.C,U2*%
X122600000Y-77610000D02*
X124400000Y-77610000D01*
X124400000Y-74390000D02*
X121950000Y-74390000D01*
D11*
%TO.C,IC1*%
X144000000Y-82000000D02*
X144000000Y-83000000D01*
X126000000Y-82000000D02*
X144000000Y-82000000D01*
X126000000Y-101000000D02*
X126000000Y-82000000D01*
X144000000Y-101000000D02*
X126000000Y-101000000D01*
X144000000Y-83000000D02*
X144000000Y-101000000D01*
D10*
%TO.C,D7*%
X150050000Y-115950000D02*
X150050000Y-110050000D01*
X153950000Y-115950000D02*
X153950000Y-110050000D01*
X153950000Y-110050000D02*
X152875000Y-110050000D01*
%TO.C,D6*%
X150050000Y-97950000D02*
X150050000Y-92050000D01*
X153950000Y-97950000D02*
X153950000Y-92050000D01*
X153950000Y-92050000D02*
X152875000Y-92050000D01*
%TO.C,D5*%
X150050000Y-79950000D02*
X150050000Y-74050000D01*
X153950000Y-79950000D02*
X153950000Y-74050000D01*
X153950000Y-74050000D02*
X152875000Y-74050000D01*
%TO.C,D4*%
X116050000Y-115950000D02*
X116050000Y-110050000D01*
X119950000Y-115950000D02*
X119950000Y-110050000D01*
X119950000Y-110050000D02*
X118875000Y-110050000D01*
%TO.C,D1*%
X133440000Y-70764000D02*
X133440000Y-70920000D01*
X133440000Y-73080000D02*
X133440000Y-73236000D01*
X136041130Y-73079837D02*
G75*
G02*
X133959039Y-73080000I-1041130J1079837D01*
G01*
X136041130Y-70920163D02*
G75*
G03*
X133959039Y-70920000I-1041130J-1079837D01*
G01*
X136672335Y-73078608D02*
G75*
G02*
X133440000Y-73235516I-1672335J1078608D01*
G01*
X136672335Y-70921392D02*
G75*
G03*
X133440000Y-70764484I-1672335J-1078608D01*
G01*
%TO.C,C6*%
X151738748Y-117015000D02*
X152261252Y-117015000D01*
X151738748Y-118485000D02*
X152261252Y-118485000D01*
%TO.C,C5*%
X151738748Y-99265000D02*
X152261252Y-99265000D01*
X151738748Y-100735000D02*
X152261252Y-100735000D01*
%TO.C,C4*%
X151738748Y-81265000D02*
X152261252Y-81265000D01*
X151738748Y-82735000D02*
X152261252Y-82735000D01*
%TO.C,C3*%
X117701248Y-117265000D02*
X118223752Y-117265000D01*
X117701248Y-118735000D02*
X118223752Y-118735000D01*
%TO.C,C2*%
X117738748Y-99265000D02*
X118261252Y-99265000D01*
X117738748Y-100735000D02*
X118261252Y-100735000D01*
%TO.C,C1*%
X117701248Y-81265000D02*
X118223752Y-81265000D01*
X117701248Y-82735000D02*
X118223752Y-82735000D01*
%TO.C,JP2*%
D11*
X122666666Y-70452380D02*
X122666666Y-71166666D01*
X122619047Y-71309523D01*
X122523809Y-71404761D01*
X122380952Y-71452380D01*
X122285714Y-71452380D01*
X123142857Y-71452380D02*
X123142857Y-70452380D01*
X123523809Y-70452380D01*
X123619047Y-70500000D01*
X123666666Y-70547619D01*
X123714285Y-70642857D01*
X123714285Y-70785714D01*
X123666666Y-70880952D01*
X123619047Y-70928571D01*
X123523809Y-70976190D01*
X123142857Y-70976190D01*
X124095238Y-70547619D02*
X124142857Y-70500000D01*
X124238095Y-70452380D01*
X124476190Y-70452380D01*
X124571428Y-70500000D01*
X124619047Y-70547619D01*
X124666666Y-70642857D01*
X124666666Y-70738095D01*
X124619047Y-70880952D01*
X124047619Y-71452380D01*
X124666666Y-71452380D01*
%TO.C,JP1*%
X122466666Y-80702380D02*
X122466666Y-81416666D01*
X122419047Y-81559523D01*
X122323809Y-81654761D01*
X122180952Y-81702380D01*
X122085714Y-81702380D01*
X122942857Y-81702380D02*
X122942857Y-80702380D01*
X123323809Y-80702380D01*
X123419047Y-80750000D01*
X123466666Y-80797619D01*
X123514285Y-80892857D01*
X123514285Y-81035714D01*
X123466666Y-81130952D01*
X123419047Y-81178571D01*
X123323809Y-81226190D01*
X122942857Y-81226190D01*
X124466666Y-81702380D02*
X123895238Y-81702380D01*
X124180952Y-81702380D02*
X124180952Y-80702380D01*
X124085714Y-80845238D01*
X123990476Y-80940476D01*
X123895238Y-80988095D01*
%TO.C,D2*%
X120952380Y-77738095D02*
X119952380Y-77738095D01*
X119952380Y-77500000D01*
X120000000Y-77357142D01*
X120095238Y-77261904D01*
X120190476Y-77214285D01*
X120380952Y-77166666D01*
X120523809Y-77166666D01*
X120714285Y-77214285D01*
X120809523Y-77261904D01*
X120904761Y-77357142D01*
X120952380Y-77500000D01*
X120952380Y-77738095D01*
X120047619Y-76785714D02*
X120000000Y-76738095D01*
X119952380Y-76642857D01*
X119952380Y-76404761D01*
X120000000Y-76309523D01*
X120047619Y-76261904D01*
X120142857Y-76214285D01*
X120238095Y-76214285D01*
X120380952Y-76261904D01*
X120952380Y-76833333D01*
X120952380Y-76214285D01*
X117327380Y-79964285D02*
X117327380Y-80535714D01*
X117327380Y-80250000D02*
X116327380Y-80250000D01*
X116470238Y-80345238D01*
X116565476Y-80440476D01*
X116613095Y-80535714D01*
%TO.C,D3*%
X121202380Y-95738095D02*
X120202380Y-95738095D01*
X120202380Y-95500000D01*
X120250000Y-95357142D01*
X120345238Y-95261904D01*
X120440476Y-95214285D01*
X120630952Y-95166666D01*
X120773809Y-95166666D01*
X120964285Y-95214285D01*
X121059523Y-95261904D01*
X121154761Y-95357142D01*
X121202380Y-95500000D01*
X121202380Y-95738095D01*
X120202380Y-94833333D02*
X120202380Y-94214285D01*
X120583333Y-94547619D01*
X120583333Y-94404761D01*
X120630952Y-94309523D01*
X120678571Y-94261904D01*
X120773809Y-94214285D01*
X121011904Y-94214285D01*
X121107142Y-94261904D01*
X121154761Y-94309523D01*
X121202380Y-94404761D01*
X121202380Y-94690476D01*
X121154761Y-94785714D01*
X121107142Y-94833333D01*
X117577380Y-97964285D02*
X117577380Y-98535714D01*
X117577380Y-98250000D02*
X116577380Y-98250000D01*
X116720238Y-98345238D01*
X116815476Y-98440476D01*
X116863095Y-98535714D01*
%TO.C,SW7*%
X157404761Y-114333333D02*
X157452380Y-114190476D01*
X157452380Y-113952380D01*
X157404761Y-113857142D01*
X157357142Y-113809523D01*
X157261904Y-113761904D01*
X157166666Y-113761904D01*
X157071428Y-113809523D01*
X157023809Y-113857142D01*
X156976190Y-113952380D01*
X156928571Y-114142857D01*
X156880952Y-114238095D01*
X156833333Y-114285714D01*
X156738095Y-114333333D01*
X156642857Y-114333333D01*
X156547619Y-114285714D01*
X156500000Y-114238095D01*
X156452380Y-114142857D01*
X156452380Y-113904761D01*
X156500000Y-113761904D01*
X156452380Y-113428571D02*
X157452380Y-113190476D01*
X156738095Y-113000000D01*
X157452380Y-112809523D01*
X156452380Y-112571428D01*
X156452380Y-112285714D02*
X156452380Y-111619047D01*
X157452380Y-112047619D01*
%TO.C,SW6*%
X157404761Y-96333333D02*
X157452380Y-96190476D01*
X157452380Y-95952380D01*
X157404761Y-95857142D01*
X157357142Y-95809523D01*
X157261904Y-95761904D01*
X157166666Y-95761904D01*
X157071428Y-95809523D01*
X157023809Y-95857142D01*
X156976190Y-95952380D01*
X156928571Y-96142857D01*
X156880952Y-96238095D01*
X156833333Y-96285714D01*
X156738095Y-96333333D01*
X156642857Y-96333333D01*
X156547619Y-96285714D01*
X156500000Y-96238095D01*
X156452380Y-96142857D01*
X156452380Y-95904761D01*
X156500000Y-95761904D01*
X156452380Y-95428571D02*
X157452380Y-95190476D01*
X156738095Y-95000000D01*
X157452380Y-94809523D01*
X156452380Y-94571428D01*
X156452380Y-93761904D02*
X156452380Y-93952380D01*
X156500000Y-94047619D01*
X156547619Y-94095238D01*
X156690476Y-94190476D01*
X156880952Y-94238095D01*
X157261904Y-94238095D01*
X157357142Y-94190476D01*
X157404761Y-94142857D01*
X157452380Y-94047619D01*
X157452380Y-93857142D01*
X157404761Y-93761904D01*
X157357142Y-93714285D01*
X157261904Y-93666666D01*
X157023809Y-93666666D01*
X156928571Y-93714285D01*
X156880952Y-93761904D01*
X156833333Y-93857142D01*
X156833333Y-94047619D01*
X156880952Y-94142857D01*
X156928571Y-94190476D01*
X157023809Y-94238095D01*
%TO.C,SW5*%
X157404761Y-78333333D02*
X157452380Y-78190476D01*
X157452380Y-77952380D01*
X157404761Y-77857142D01*
X157357142Y-77809523D01*
X157261904Y-77761904D01*
X157166666Y-77761904D01*
X157071428Y-77809523D01*
X157023809Y-77857142D01*
X156976190Y-77952380D01*
X156928571Y-78142857D01*
X156880952Y-78238095D01*
X156833333Y-78285714D01*
X156738095Y-78333333D01*
X156642857Y-78333333D01*
X156547619Y-78285714D01*
X156500000Y-78238095D01*
X156452380Y-78142857D01*
X156452380Y-77904761D01*
X156500000Y-77761904D01*
X156452380Y-77428571D02*
X157452380Y-77190476D01*
X156738095Y-77000000D01*
X157452380Y-76809523D01*
X156452380Y-76571428D01*
X156452380Y-75714285D02*
X156452380Y-76190476D01*
X156928571Y-76238095D01*
X156880952Y-76190476D01*
X156833333Y-76095238D01*
X156833333Y-75857142D01*
X156880952Y-75761904D01*
X156928571Y-75714285D01*
X157023809Y-75666666D01*
X157261904Y-75666666D01*
X157357142Y-75714285D01*
X157404761Y-75761904D01*
X157452380Y-75857142D01*
X157452380Y-76095238D01*
X157404761Y-76190476D01*
X157357142Y-76238095D01*
%TO.C,SW4*%
X113404761Y-114333333D02*
X113452380Y-114190476D01*
X113452380Y-113952380D01*
X113404761Y-113857142D01*
X113357142Y-113809523D01*
X113261904Y-113761904D01*
X113166666Y-113761904D01*
X113071428Y-113809523D01*
X113023809Y-113857142D01*
X112976190Y-113952380D01*
X112928571Y-114142857D01*
X112880952Y-114238095D01*
X112833333Y-114285714D01*
X112738095Y-114333333D01*
X112642857Y-114333333D01*
X112547619Y-114285714D01*
X112500000Y-114238095D01*
X112452380Y-114142857D01*
X112452380Y-113904761D01*
X112500000Y-113761904D01*
X112452380Y-113428571D02*
X113452380Y-113190476D01*
X112738095Y-113000000D01*
X113452380Y-112809523D01*
X112452380Y-112571428D01*
X112785714Y-111761904D02*
X113452380Y-111761904D01*
X112404761Y-112000000D02*
X113119047Y-112238095D01*
X113119047Y-111619047D01*
%TO.C,SW3*%
X113404761Y-96333333D02*
X113452380Y-96190476D01*
X113452380Y-95952380D01*
X113404761Y-95857142D01*
X113357142Y-95809523D01*
X113261904Y-95761904D01*
X113166666Y-95761904D01*
X113071428Y-95809523D01*
X113023809Y-95857142D01*
X112976190Y-95952380D01*
X112928571Y-96142857D01*
X112880952Y-96238095D01*
X112833333Y-96285714D01*
X112738095Y-96333333D01*
X112642857Y-96333333D01*
X112547619Y-96285714D01*
X112500000Y-96238095D01*
X112452380Y-96142857D01*
X112452380Y-95904761D01*
X112500000Y-95761904D01*
X112452380Y-95428571D02*
X113452380Y-95190476D01*
X112738095Y-95000000D01*
X113452380Y-94809523D01*
X112452380Y-94571428D01*
X112452380Y-94285714D02*
X112452380Y-93666666D01*
X112833333Y-94000000D01*
X112833333Y-93857142D01*
X112880952Y-93761904D01*
X112928571Y-93714285D01*
X113023809Y-93666666D01*
X113261904Y-93666666D01*
X113357142Y-93714285D01*
X113404761Y-93761904D01*
X113452380Y-93857142D01*
X113452380Y-94142857D01*
X113404761Y-94238095D01*
X113357142Y-94285714D01*
%TO.C,SW2*%
X113404761Y-78333333D02*
X113452380Y-78190476D01*
X113452380Y-77952380D01*
X113404761Y-77857142D01*
X113357142Y-77809523D01*
X113261904Y-77761904D01*
X113166666Y-77761904D01*
X113071428Y-77809523D01*
X113023809Y-77857142D01*
X112976190Y-77952380D01*
X112928571Y-78142857D01*
X112880952Y-78238095D01*
X112833333Y-78285714D01*
X112738095Y-78333333D01*
X112642857Y-78333333D01*
X112547619Y-78285714D01*
X112500000Y-78238095D01*
X112452380Y-78142857D01*
X112452380Y-77904761D01*
X112500000Y-77761904D01*
X112452380Y-77428571D02*
X113452380Y-77190476D01*
X112738095Y-77000000D01*
X113452380Y-76809523D01*
X112452380Y-76571428D01*
X112547619Y-76238095D02*
X112500000Y-76190476D01*
X112452380Y-76095238D01*
X112452380Y-75857142D01*
X112500000Y-75761904D01*
X112547619Y-75714285D01*
X112642857Y-75666666D01*
X112738095Y-75666666D01*
X112880952Y-75714285D01*
X113452380Y-76285714D01*
X113452380Y-75666666D01*
%TO.C,R2*%
X128833333Y-75702380D02*
X128500000Y-75226190D01*
X128261904Y-75702380D02*
X128261904Y-74702380D01*
X128642857Y-74702380D01*
X128738095Y-74750000D01*
X128785714Y-74797619D01*
X128833333Y-74892857D01*
X128833333Y-75035714D01*
X128785714Y-75130952D01*
X128738095Y-75178571D01*
X128642857Y-75226190D01*
X128261904Y-75226190D01*
X129214285Y-74797619D02*
X129261904Y-74750000D01*
X129357142Y-74702380D01*
X129595238Y-74702380D01*
X129690476Y-74750000D01*
X129738095Y-74797619D01*
X129785714Y-74892857D01*
X129785714Y-74988095D01*
X129738095Y-75130952D01*
X129166666Y-75702380D01*
X129785714Y-75702380D01*
%TO.C,R1*%
X126083333Y-71952380D02*
X125750000Y-71476190D01*
X125511904Y-71952380D02*
X125511904Y-70952380D01*
X125892857Y-70952380D01*
X125988095Y-71000000D01*
X126035714Y-71047619D01*
X126083333Y-71142857D01*
X126083333Y-71285714D01*
X126035714Y-71380952D01*
X125988095Y-71428571D01*
X125892857Y-71476190D01*
X125511904Y-71476190D01*
X127035714Y-71952380D02*
X126464285Y-71952380D01*
X126750000Y-71952380D02*
X126750000Y-70952380D01*
X126654761Y-71095238D01*
X126559523Y-71190476D01*
X126464285Y-71238095D01*
%TO.C,U2*%
X125702380Y-76761904D02*
X126511904Y-76761904D01*
X126607142Y-76714285D01*
X126654761Y-76666666D01*
X126702380Y-76571428D01*
X126702380Y-76380952D01*
X126654761Y-76285714D01*
X126607142Y-76238095D01*
X126511904Y-76190476D01*
X125702380Y-76190476D01*
X125797619Y-75761904D02*
X125750000Y-75714285D01*
X125702380Y-75619047D01*
X125702380Y-75380952D01*
X125750000Y-75285714D01*
X125797619Y-75238095D01*
X125892857Y-75190476D01*
X125988095Y-75190476D01*
X126130952Y-75238095D01*
X126702380Y-75809523D01*
X126702380Y-75190476D01*
%TO.C,IC1*%
X137904761Y-85389142D02*
X137857142Y-85436761D01*
X137714285Y-85484380D01*
X137619047Y-85484380D01*
X137476190Y-85436761D01*
X137380952Y-85341523D01*
X137333333Y-85246285D01*
X137285714Y-85055809D01*
X137285714Y-84912952D01*
X137333333Y-84722476D01*
X137380952Y-84627238D01*
X137476190Y-84532000D01*
X137619047Y-84484380D01*
X137714285Y-84484380D01*
X137857142Y-84532000D01*
X137904761Y-84579619D01*
X138904761Y-85389142D02*
X138857142Y-85436761D01*
X138714285Y-85484380D01*
X138619047Y-85484380D01*
X138476190Y-85436761D01*
X138380952Y-85341523D01*
X138333333Y-85246285D01*
X138285714Y-85055809D01*
X138285714Y-84912952D01*
X138333333Y-84722476D01*
X138380952Y-84627238D01*
X138476190Y-84532000D01*
X138619047Y-84484380D01*
X138714285Y-84484380D01*
X138857142Y-84532000D01*
X138904761Y-84579619D01*
X139857142Y-85484380D02*
X139285714Y-85484380D01*
X139571428Y-85484380D02*
X139571428Y-84484380D01*
X139476190Y-84627238D01*
X139380952Y-84722476D01*
X139285714Y-84770095D01*
X140809523Y-85484380D02*
X140238095Y-85484380D01*
X140523809Y-85484380D02*
X140523809Y-84484380D01*
X140428571Y-84627238D01*
X140333333Y-84722476D01*
X140238095Y-84770095D01*
X141428571Y-84484380D02*
X141523809Y-84484380D01*
X141619047Y-84532000D01*
X141666666Y-84579619D01*
X141714285Y-84674857D01*
X141761904Y-84865333D01*
X141761904Y-85103428D01*
X141714285Y-85293904D01*
X141666666Y-85389142D01*
X141619047Y-85436761D01*
X141523809Y-85484380D01*
X141428571Y-85484380D01*
X141333333Y-85436761D01*
X141285714Y-85389142D01*
X141238095Y-85293904D01*
X141190476Y-85103428D01*
X141190476Y-84865333D01*
X141238095Y-84674857D01*
X141285714Y-84579619D01*
X141333333Y-84532000D01*
X141428571Y-84484380D01*
X142714285Y-85484380D02*
X142142857Y-85484380D01*
X142428571Y-85484380D02*
X142428571Y-84484380D01*
X142333333Y-84627238D01*
X142238095Y-84722476D01*
X142142857Y-84770095D01*
%TO.C,D7*%
X149702380Y-113738095D02*
X148702380Y-113738095D01*
X148702380Y-113500000D01*
X148750000Y-113357142D01*
X148845238Y-113261904D01*
X148940476Y-113214285D01*
X149130952Y-113166666D01*
X149273809Y-113166666D01*
X149464285Y-113214285D01*
X149559523Y-113261904D01*
X149654761Y-113357142D01*
X149702380Y-113500000D01*
X149702380Y-113738095D01*
X148702380Y-112833333D02*
X148702380Y-112166666D01*
X149702380Y-112595238D01*
X151577380Y-115964285D02*
X151577380Y-116535714D01*
X151577380Y-116250000D02*
X150577380Y-116250000D01*
X150720238Y-116345238D01*
X150815476Y-116440476D01*
X150863095Y-116535714D01*
%TO.C,D6*%
X149702380Y-95738095D02*
X148702380Y-95738095D01*
X148702380Y-95500000D01*
X148750000Y-95357142D01*
X148845238Y-95261904D01*
X148940476Y-95214285D01*
X149130952Y-95166666D01*
X149273809Y-95166666D01*
X149464285Y-95214285D01*
X149559523Y-95261904D01*
X149654761Y-95357142D01*
X149702380Y-95500000D01*
X149702380Y-95738095D01*
X148702380Y-94309523D02*
X148702380Y-94500000D01*
X148750000Y-94595238D01*
X148797619Y-94642857D01*
X148940476Y-94738095D01*
X149130952Y-94785714D01*
X149511904Y-94785714D01*
X149607142Y-94738095D01*
X149654761Y-94690476D01*
X149702380Y-94595238D01*
X149702380Y-94404761D01*
X149654761Y-94309523D01*
X149607142Y-94261904D01*
X149511904Y-94214285D01*
X149273809Y-94214285D01*
X149178571Y-94261904D01*
X149130952Y-94309523D01*
X149083333Y-94404761D01*
X149083333Y-94595238D01*
X149130952Y-94690476D01*
X149178571Y-94738095D01*
X149273809Y-94785714D01*
X151577380Y-97964285D02*
X151577380Y-98535714D01*
X151577380Y-98250000D02*
X150577380Y-98250000D01*
X150720238Y-98345238D01*
X150815476Y-98440476D01*
X150863095Y-98535714D01*
%TO.C,D5*%
X149702380Y-77738095D02*
X148702380Y-77738095D01*
X148702380Y-77500000D01*
X148750000Y-77357142D01*
X148845238Y-77261904D01*
X148940476Y-77214285D01*
X149130952Y-77166666D01*
X149273809Y-77166666D01*
X149464285Y-77214285D01*
X149559523Y-77261904D01*
X149654761Y-77357142D01*
X149702380Y-77500000D01*
X149702380Y-77738095D01*
X148702380Y-76261904D02*
X148702380Y-76738095D01*
X149178571Y-76785714D01*
X149130952Y-76738095D01*
X149083333Y-76642857D01*
X149083333Y-76404761D01*
X149130952Y-76309523D01*
X149178571Y-76261904D01*
X149273809Y-76214285D01*
X149511904Y-76214285D01*
X149607142Y-76261904D01*
X149654761Y-76309523D01*
X149702380Y-76404761D01*
X149702380Y-76642857D01*
X149654761Y-76738095D01*
X149607142Y-76785714D01*
X151577380Y-79964285D02*
X151577380Y-80535714D01*
X151577380Y-80250000D02*
X150577380Y-80250000D01*
X150720238Y-80345238D01*
X150815476Y-80440476D01*
X150863095Y-80535714D01*
%TO.C,D4*%
X121202380Y-113738095D02*
X120202380Y-113738095D01*
X120202380Y-113500000D01*
X120250000Y-113357142D01*
X120345238Y-113261904D01*
X120440476Y-113214285D01*
X120630952Y-113166666D01*
X120773809Y-113166666D01*
X120964285Y-113214285D01*
X121059523Y-113261904D01*
X121154761Y-113357142D01*
X121202380Y-113500000D01*
X121202380Y-113738095D01*
X120535714Y-112309523D02*
X121202380Y-112309523D01*
X120154761Y-112547619D02*
X120869047Y-112785714D01*
X120869047Y-112166666D01*
X117452380Y-115964285D02*
X117452380Y-116535714D01*
X117452380Y-116250000D02*
X116452380Y-116250000D01*
X116595238Y-116345238D01*
X116690476Y-116440476D01*
X116738095Y-116535714D01*
%TO.C,D1*%
X134261904Y-75452380D02*
X134261904Y-74452380D01*
X134500000Y-74452380D01*
X134642857Y-74500000D01*
X134738095Y-74595238D01*
X134785714Y-74690476D01*
X134833333Y-74880952D01*
X134833333Y-75023809D01*
X134785714Y-75214285D01*
X134738095Y-75309523D01*
X134642857Y-75404761D01*
X134500000Y-75452380D01*
X134261904Y-75452380D01*
X135785714Y-75452380D02*
X135214285Y-75452380D01*
X135500000Y-75452380D02*
X135500000Y-74452380D01*
X135404761Y-74595238D01*
X135309523Y-74690476D01*
X135214285Y-74738095D01*
%TO.C,C6*%
X148833333Y-118107142D02*
X148785714Y-118154761D01*
X148642857Y-118202380D01*
X148547619Y-118202380D01*
X148404761Y-118154761D01*
X148309523Y-118059523D01*
X148261904Y-117964285D01*
X148214285Y-117773809D01*
X148214285Y-117630952D01*
X148261904Y-117440476D01*
X148309523Y-117345238D01*
X148404761Y-117250000D01*
X148547619Y-117202380D01*
X148642857Y-117202380D01*
X148785714Y-117250000D01*
X148833333Y-117297619D01*
X149690476Y-117202380D02*
X149500000Y-117202380D01*
X149404761Y-117250000D01*
X149357142Y-117297619D01*
X149261904Y-117440476D01*
X149214285Y-117630952D01*
X149214285Y-118011904D01*
X149261904Y-118107142D01*
X149309523Y-118154761D01*
X149404761Y-118202380D01*
X149595238Y-118202380D01*
X149690476Y-118154761D01*
X149738095Y-118107142D01*
X149785714Y-118011904D01*
X149785714Y-117773809D01*
X149738095Y-117678571D01*
X149690476Y-117630952D01*
X149595238Y-117583333D01*
X149404761Y-117583333D01*
X149309523Y-117630952D01*
X149261904Y-117678571D01*
X149214285Y-117773809D01*
%TO.C,C5*%
X151833333Y-102107142D02*
X151785714Y-102154761D01*
X151642857Y-102202380D01*
X151547619Y-102202380D01*
X151404761Y-102154761D01*
X151309523Y-102059523D01*
X151261904Y-101964285D01*
X151214285Y-101773809D01*
X151214285Y-101630952D01*
X151261904Y-101440476D01*
X151309523Y-101345238D01*
X151404761Y-101250000D01*
X151547619Y-101202380D01*
X151642857Y-101202380D01*
X151785714Y-101250000D01*
X151833333Y-101297619D01*
X152738095Y-101202380D02*
X152261904Y-101202380D01*
X152214285Y-101678571D01*
X152261904Y-101630952D01*
X152357142Y-101583333D01*
X152595238Y-101583333D01*
X152690476Y-101630952D01*
X152738095Y-101678571D01*
X152785714Y-101773809D01*
X152785714Y-102011904D01*
X152738095Y-102107142D01*
X152690476Y-102154761D01*
X152595238Y-102202380D01*
X152357142Y-102202380D01*
X152261904Y-102154761D01*
X152214285Y-102107142D01*
%TO.C,C4*%
X151833333Y-84107142D02*
X151785714Y-84154761D01*
X151642857Y-84202380D01*
X151547619Y-84202380D01*
X151404761Y-84154761D01*
X151309523Y-84059523D01*
X151261904Y-83964285D01*
X151214285Y-83773809D01*
X151214285Y-83630952D01*
X151261904Y-83440476D01*
X151309523Y-83345238D01*
X151404761Y-83250000D01*
X151547619Y-83202380D01*
X151642857Y-83202380D01*
X151785714Y-83250000D01*
X151833333Y-83297619D01*
X152690476Y-83535714D02*
X152690476Y-84202380D01*
X152452380Y-83154761D02*
X152214285Y-83869047D01*
X152833333Y-83869047D01*
%TO.C,C3*%
X120833333Y-118357142D02*
X120785714Y-118404761D01*
X120642857Y-118452380D01*
X120547619Y-118452380D01*
X120404761Y-118404761D01*
X120309523Y-118309523D01*
X120261904Y-118214285D01*
X120214285Y-118023809D01*
X120214285Y-117880952D01*
X120261904Y-117690476D01*
X120309523Y-117595238D01*
X120404761Y-117500000D01*
X120547619Y-117452380D01*
X120642857Y-117452380D01*
X120785714Y-117500000D01*
X120833333Y-117547619D01*
X121166666Y-117452380D02*
X121785714Y-117452380D01*
X121452380Y-117833333D01*
X121595238Y-117833333D01*
X121690476Y-117880952D01*
X121738095Y-117928571D01*
X121785714Y-118023809D01*
X121785714Y-118261904D01*
X121738095Y-118357142D01*
X121690476Y-118404761D01*
X121595238Y-118452380D01*
X121309523Y-118452380D01*
X121214285Y-118404761D01*
X121166666Y-118357142D01*
%TO.C,C2*%
X117833333Y-102107142D02*
X117785714Y-102154761D01*
X117642857Y-102202380D01*
X117547619Y-102202380D01*
X117404761Y-102154761D01*
X117309523Y-102059523D01*
X117261904Y-101964285D01*
X117214285Y-101773809D01*
X117214285Y-101630952D01*
X117261904Y-101440476D01*
X117309523Y-101345238D01*
X117404761Y-101250000D01*
X117547619Y-101202380D01*
X117642857Y-101202380D01*
X117785714Y-101250000D01*
X117833333Y-101297619D01*
X118214285Y-101297619D02*
X118261904Y-101250000D01*
X118357142Y-101202380D01*
X118595238Y-101202380D01*
X118690476Y-101250000D01*
X118738095Y-101297619D01*
X118785714Y-101392857D01*
X118785714Y-101488095D01*
X118738095Y-101630952D01*
X118166666Y-102202380D01*
X118785714Y-102202380D01*
%TO.C,C1*%
X117833333Y-84107142D02*
X117785714Y-84154761D01*
X117642857Y-84202380D01*
X117547619Y-84202380D01*
X117404761Y-84154761D01*
X117309523Y-84059523D01*
X117261904Y-83964285D01*
X117214285Y-83773809D01*
X117214285Y-83630952D01*
X117261904Y-83440476D01*
X117309523Y-83345238D01*
X117404761Y-83250000D01*
X117547619Y-83202380D01*
X117642857Y-83202380D01*
X117785714Y-83250000D01*
X117833333Y-83297619D01*
X118785714Y-84202380D02*
X118214285Y-84202380D01*
X118500000Y-84202380D02*
X118500000Y-83202380D01*
X118404761Y-83345238D01*
X118309523Y-83440476D01*
X118214285Y-83488095D01*
%TD*%
M02*
