%TF.GenerationSoftware,KiCad,Pcbnew,(5.1.9)-1*%
%TF.CreationDate,2021-04-07T01:06:44+02:00*%
%TF.ProjectId,HB-RC-6-PBU-LED_328,48422d52-432d-4362-9d50-42552d4c4544,rev?*%
%TF.SameCoordinates,Original*%
%TF.FileFunction,Copper,L2,Bot*%
%TF.FilePolarity,Positive*%
%FSLAX46Y46*%
G04 Gerber Fmt 4.6, Leading zero omitted, Abs format (unit mm)*
G04 Created by KiCad (PCBNEW (5.1.9)-1) date 2021-04-07 01:06:44*
%MOMM*%
%LPD*%
G01*
G04 APERTURE LIST*
%TA.AperFunction,ComponentPad*%
%ADD10C,2.000000*%
%TD*%
%TA.AperFunction,ComponentPad*%
%ADD11C,1.524000*%
%TD*%
%TA.AperFunction,ComponentPad*%
%ADD12O,1.270000X1.270000*%
%TD*%
%TA.AperFunction,ComponentPad*%
%ADD13C,1.270000*%
%TD*%
%TA.AperFunction,ComponentPad*%
%ADD14C,1.800000*%
%TD*%
%TA.AperFunction,ComponentPad*%
%ADD15R,1.800000X1.800000*%
%TD*%
%TA.AperFunction,ViaPad*%
%ADD16C,0.600000*%
%TD*%
%TA.AperFunction,Conductor*%
%ADD17C,0.250000*%
%TD*%
%TA.AperFunction,Conductor*%
%ADD18C,0.254000*%
%TD*%
%TA.AperFunction,Conductor*%
%ADD19C,0.100000*%
%TD*%
G04 APERTURE END LIST*
D10*
%TO.P,SW1,1*%
%TO.N,GND*%
X140250000Y-72000000D03*
%TO.P,SW1,2*%
%TO.N,/CONFIG*%
X140250000Y-76500000D03*
%TO.P,SW1,1*%
%TO.N,GND*%
X146750000Y-72000000D03*
%TO.P,SW1,2*%
%TO.N,/CONFIG*%
X146750000Y-76500000D03*
%TD*%
D11*
%TO.P,U1,TXD*%
%TO.N,Net-(U1-PadTXD)*%
X127380000Y-114700000D03*
%TO.P,U1,RXD*%
%TO.N,Net-(U1-PadRXD)*%
X127380000Y-112160000D03*
%TO.P,U1,RST*%
%TO.N,Net-(U1-PadRST)*%
X127380000Y-109620000D03*
%TO.P,U1,GND*%
%TO.N,GND*%
X127380000Y-107080000D03*
%TO.P,U1,2*%
%TO.N,/GDO0*%
X127380000Y-104540000D03*
%TO.P,U1,3*%
%TO.N,Net-(U1-Pad3)*%
X127380000Y-102000000D03*
%TO.P,U1,4*%
%TO.N,/LED1*%
X127380000Y-99460000D03*
%TO.P,U1,5*%
%TO.N,/LED2*%
X127380000Y-96920000D03*
%TO.P,U1,6*%
%TO.N,Net-(U1-Pad6)*%
X127380000Y-94380000D03*
%TO.P,U1,7*%
%TO.N,Net-(U1-Pad7)*%
X127380000Y-91840000D03*
%TO.P,U1,8*%
%TO.N,/CONFIG*%
X127380000Y-89300000D03*
%TO.P,U1,9*%
%TO.N,/WS_LED*%
X127380000Y-86760000D03*
%TO.P,U1,10*%
%TO.N,/CSN*%
X142620000Y-86760000D03*
%TO.P,U1,11*%
%TO.N,/MOSI*%
X142620000Y-89300000D03*
%TO.P,U1,12*%
%TO.N,/MISO*%
X142620000Y-91840000D03*
%TO.P,U1,13*%
%TO.N,/SCK*%
X142620000Y-94380000D03*
%TO.P,U1,A0*%
%TO.N,/BTN1*%
X142620000Y-96920000D03*
%TO.P,U1,A1*%
%TO.N,/BTN2*%
X142620000Y-99460000D03*
%TO.P,U1,A2*%
%TO.N,/BTN3*%
X142620000Y-102000000D03*
%TO.P,U1,A3*%
%TO.N,/BTN4*%
X142620000Y-104540000D03*
%TO.P,U1,VCC*%
%TO.N,/3V3*%
X142620000Y-107080000D03*
%TO.P,U1,RST*%
%TO.N,Net-(U1-PadRST)*%
X142620000Y-109620000D03*
%TO.P,U1,GND*%
%TO.N,GND*%
X142620000Y-112160000D03*
%TO.P,U1,RAW*%
%TO.N,/5V*%
X142620000Y-114700000D03*
%TO.P,U1,A4*%
%TO.N,/BTN5*%
X140080000Y-103270000D03*
%TO.P,U1,A5*%
%TO.N,/BTN6*%
X140080000Y-105810000D03*
%TO.P,U1,A7*%
%TO.N,Net-(U1-PadA7)*%
X140080000Y-86760000D03*
%TO.P,U1,A6*%
%TO.N,Net-(U1-PadA6)*%
X137540000Y-86760000D03*
%TO.P,U1,GND*%
%TO.N,GND*%
X135000000Y-86760000D03*
%TD*%
D12*
%TO.P,IC1,1*%
%TO.N,/3V3*%
X142000000Y-83000000D03*
%TO.P,IC1,2*%
%TO.N,GND*%
X140000000Y-83000000D03*
D13*
%TO.P,IC1,3*%
%TO.N,/MOSI*%
X138000000Y-83000000D03*
%TO.P,IC1,4*%
%TO.N,/SCK*%
X136000000Y-83000000D03*
%TO.P,IC1,5*%
%TO.N,/MISO*%
X134000000Y-83000000D03*
%TO.P,IC1,6*%
%TO.N,Net-(IC1-Pad6)*%
X132000000Y-83000000D03*
%TO.P,IC1,7*%
%TO.N,/GDO0*%
X130000000Y-83000000D03*
%TO.P,IC1,8*%
%TO.N,/CSN*%
X128000000Y-83000000D03*
%TD*%
D14*
%TO.P,D1,3*%
%TO.N,GND*%
X137540000Y-72000000D03*
%TO.P,D1,2*%
%TO.N,Net-(D1-Pad2)*%
X135000000Y-72000000D03*
D15*
%TO.P,D1,1*%
%TO.N,Net-(D1-Pad1)*%
X132460000Y-72000000D03*
%TD*%
D16*
%TO.N,GND*%
X157750000Y-88250000D03*
X120500000Y-76000000D03*
%TO.N,/3V3*%
X126500000Y-77500000D03*
%TO.N,/BTN1*%
X113000000Y-83500000D03*
%TO.N,/BTN2*%
X113000000Y-101500000D03*
%TO.N,/BTN3*%
X113000000Y-106500000D03*
%TO.N,/BTN4*%
X157000000Y-83500000D03*
%TO.N,/BTN5*%
X157000000Y-101500000D03*
%TO.N,/BTN6*%
X157000000Y-106500000D03*
%TD*%
D17*
%TO.N,/3V3*%
X136500000Y-77500000D02*
X142000000Y-83000000D01*
X126500000Y-77500000D02*
X136500000Y-77500000D01*
%TO.N,/SCK*%
X143707001Y-86238239D02*
X143707001Y-93292999D01*
X141428763Y-83960001D02*
X143707001Y-86238239D01*
X136960001Y-83960001D02*
X141428763Y-83960001D01*
X143707001Y-93292999D02*
X142620000Y-94380000D01*
X136000000Y-83000000D02*
X136960001Y-83960001D01*
%TO.N,/CSN*%
X129410011Y-84410011D02*
X140270011Y-84410011D01*
X140270011Y-84410011D02*
X142620000Y-86760000D01*
X128000000Y-83000000D02*
X129410011Y-84410011D01*
%TO.N,/CONFIG*%
X140250000Y-76500000D02*
X146750000Y-76500000D01*
X126074998Y-76500000D02*
X140250000Y-76500000D01*
X123830000Y-78744998D02*
X126074998Y-76500000D01*
X127380000Y-89300000D02*
X123830000Y-85750000D01*
X123830000Y-85750000D02*
X123830000Y-78744998D01*
%TO.N,/BTN1*%
X141532999Y-98007001D02*
X142620000Y-96920000D01*
X126492241Y-98007001D02*
X141532999Y-98007001D01*
X113000000Y-84514760D02*
X126492241Y-98007001D01*
X113000000Y-83500000D02*
X113000000Y-84514760D01*
%TO.N,/BTN2*%
X141167001Y-100912999D02*
X142620000Y-99460000D01*
X113587001Y-100912999D02*
X141167001Y-100912999D01*
X113000000Y-101500000D02*
X113587001Y-100912999D01*
%TO.N,/BTN3*%
X139741238Y-102000000D02*
X142620000Y-102000000D01*
X138288239Y-103452999D02*
X139741238Y-102000000D01*
X116047001Y-103452999D02*
X138288239Y-103452999D01*
X113000000Y-106500000D02*
X116047001Y-103452999D01*
%TO.N,/BTN4*%
X157000000Y-90160000D02*
X142620000Y-104540000D01*
X157000000Y-83500000D02*
X157000000Y-90160000D01*
%TO.N,/BTN5*%
X140080000Y-104201238D02*
X140080000Y-103270000D01*
X141871761Y-105992999D02*
X140080000Y-104201238D01*
X152507001Y-105992999D02*
X141871761Y-105992999D01*
X157000000Y-101500000D02*
X152507001Y-105992999D01*
%TO.N,/BTN6*%
X141359371Y-108167001D02*
X140080000Y-106887630D01*
X140080000Y-106887630D02*
X140080000Y-105810000D01*
X155332999Y-108167001D02*
X141359371Y-108167001D01*
X157000000Y-106500000D02*
X155332999Y-108167001D01*
%TD*%
D18*
%TO.N,GND*%
X131029463Y-70745506D02*
X130970498Y-70855820D01*
X130934188Y-70975518D01*
X130921928Y-71100000D01*
X130921928Y-72900000D01*
X130934188Y-73024482D01*
X130970498Y-73144180D01*
X131029463Y-73254494D01*
X131108815Y-73351185D01*
X131205506Y-73430537D01*
X131315820Y-73489502D01*
X131435518Y-73525812D01*
X131560000Y-73538072D01*
X133360000Y-73538072D01*
X133484482Y-73525812D01*
X133604180Y-73489502D01*
X133714494Y-73430537D01*
X133811185Y-73351185D01*
X133890537Y-73254494D01*
X133949502Y-73144180D01*
X133955056Y-73125873D01*
X134021495Y-73192312D01*
X134272905Y-73360299D01*
X134552257Y-73476011D01*
X134848816Y-73535000D01*
X135151184Y-73535000D01*
X135447743Y-73476011D01*
X135727095Y-73360299D01*
X135978505Y-73192312D01*
X136106737Y-73064080D01*
X136655525Y-73064080D01*
X136739208Y-73318261D01*
X137011775Y-73449158D01*
X137304642Y-73524365D01*
X137606553Y-73540991D01*
X137905907Y-73498397D01*
X138191199Y-73398222D01*
X138340792Y-73318261D01*
X138400990Y-73135413D01*
X139294192Y-73135413D01*
X139389956Y-73399814D01*
X139679571Y-73540704D01*
X139991108Y-73622384D01*
X140312595Y-73641718D01*
X140631675Y-73597961D01*
X140936088Y-73492795D01*
X141110044Y-73399814D01*
X141205808Y-73135413D01*
X145794192Y-73135413D01*
X145889956Y-73399814D01*
X146179571Y-73540704D01*
X146491108Y-73622384D01*
X146812595Y-73641718D01*
X147131675Y-73597961D01*
X147436088Y-73492795D01*
X147610044Y-73399814D01*
X147705808Y-73135413D01*
X146750000Y-72179605D01*
X145794192Y-73135413D01*
X141205808Y-73135413D01*
X140250000Y-72179605D01*
X139294192Y-73135413D01*
X138400990Y-73135413D01*
X138424475Y-73064080D01*
X137540000Y-72179605D01*
X136655525Y-73064080D01*
X136106737Y-73064080D01*
X136192312Y-72978505D01*
X136294951Y-72824895D01*
X136475920Y-72884475D01*
X137360395Y-72000000D01*
X137719605Y-72000000D01*
X138604080Y-72884475D01*
X138824463Y-72811919D01*
X138850186Y-72860044D01*
X139114587Y-72955808D01*
X140070395Y-72000000D01*
X140429605Y-72000000D01*
X141385413Y-72955808D01*
X141649814Y-72860044D01*
X141790704Y-72570429D01*
X141872384Y-72258892D01*
X141884189Y-72062595D01*
X145108282Y-72062595D01*
X145152039Y-72381675D01*
X145257205Y-72686088D01*
X145350186Y-72860044D01*
X145614587Y-72955808D01*
X146570395Y-72000000D01*
X146929605Y-72000000D01*
X147885413Y-72955808D01*
X148149814Y-72860044D01*
X148290704Y-72570429D01*
X148372384Y-72258892D01*
X148391718Y-71937405D01*
X148347961Y-71618325D01*
X148242795Y-71313912D01*
X148149814Y-71139956D01*
X147885413Y-71044192D01*
X146929605Y-72000000D01*
X146570395Y-72000000D01*
X145614587Y-71044192D01*
X145350186Y-71139956D01*
X145209296Y-71429571D01*
X145127616Y-71741108D01*
X145108282Y-72062595D01*
X141884189Y-72062595D01*
X141891718Y-71937405D01*
X141847961Y-71618325D01*
X141742795Y-71313912D01*
X141649814Y-71139956D01*
X141385413Y-71044192D01*
X140429605Y-72000000D01*
X140070395Y-72000000D01*
X139114587Y-71044192D01*
X138850186Y-71139956D01*
X138826455Y-71188737D01*
X138604080Y-71115525D01*
X137719605Y-72000000D01*
X137360395Y-72000000D01*
X136475920Y-71115525D01*
X136294951Y-71175105D01*
X136192312Y-71021495D01*
X135978505Y-70807688D01*
X135757475Y-70660000D01*
X136779878Y-70660000D01*
X136739208Y-70681739D01*
X136655525Y-70935920D01*
X137540000Y-71820395D01*
X138424475Y-70935920D01*
X138340792Y-70681739D01*
X138295525Y-70660000D01*
X139368292Y-70660000D01*
X139294192Y-70864587D01*
X140250000Y-71820395D01*
X141205808Y-70864587D01*
X141131708Y-70660000D01*
X145868292Y-70660000D01*
X145794192Y-70864587D01*
X146750000Y-71820395D01*
X147705808Y-70864587D01*
X147631708Y-70660000D01*
X159340000Y-70660000D01*
X159340001Y-119340000D01*
X110660000Y-119340000D01*
X110660000Y-109482408D01*
X125983000Y-109482408D01*
X125983000Y-109757592D01*
X126036686Y-110027490D01*
X126141995Y-110281727D01*
X126294880Y-110510535D01*
X126489465Y-110705120D01*
X126718273Y-110858005D01*
X126795515Y-110890000D01*
X126718273Y-110921995D01*
X126489465Y-111074880D01*
X126294880Y-111269465D01*
X126141995Y-111498273D01*
X126036686Y-111752510D01*
X125983000Y-112022408D01*
X125983000Y-112297592D01*
X126036686Y-112567490D01*
X126141995Y-112821727D01*
X126294880Y-113050535D01*
X126489465Y-113245120D01*
X126718273Y-113398005D01*
X126795515Y-113430000D01*
X126718273Y-113461995D01*
X126489465Y-113614880D01*
X126294880Y-113809465D01*
X126141995Y-114038273D01*
X126036686Y-114292510D01*
X125983000Y-114562408D01*
X125983000Y-114837592D01*
X126036686Y-115107490D01*
X126141995Y-115361727D01*
X126294880Y-115590535D01*
X126489465Y-115785120D01*
X126718273Y-115938005D01*
X126972510Y-116043314D01*
X127242408Y-116097000D01*
X127517592Y-116097000D01*
X127787490Y-116043314D01*
X128041727Y-115938005D01*
X128270535Y-115785120D01*
X128465120Y-115590535D01*
X128618005Y-115361727D01*
X128723314Y-115107490D01*
X128777000Y-114837592D01*
X128777000Y-114562408D01*
X141223000Y-114562408D01*
X141223000Y-114837592D01*
X141276686Y-115107490D01*
X141381995Y-115361727D01*
X141534880Y-115590535D01*
X141729465Y-115785120D01*
X141958273Y-115938005D01*
X142212510Y-116043314D01*
X142482408Y-116097000D01*
X142757592Y-116097000D01*
X143027490Y-116043314D01*
X143281727Y-115938005D01*
X143510535Y-115785120D01*
X143705120Y-115590535D01*
X143858005Y-115361727D01*
X143963314Y-115107490D01*
X144017000Y-114837592D01*
X144017000Y-114562408D01*
X143963314Y-114292510D01*
X143858005Y-114038273D01*
X143705120Y-113809465D01*
X143510535Y-113614880D01*
X143281727Y-113461995D01*
X143210057Y-113432308D01*
X143223023Y-113427636D01*
X143338980Y-113365656D01*
X143405960Y-113125565D01*
X142620000Y-112339605D01*
X141834040Y-113125565D01*
X141901020Y-113365656D01*
X142036760Y-113429485D01*
X141958273Y-113461995D01*
X141729465Y-113614880D01*
X141534880Y-113809465D01*
X141381995Y-114038273D01*
X141276686Y-114292510D01*
X141223000Y-114562408D01*
X128777000Y-114562408D01*
X128723314Y-114292510D01*
X128618005Y-114038273D01*
X128465120Y-113809465D01*
X128270535Y-113614880D01*
X128041727Y-113461995D01*
X127964485Y-113430000D01*
X128041727Y-113398005D01*
X128270535Y-113245120D01*
X128465120Y-113050535D01*
X128618005Y-112821727D01*
X128723314Y-112567490D01*
X128777000Y-112297592D01*
X128777000Y-112232017D01*
X141218090Y-112232017D01*
X141259078Y-112504133D01*
X141352364Y-112763023D01*
X141414344Y-112878980D01*
X141654435Y-112945960D01*
X142440395Y-112160000D01*
X142799605Y-112160000D01*
X143585565Y-112945960D01*
X143825656Y-112878980D01*
X143942756Y-112629952D01*
X144009023Y-112362865D01*
X144021910Y-112087983D01*
X143980922Y-111815867D01*
X143887636Y-111556977D01*
X143825656Y-111441020D01*
X143585565Y-111374040D01*
X142799605Y-112160000D01*
X142440395Y-112160000D01*
X141654435Y-111374040D01*
X141414344Y-111441020D01*
X141297244Y-111690048D01*
X141230977Y-111957135D01*
X141218090Y-112232017D01*
X128777000Y-112232017D01*
X128777000Y-112022408D01*
X128723314Y-111752510D01*
X128618005Y-111498273D01*
X128465120Y-111269465D01*
X128270535Y-111074880D01*
X128041727Y-110921995D01*
X127964485Y-110890000D01*
X128041727Y-110858005D01*
X128270535Y-110705120D01*
X128465120Y-110510535D01*
X128618005Y-110281727D01*
X128723314Y-110027490D01*
X128777000Y-109757592D01*
X128777000Y-109482408D01*
X128723314Y-109212510D01*
X128618005Y-108958273D01*
X128465120Y-108729465D01*
X128270535Y-108534880D01*
X128041727Y-108381995D01*
X127970057Y-108352308D01*
X127983023Y-108347636D01*
X128098980Y-108285656D01*
X128165960Y-108045565D01*
X127380000Y-107259605D01*
X126594040Y-108045565D01*
X126661020Y-108285656D01*
X126796760Y-108349485D01*
X126718273Y-108381995D01*
X126489465Y-108534880D01*
X126294880Y-108729465D01*
X126141995Y-108958273D01*
X126036686Y-109212510D01*
X125983000Y-109482408D01*
X110660000Y-109482408D01*
X110660000Y-83407911D01*
X112065000Y-83407911D01*
X112065000Y-83592089D01*
X112100932Y-83772729D01*
X112171414Y-83942889D01*
X112240001Y-84045536D01*
X112240001Y-84477428D01*
X112236324Y-84514760D01*
X112240001Y-84552093D01*
X112250998Y-84663746D01*
X112262680Y-84702257D01*
X112294454Y-84807006D01*
X112365026Y-84939036D01*
X112436201Y-85025762D01*
X112460000Y-85054761D01*
X112488998Y-85078559D01*
X125928442Y-98518004D01*
X125952240Y-98547002D01*
X126067965Y-98641975D01*
X126199465Y-98712264D01*
X126141995Y-98798273D01*
X126036686Y-99052510D01*
X125983000Y-99322408D01*
X125983000Y-99597592D01*
X126036686Y-99867490D01*
X126141995Y-100121727D01*
X126162890Y-100152999D01*
X113624326Y-100152999D01*
X113587001Y-100149323D01*
X113549676Y-100152999D01*
X113549668Y-100152999D01*
X113438015Y-100163996D01*
X113294754Y-100207453D01*
X113162725Y-100278025D01*
X113047000Y-100372998D01*
X113023201Y-100401997D01*
X112848351Y-100576847D01*
X112727271Y-100600932D01*
X112557111Y-100671414D01*
X112403972Y-100773738D01*
X112273738Y-100903972D01*
X112171414Y-101057111D01*
X112100932Y-101227271D01*
X112065000Y-101407911D01*
X112065000Y-101592089D01*
X112100932Y-101772729D01*
X112171414Y-101942889D01*
X112273738Y-102096028D01*
X112403972Y-102226262D01*
X112557111Y-102328586D01*
X112727271Y-102399068D01*
X112907911Y-102435000D01*
X113092089Y-102435000D01*
X113272729Y-102399068D01*
X113442889Y-102328586D01*
X113596028Y-102226262D01*
X113726262Y-102096028D01*
X113828586Y-101942889D01*
X113899068Y-101772729D01*
X113918906Y-101672999D01*
X126020676Y-101672999D01*
X125983000Y-101862408D01*
X125983000Y-102137592D01*
X126036686Y-102407490D01*
X126141995Y-102661727D01*
X126162890Y-102692999D01*
X116084323Y-102692999D01*
X116047000Y-102689323D01*
X116009677Y-102692999D01*
X116009668Y-102692999D01*
X115898015Y-102703996D01*
X115754754Y-102747453D01*
X115622724Y-102818025D01*
X115539084Y-102886667D01*
X115507000Y-102912998D01*
X115483202Y-102941996D01*
X112848352Y-105576847D01*
X112727271Y-105600932D01*
X112557111Y-105671414D01*
X112403972Y-105773738D01*
X112273738Y-105903972D01*
X112171414Y-106057111D01*
X112100932Y-106227271D01*
X112065000Y-106407911D01*
X112065000Y-106592089D01*
X112100932Y-106772729D01*
X112171414Y-106942889D01*
X112273738Y-107096028D01*
X112403972Y-107226262D01*
X112557111Y-107328586D01*
X112727271Y-107399068D01*
X112907911Y-107435000D01*
X113092089Y-107435000D01*
X113272729Y-107399068D01*
X113442889Y-107328586D01*
X113596028Y-107226262D01*
X113670273Y-107152017D01*
X125978090Y-107152017D01*
X126019078Y-107424133D01*
X126112364Y-107683023D01*
X126174344Y-107798980D01*
X126414435Y-107865960D01*
X127200395Y-107080000D01*
X127559605Y-107080000D01*
X128345565Y-107865960D01*
X128585656Y-107798980D01*
X128702756Y-107549952D01*
X128769023Y-107282865D01*
X128781910Y-107007983D01*
X128740922Y-106735867D01*
X128647636Y-106476977D01*
X128585656Y-106361020D01*
X128345565Y-106294040D01*
X127559605Y-107080000D01*
X127200395Y-107080000D01*
X126414435Y-106294040D01*
X126174344Y-106361020D01*
X126057244Y-106610048D01*
X125990977Y-106877135D01*
X125978090Y-107152017D01*
X113670273Y-107152017D01*
X113726262Y-107096028D01*
X113828586Y-106942889D01*
X113899068Y-106772729D01*
X113923153Y-106651648D01*
X116361803Y-104212999D01*
X126020676Y-104212999D01*
X125983000Y-104402408D01*
X125983000Y-104677592D01*
X126036686Y-104947490D01*
X126141995Y-105201727D01*
X126294880Y-105430535D01*
X126489465Y-105625120D01*
X126718273Y-105778005D01*
X126789943Y-105807692D01*
X126776977Y-105812364D01*
X126661020Y-105874344D01*
X126594040Y-106114435D01*
X127380000Y-106900395D01*
X128165960Y-106114435D01*
X128098980Y-105874344D01*
X127963240Y-105810515D01*
X128041727Y-105778005D01*
X128270535Y-105625120D01*
X128465120Y-105430535D01*
X128618005Y-105201727D01*
X128723314Y-104947490D01*
X128777000Y-104677592D01*
X128777000Y-104402408D01*
X128739324Y-104212999D01*
X138250917Y-104212999D01*
X138288239Y-104216675D01*
X138325561Y-104212999D01*
X138325572Y-104212999D01*
X138437225Y-104202002D01*
X138580486Y-104158545D01*
X138712515Y-104087973D01*
X138828240Y-103993000D01*
X138852043Y-103963996D01*
X138858945Y-103957094D01*
X138994880Y-104160535D01*
X139189465Y-104355120D01*
X139368839Y-104474974D01*
X139374454Y-104493484D01*
X139416907Y-104572908D01*
X139189465Y-104724880D01*
X138994880Y-104919465D01*
X138841995Y-105148273D01*
X138736686Y-105402510D01*
X138683000Y-105672408D01*
X138683000Y-105947592D01*
X138736686Y-106217490D01*
X138841995Y-106471727D01*
X138994880Y-106700535D01*
X139189465Y-106895120D01*
X139326050Y-106986383D01*
X139330997Y-107036615D01*
X139366003Y-107152017D01*
X139374454Y-107179876D01*
X139445026Y-107311906D01*
X139484871Y-107360456D01*
X139539999Y-107427631D01*
X139569003Y-107451434D01*
X140795572Y-108678004D01*
X140819370Y-108707002D01*
X140935095Y-108801975D01*
X141067124Y-108872547D01*
X141210385Y-108916004D01*
X141322038Y-108927001D01*
X141322048Y-108927001D01*
X141359371Y-108930677D01*
X141396694Y-108927001D01*
X141402890Y-108927001D01*
X141381995Y-108958273D01*
X141276686Y-109212510D01*
X141223000Y-109482408D01*
X141223000Y-109757592D01*
X141276686Y-110027490D01*
X141381995Y-110281727D01*
X141534880Y-110510535D01*
X141729465Y-110705120D01*
X141958273Y-110858005D01*
X142029943Y-110887692D01*
X142016977Y-110892364D01*
X141901020Y-110954344D01*
X141834040Y-111194435D01*
X142620000Y-111980395D01*
X143405960Y-111194435D01*
X143338980Y-110954344D01*
X143203240Y-110890515D01*
X143281727Y-110858005D01*
X143510535Y-110705120D01*
X143705120Y-110510535D01*
X143858005Y-110281727D01*
X143963314Y-110027490D01*
X144017000Y-109757592D01*
X144017000Y-109482408D01*
X143963314Y-109212510D01*
X143858005Y-108958273D01*
X143837110Y-108927001D01*
X155295677Y-108927001D01*
X155332999Y-108930677D01*
X155370321Y-108927001D01*
X155370332Y-108927001D01*
X155481985Y-108916004D01*
X155625246Y-108872547D01*
X155757275Y-108801975D01*
X155873000Y-108707002D01*
X155896802Y-108677999D01*
X157151650Y-107423152D01*
X157272729Y-107399068D01*
X157442889Y-107328586D01*
X157596028Y-107226262D01*
X157726262Y-107096028D01*
X157828586Y-106942889D01*
X157899068Y-106772729D01*
X157935000Y-106592089D01*
X157935000Y-106407911D01*
X157899068Y-106227271D01*
X157828586Y-106057111D01*
X157726262Y-105903972D01*
X157596028Y-105773738D01*
X157442889Y-105671414D01*
X157272729Y-105600932D01*
X157092089Y-105565000D01*
X156907911Y-105565000D01*
X156727271Y-105600932D01*
X156557111Y-105671414D01*
X156403972Y-105773738D01*
X156273738Y-105903972D01*
X156171414Y-106057111D01*
X156100932Y-106227271D01*
X156076848Y-106348350D01*
X155018198Y-107407001D01*
X143979324Y-107407001D01*
X144017000Y-107217592D01*
X144017000Y-106942408D01*
X143979324Y-106752999D01*
X152469679Y-106752999D01*
X152507001Y-106756675D01*
X152544323Y-106752999D01*
X152544334Y-106752999D01*
X152655987Y-106742002D01*
X152799248Y-106698545D01*
X152931277Y-106627973D01*
X153047002Y-106533000D01*
X153070805Y-106503996D01*
X157151649Y-102423153D01*
X157272729Y-102399068D01*
X157442889Y-102328586D01*
X157596028Y-102226262D01*
X157726262Y-102096028D01*
X157828586Y-101942889D01*
X157899068Y-101772729D01*
X157935000Y-101592089D01*
X157935000Y-101407911D01*
X157899068Y-101227271D01*
X157828586Y-101057111D01*
X157726262Y-100903972D01*
X157596028Y-100773738D01*
X157442889Y-100671414D01*
X157272729Y-100600932D01*
X157092089Y-100565000D01*
X156907911Y-100565000D01*
X156727271Y-100600932D01*
X156557111Y-100671414D01*
X156403972Y-100773738D01*
X156273738Y-100903972D01*
X156171414Y-101057111D01*
X156100932Y-101227271D01*
X156076847Y-101348351D01*
X152192200Y-105232999D01*
X143837110Y-105232999D01*
X143858005Y-105201727D01*
X143963314Y-104947490D01*
X144017000Y-104677592D01*
X144017000Y-104402408D01*
X143986372Y-104248429D01*
X157511003Y-90723799D01*
X157540001Y-90700001D01*
X157586523Y-90643314D01*
X157634974Y-90584277D01*
X157705546Y-90452247D01*
X157725908Y-90385120D01*
X157749003Y-90308986D01*
X157760000Y-90197333D01*
X157760000Y-90197324D01*
X157763676Y-90160001D01*
X157760000Y-90122678D01*
X157760000Y-84045535D01*
X157828586Y-83942889D01*
X157899068Y-83772729D01*
X157935000Y-83592089D01*
X157935000Y-83407911D01*
X157899068Y-83227271D01*
X157828586Y-83057111D01*
X157726262Y-82903972D01*
X157596028Y-82773738D01*
X157442889Y-82671414D01*
X157272729Y-82600932D01*
X157092089Y-82565000D01*
X156907911Y-82565000D01*
X156727271Y-82600932D01*
X156557111Y-82671414D01*
X156403972Y-82773738D01*
X156273738Y-82903972D01*
X156171414Y-83057111D01*
X156100932Y-83227271D01*
X156065000Y-83407911D01*
X156065000Y-83592089D01*
X156100932Y-83772729D01*
X156171414Y-83942889D01*
X156240000Y-84045536D01*
X156240001Y-89845197D01*
X144017000Y-102068199D01*
X144017000Y-101862408D01*
X143963314Y-101592510D01*
X143858005Y-101338273D01*
X143705120Y-101109465D01*
X143510535Y-100914880D01*
X143281727Y-100761995D01*
X143204485Y-100730000D01*
X143281727Y-100698005D01*
X143510535Y-100545120D01*
X143705120Y-100350535D01*
X143858005Y-100121727D01*
X143963314Y-99867490D01*
X144017000Y-99597592D01*
X144017000Y-99322408D01*
X143963314Y-99052510D01*
X143858005Y-98798273D01*
X143705120Y-98569465D01*
X143510535Y-98374880D01*
X143281727Y-98221995D01*
X143204485Y-98190000D01*
X143281727Y-98158005D01*
X143510535Y-98005120D01*
X143705120Y-97810535D01*
X143858005Y-97581727D01*
X143963314Y-97327490D01*
X144017000Y-97057592D01*
X144017000Y-96782408D01*
X143963314Y-96512510D01*
X143858005Y-96258273D01*
X143705120Y-96029465D01*
X143510535Y-95834880D01*
X143281727Y-95681995D01*
X143204485Y-95650000D01*
X143281727Y-95618005D01*
X143510535Y-95465120D01*
X143705120Y-95270535D01*
X143858005Y-95041727D01*
X143963314Y-94787490D01*
X144017000Y-94517592D01*
X144017000Y-94242408D01*
X143986372Y-94088430D01*
X144218004Y-93856798D01*
X144247002Y-93833000D01*
X144341975Y-93717275D01*
X144412547Y-93585246D01*
X144456004Y-93441985D01*
X144467001Y-93330332D01*
X144470678Y-93292999D01*
X144467001Y-93255666D01*
X144467001Y-86275561D01*
X144470677Y-86238238D01*
X144467001Y-86200915D01*
X144467001Y-86200906D01*
X144456004Y-86089253D01*
X144412547Y-85945992D01*
X144341975Y-85813962D01*
X144270800Y-85727236D01*
X144247002Y-85698238D01*
X144218005Y-85674441D01*
X142642005Y-84098442D01*
X142809578Y-83986473D01*
X142986473Y-83809578D01*
X143125459Y-83601571D01*
X143221195Y-83370445D01*
X143270000Y-83125084D01*
X143270000Y-82874916D01*
X143221195Y-82629555D01*
X143125459Y-82398429D01*
X142986473Y-82190422D01*
X142809578Y-82013527D01*
X142601571Y-81874541D01*
X142370445Y-81778805D01*
X142125084Y-81730000D01*
X141874916Y-81730000D01*
X141816434Y-81741633D01*
X137334801Y-77260000D01*
X138795091Y-77260000D01*
X138801082Y-77274463D01*
X138980013Y-77542252D01*
X139207748Y-77769987D01*
X139475537Y-77948918D01*
X139773088Y-78072168D01*
X140088967Y-78135000D01*
X140411033Y-78135000D01*
X140726912Y-78072168D01*
X141024463Y-77948918D01*
X141292252Y-77769987D01*
X141519987Y-77542252D01*
X141698918Y-77274463D01*
X141704909Y-77260000D01*
X145295091Y-77260000D01*
X145301082Y-77274463D01*
X145480013Y-77542252D01*
X145707748Y-77769987D01*
X145975537Y-77948918D01*
X146273088Y-78072168D01*
X146588967Y-78135000D01*
X146911033Y-78135000D01*
X147226912Y-78072168D01*
X147524463Y-77948918D01*
X147792252Y-77769987D01*
X148019987Y-77542252D01*
X148198918Y-77274463D01*
X148322168Y-76976912D01*
X148385000Y-76661033D01*
X148385000Y-76338967D01*
X148322168Y-76023088D01*
X148198918Y-75725537D01*
X148019987Y-75457748D01*
X147792252Y-75230013D01*
X147524463Y-75051082D01*
X147226912Y-74927832D01*
X146911033Y-74865000D01*
X146588967Y-74865000D01*
X146273088Y-74927832D01*
X145975537Y-75051082D01*
X145707748Y-75230013D01*
X145480013Y-75457748D01*
X145301082Y-75725537D01*
X145295091Y-75740000D01*
X141704909Y-75740000D01*
X141698918Y-75725537D01*
X141519987Y-75457748D01*
X141292252Y-75230013D01*
X141024463Y-75051082D01*
X140726912Y-74927832D01*
X140411033Y-74865000D01*
X140088967Y-74865000D01*
X139773088Y-74927832D01*
X139475537Y-75051082D01*
X139207748Y-75230013D01*
X138980013Y-75457748D01*
X138801082Y-75725537D01*
X138795091Y-75740000D01*
X126112331Y-75740000D01*
X126074998Y-75736323D01*
X126037665Y-75740000D01*
X125926012Y-75750997D01*
X125782751Y-75794454D01*
X125650722Y-75865026D01*
X125534997Y-75959999D01*
X125511199Y-75988997D01*
X123318998Y-78181199D01*
X123290000Y-78204997D01*
X123266202Y-78233995D01*
X123266201Y-78233996D01*
X123195026Y-78320722D01*
X123124454Y-78452752D01*
X123080998Y-78596013D01*
X123066324Y-78744998D01*
X123070001Y-78782330D01*
X123070000Y-85712677D01*
X123066324Y-85750000D01*
X123070000Y-85787322D01*
X123070000Y-85787332D01*
X123080997Y-85898985D01*
X123124082Y-86041020D01*
X123124454Y-86042246D01*
X123195026Y-86174276D01*
X123216881Y-86200906D01*
X123289999Y-86290001D01*
X123319003Y-86313804D01*
X126013628Y-89008430D01*
X125983000Y-89162408D01*
X125983000Y-89437592D01*
X126036686Y-89707490D01*
X126141995Y-89961727D01*
X126294880Y-90190535D01*
X126489465Y-90385120D01*
X126718273Y-90538005D01*
X126795515Y-90570000D01*
X126718273Y-90601995D01*
X126489465Y-90754880D01*
X126294880Y-90949465D01*
X126141995Y-91178273D01*
X126036686Y-91432510D01*
X125983000Y-91702408D01*
X125983000Y-91977592D01*
X126036686Y-92247490D01*
X126141995Y-92501727D01*
X126294880Y-92730535D01*
X126489465Y-92925120D01*
X126718273Y-93078005D01*
X126795515Y-93110000D01*
X126718273Y-93141995D01*
X126489465Y-93294880D01*
X126294880Y-93489465D01*
X126141995Y-93718273D01*
X126036686Y-93972510D01*
X125983000Y-94242408D01*
X125983000Y-94517592D01*
X126036686Y-94787490D01*
X126141995Y-95041727D01*
X126294880Y-95270535D01*
X126489465Y-95465120D01*
X126718273Y-95618005D01*
X126795515Y-95650000D01*
X126718273Y-95681995D01*
X126489465Y-95834880D01*
X126294880Y-96029465D01*
X126141995Y-96258273D01*
X126047191Y-96487149D01*
X113760000Y-84199959D01*
X113760000Y-84045535D01*
X113828586Y-83942889D01*
X113899068Y-83772729D01*
X113935000Y-83592089D01*
X113935000Y-83407911D01*
X113899068Y-83227271D01*
X113828586Y-83057111D01*
X113726262Y-82903972D01*
X113596028Y-82773738D01*
X113442889Y-82671414D01*
X113272729Y-82600932D01*
X113092089Y-82565000D01*
X112907911Y-82565000D01*
X112727271Y-82600932D01*
X112557111Y-82671414D01*
X112403972Y-82773738D01*
X112273738Y-82903972D01*
X112171414Y-83057111D01*
X112100932Y-83227271D01*
X112065000Y-83407911D01*
X110660000Y-83407911D01*
X110660000Y-70660000D01*
X131099636Y-70660000D01*
X131029463Y-70745506D01*
%TA.AperFunction,Conductor*%
D19*
G36*
X131029463Y-70745506D02*
G01*
X130970498Y-70855820D01*
X130934188Y-70975518D01*
X130921928Y-71100000D01*
X130921928Y-72900000D01*
X130934188Y-73024482D01*
X130970498Y-73144180D01*
X131029463Y-73254494D01*
X131108815Y-73351185D01*
X131205506Y-73430537D01*
X131315820Y-73489502D01*
X131435518Y-73525812D01*
X131560000Y-73538072D01*
X133360000Y-73538072D01*
X133484482Y-73525812D01*
X133604180Y-73489502D01*
X133714494Y-73430537D01*
X133811185Y-73351185D01*
X133890537Y-73254494D01*
X133949502Y-73144180D01*
X133955056Y-73125873D01*
X134021495Y-73192312D01*
X134272905Y-73360299D01*
X134552257Y-73476011D01*
X134848816Y-73535000D01*
X135151184Y-73535000D01*
X135447743Y-73476011D01*
X135727095Y-73360299D01*
X135978505Y-73192312D01*
X136106737Y-73064080D01*
X136655525Y-73064080D01*
X136739208Y-73318261D01*
X137011775Y-73449158D01*
X137304642Y-73524365D01*
X137606553Y-73540991D01*
X137905907Y-73498397D01*
X138191199Y-73398222D01*
X138340792Y-73318261D01*
X138400990Y-73135413D01*
X139294192Y-73135413D01*
X139389956Y-73399814D01*
X139679571Y-73540704D01*
X139991108Y-73622384D01*
X140312595Y-73641718D01*
X140631675Y-73597961D01*
X140936088Y-73492795D01*
X141110044Y-73399814D01*
X141205808Y-73135413D01*
X145794192Y-73135413D01*
X145889956Y-73399814D01*
X146179571Y-73540704D01*
X146491108Y-73622384D01*
X146812595Y-73641718D01*
X147131675Y-73597961D01*
X147436088Y-73492795D01*
X147610044Y-73399814D01*
X147705808Y-73135413D01*
X146750000Y-72179605D01*
X145794192Y-73135413D01*
X141205808Y-73135413D01*
X140250000Y-72179605D01*
X139294192Y-73135413D01*
X138400990Y-73135413D01*
X138424475Y-73064080D01*
X137540000Y-72179605D01*
X136655525Y-73064080D01*
X136106737Y-73064080D01*
X136192312Y-72978505D01*
X136294951Y-72824895D01*
X136475920Y-72884475D01*
X137360395Y-72000000D01*
X137719605Y-72000000D01*
X138604080Y-72884475D01*
X138824463Y-72811919D01*
X138850186Y-72860044D01*
X139114587Y-72955808D01*
X140070395Y-72000000D01*
X140429605Y-72000000D01*
X141385413Y-72955808D01*
X141649814Y-72860044D01*
X141790704Y-72570429D01*
X141872384Y-72258892D01*
X141884189Y-72062595D01*
X145108282Y-72062595D01*
X145152039Y-72381675D01*
X145257205Y-72686088D01*
X145350186Y-72860044D01*
X145614587Y-72955808D01*
X146570395Y-72000000D01*
X146929605Y-72000000D01*
X147885413Y-72955808D01*
X148149814Y-72860044D01*
X148290704Y-72570429D01*
X148372384Y-72258892D01*
X148391718Y-71937405D01*
X148347961Y-71618325D01*
X148242795Y-71313912D01*
X148149814Y-71139956D01*
X147885413Y-71044192D01*
X146929605Y-72000000D01*
X146570395Y-72000000D01*
X145614587Y-71044192D01*
X145350186Y-71139956D01*
X145209296Y-71429571D01*
X145127616Y-71741108D01*
X145108282Y-72062595D01*
X141884189Y-72062595D01*
X141891718Y-71937405D01*
X141847961Y-71618325D01*
X141742795Y-71313912D01*
X141649814Y-71139956D01*
X141385413Y-71044192D01*
X140429605Y-72000000D01*
X140070395Y-72000000D01*
X139114587Y-71044192D01*
X138850186Y-71139956D01*
X138826455Y-71188737D01*
X138604080Y-71115525D01*
X137719605Y-72000000D01*
X137360395Y-72000000D01*
X136475920Y-71115525D01*
X136294951Y-71175105D01*
X136192312Y-71021495D01*
X135978505Y-70807688D01*
X135757475Y-70660000D01*
X136779878Y-70660000D01*
X136739208Y-70681739D01*
X136655525Y-70935920D01*
X137540000Y-71820395D01*
X138424475Y-70935920D01*
X138340792Y-70681739D01*
X138295525Y-70660000D01*
X139368292Y-70660000D01*
X139294192Y-70864587D01*
X140250000Y-71820395D01*
X141205808Y-70864587D01*
X141131708Y-70660000D01*
X145868292Y-70660000D01*
X145794192Y-70864587D01*
X146750000Y-71820395D01*
X147705808Y-70864587D01*
X147631708Y-70660000D01*
X159340000Y-70660000D01*
X159340001Y-119340000D01*
X110660000Y-119340000D01*
X110660000Y-109482408D01*
X125983000Y-109482408D01*
X125983000Y-109757592D01*
X126036686Y-110027490D01*
X126141995Y-110281727D01*
X126294880Y-110510535D01*
X126489465Y-110705120D01*
X126718273Y-110858005D01*
X126795515Y-110890000D01*
X126718273Y-110921995D01*
X126489465Y-111074880D01*
X126294880Y-111269465D01*
X126141995Y-111498273D01*
X126036686Y-111752510D01*
X125983000Y-112022408D01*
X125983000Y-112297592D01*
X126036686Y-112567490D01*
X126141995Y-112821727D01*
X126294880Y-113050535D01*
X126489465Y-113245120D01*
X126718273Y-113398005D01*
X126795515Y-113430000D01*
X126718273Y-113461995D01*
X126489465Y-113614880D01*
X126294880Y-113809465D01*
X126141995Y-114038273D01*
X126036686Y-114292510D01*
X125983000Y-114562408D01*
X125983000Y-114837592D01*
X126036686Y-115107490D01*
X126141995Y-115361727D01*
X126294880Y-115590535D01*
X126489465Y-115785120D01*
X126718273Y-115938005D01*
X126972510Y-116043314D01*
X127242408Y-116097000D01*
X127517592Y-116097000D01*
X127787490Y-116043314D01*
X128041727Y-115938005D01*
X128270535Y-115785120D01*
X128465120Y-115590535D01*
X128618005Y-115361727D01*
X128723314Y-115107490D01*
X128777000Y-114837592D01*
X128777000Y-114562408D01*
X141223000Y-114562408D01*
X141223000Y-114837592D01*
X141276686Y-115107490D01*
X141381995Y-115361727D01*
X141534880Y-115590535D01*
X141729465Y-115785120D01*
X141958273Y-115938005D01*
X142212510Y-116043314D01*
X142482408Y-116097000D01*
X142757592Y-116097000D01*
X143027490Y-116043314D01*
X143281727Y-115938005D01*
X143510535Y-115785120D01*
X143705120Y-115590535D01*
X143858005Y-115361727D01*
X143963314Y-115107490D01*
X144017000Y-114837592D01*
X144017000Y-114562408D01*
X143963314Y-114292510D01*
X143858005Y-114038273D01*
X143705120Y-113809465D01*
X143510535Y-113614880D01*
X143281727Y-113461995D01*
X143210057Y-113432308D01*
X143223023Y-113427636D01*
X143338980Y-113365656D01*
X143405960Y-113125565D01*
X142620000Y-112339605D01*
X141834040Y-113125565D01*
X141901020Y-113365656D01*
X142036760Y-113429485D01*
X141958273Y-113461995D01*
X141729465Y-113614880D01*
X141534880Y-113809465D01*
X141381995Y-114038273D01*
X141276686Y-114292510D01*
X141223000Y-114562408D01*
X128777000Y-114562408D01*
X128723314Y-114292510D01*
X128618005Y-114038273D01*
X128465120Y-113809465D01*
X128270535Y-113614880D01*
X128041727Y-113461995D01*
X127964485Y-113430000D01*
X128041727Y-113398005D01*
X128270535Y-113245120D01*
X128465120Y-113050535D01*
X128618005Y-112821727D01*
X128723314Y-112567490D01*
X128777000Y-112297592D01*
X128777000Y-112232017D01*
X141218090Y-112232017D01*
X141259078Y-112504133D01*
X141352364Y-112763023D01*
X141414344Y-112878980D01*
X141654435Y-112945960D01*
X142440395Y-112160000D01*
X142799605Y-112160000D01*
X143585565Y-112945960D01*
X143825656Y-112878980D01*
X143942756Y-112629952D01*
X144009023Y-112362865D01*
X144021910Y-112087983D01*
X143980922Y-111815867D01*
X143887636Y-111556977D01*
X143825656Y-111441020D01*
X143585565Y-111374040D01*
X142799605Y-112160000D01*
X142440395Y-112160000D01*
X141654435Y-111374040D01*
X141414344Y-111441020D01*
X141297244Y-111690048D01*
X141230977Y-111957135D01*
X141218090Y-112232017D01*
X128777000Y-112232017D01*
X128777000Y-112022408D01*
X128723314Y-111752510D01*
X128618005Y-111498273D01*
X128465120Y-111269465D01*
X128270535Y-111074880D01*
X128041727Y-110921995D01*
X127964485Y-110890000D01*
X128041727Y-110858005D01*
X128270535Y-110705120D01*
X128465120Y-110510535D01*
X128618005Y-110281727D01*
X128723314Y-110027490D01*
X128777000Y-109757592D01*
X128777000Y-109482408D01*
X128723314Y-109212510D01*
X128618005Y-108958273D01*
X128465120Y-108729465D01*
X128270535Y-108534880D01*
X128041727Y-108381995D01*
X127970057Y-108352308D01*
X127983023Y-108347636D01*
X128098980Y-108285656D01*
X128165960Y-108045565D01*
X127380000Y-107259605D01*
X126594040Y-108045565D01*
X126661020Y-108285656D01*
X126796760Y-108349485D01*
X126718273Y-108381995D01*
X126489465Y-108534880D01*
X126294880Y-108729465D01*
X126141995Y-108958273D01*
X126036686Y-109212510D01*
X125983000Y-109482408D01*
X110660000Y-109482408D01*
X110660000Y-83407911D01*
X112065000Y-83407911D01*
X112065000Y-83592089D01*
X112100932Y-83772729D01*
X112171414Y-83942889D01*
X112240001Y-84045536D01*
X112240001Y-84477428D01*
X112236324Y-84514760D01*
X112240001Y-84552093D01*
X112250998Y-84663746D01*
X112262680Y-84702257D01*
X112294454Y-84807006D01*
X112365026Y-84939036D01*
X112436201Y-85025762D01*
X112460000Y-85054761D01*
X112488998Y-85078559D01*
X125928442Y-98518004D01*
X125952240Y-98547002D01*
X126067965Y-98641975D01*
X126199465Y-98712264D01*
X126141995Y-98798273D01*
X126036686Y-99052510D01*
X125983000Y-99322408D01*
X125983000Y-99597592D01*
X126036686Y-99867490D01*
X126141995Y-100121727D01*
X126162890Y-100152999D01*
X113624326Y-100152999D01*
X113587001Y-100149323D01*
X113549676Y-100152999D01*
X113549668Y-100152999D01*
X113438015Y-100163996D01*
X113294754Y-100207453D01*
X113162725Y-100278025D01*
X113047000Y-100372998D01*
X113023201Y-100401997D01*
X112848351Y-100576847D01*
X112727271Y-100600932D01*
X112557111Y-100671414D01*
X112403972Y-100773738D01*
X112273738Y-100903972D01*
X112171414Y-101057111D01*
X112100932Y-101227271D01*
X112065000Y-101407911D01*
X112065000Y-101592089D01*
X112100932Y-101772729D01*
X112171414Y-101942889D01*
X112273738Y-102096028D01*
X112403972Y-102226262D01*
X112557111Y-102328586D01*
X112727271Y-102399068D01*
X112907911Y-102435000D01*
X113092089Y-102435000D01*
X113272729Y-102399068D01*
X113442889Y-102328586D01*
X113596028Y-102226262D01*
X113726262Y-102096028D01*
X113828586Y-101942889D01*
X113899068Y-101772729D01*
X113918906Y-101672999D01*
X126020676Y-101672999D01*
X125983000Y-101862408D01*
X125983000Y-102137592D01*
X126036686Y-102407490D01*
X126141995Y-102661727D01*
X126162890Y-102692999D01*
X116084323Y-102692999D01*
X116047000Y-102689323D01*
X116009677Y-102692999D01*
X116009668Y-102692999D01*
X115898015Y-102703996D01*
X115754754Y-102747453D01*
X115622724Y-102818025D01*
X115539084Y-102886667D01*
X115507000Y-102912998D01*
X115483202Y-102941996D01*
X112848352Y-105576847D01*
X112727271Y-105600932D01*
X112557111Y-105671414D01*
X112403972Y-105773738D01*
X112273738Y-105903972D01*
X112171414Y-106057111D01*
X112100932Y-106227271D01*
X112065000Y-106407911D01*
X112065000Y-106592089D01*
X112100932Y-106772729D01*
X112171414Y-106942889D01*
X112273738Y-107096028D01*
X112403972Y-107226262D01*
X112557111Y-107328586D01*
X112727271Y-107399068D01*
X112907911Y-107435000D01*
X113092089Y-107435000D01*
X113272729Y-107399068D01*
X113442889Y-107328586D01*
X113596028Y-107226262D01*
X113670273Y-107152017D01*
X125978090Y-107152017D01*
X126019078Y-107424133D01*
X126112364Y-107683023D01*
X126174344Y-107798980D01*
X126414435Y-107865960D01*
X127200395Y-107080000D01*
X127559605Y-107080000D01*
X128345565Y-107865960D01*
X128585656Y-107798980D01*
X128702756Y-107549952D01*
X128769023Y-107282865D01*
X128781910Y-107007983D01*
X128740922Y-106735867D01*
X128647636Y-106476977D01*
X128585656Y-106361020D01*
X128345565Y-106294040D01*
X127559605Y-107080000D01*
X127200395Y-107080000D01*
X126414435Y-106294040D01*
X126174344Y-106361020D01*
X126057244Y-106610048D01*
X125990977Y-106877135D01*
X125978090Y-107152017D01*
X113670273Y-107152017D01*
X113726262Y-107096028D01*
X113828586Y-106942889D01*
X113899068Y-106772729D01*
X113923153Y-106651648D01*
X116361803Y-104212999D01*
X126020676Y-104212999D01*
X125983000Y-104402408D01*
X125983000Y-104677592D01*
X126036686Y-104947490D01*
X126141995Y-105201727D01*
X126294880Y-105430535D01*
X126489465Y-105625120D01*
X126718273Y-105778005D01*
X126789943Y-105807692D01*
X126776977Y-105812364D01*
X126661020Y-105874344D01*
X126594040Y-106114435D01*
X127380000Y-106900395D01*
X128165960Y-106114435D01*
X128098980Y-105874344D01*
X127963240Y-105810515D01*
X128041727Y-105778005D01*
X128270535Y-105625120D01*
X128465120Y-105430535D01*
X128618005Y-105201727D01*
X128723314Y-104947490D01*
X128777000Y-104677592D01*
X128777000Y-104402408D01*
X128739324Y-104212999D01*
X138250917Y-104212999D01*
X138288239Y-104216675D01*
X138325561Y-104212999D01*
X138325572Y-104212999D01*
X138437225Y-104202002D01*
X138580486Y-104158545D01*
X138712515Y-104087973D01*
X138828240Y-103993000D01*
X138852043Y-103963996D01*
X138858945Y-103957094D01*
X138994880Y-104160535D01*
X139189465Y-104355120D01*
X139368839Y-104474974D01*
X139374454Y-104493484D01*
X139416907Y-104572908D01*
X139189465Y-104724880D01*
X138994880Y-104919465D01*
X138841995Y-105148273D01*
X138736686Y-105402510D01*
X138683000Y-105672408D01*
X138683000Y-105947592D01*
X138736686Y-106217490D01*
X138841995Y-106471727D01*
X138994880Y-106700535D01*
X139189465Y-106895120D01*
X139326050Y-106986383D01*
X139330997Y-107036615D01*
X139366003Y-107152017D01*
X139374454Y-107179876D01*
X139445026Y-107311906D01*
X139484871Y-107360456D01*
X139539999Y-107427631D01*
X139569003Y-107451434D01*
X140795572Y-108678004D01*
X140819370Y-108707002D01*
X140935095Y-108801975D01*
X141067124Y-108872547D01*
X141210385Y-108916004D01*
X141322038Y-108927001D01*
X141322048Y-108927001D01*
X141359371Y-108930677D01*
X141396694Y-108927001D01*
X141402890Y-108927001D01*
X141381995Y-108958273D01*
X141276686Y-109212510D01*
X141223000Y-109482408D01*
X141223000Y-109757592D01*
X141276686Y-110027490D01*
X141381995Y-110281727D01*
X141534880Y-110510535D01*
X141729465Y-110705120D01*
X141958273Y-110858005D01*
X142029943Y-110887692D01*
X142016977Y-110892364D01*
X141901020Y-110954344D01*
X141834040Y-111194435D01*
X142620000Y-111980395D01*
X143405960Y-111194435D01*
X143338980Y-110954344D01*
X143203240Y-110890515D01*
X143281727Y-110858005D01*
X143510535Y-110705120D01*
X143705120Y-110510535D01*
X143858005Y-110281727D01*
X143963314Y-110027490D01*
X144017000Y-109757592D01*
X144017000Y-109482408D01*
X143963314Y-109212510D01*
X143858005Y-108958273D01*
X143837110Y-108927001D01*
X155295677Y-108927001D01*
X155332999Y-108930677D01*
X155370321Y-108927001D01*
X155370332Y-108927001D01*
X155481985Y-108916004D01*
X155625246Y-108872547D01*
X155757275Y-108801975D01*
X155873000Y-108707002D01*
X155896802Y-108677999D01*
X157151650Y-107423152D01*
X157272729Y-107399068D01*
X157442889Y-107328586D01*
X157596028Y-107226262D01*
X157726262Y-107096028D01*
X157828586Y-106942889D01*
X157899068Y-106772729D01*
X157935000Y-106592089D01*
X157935000Y-106407911D01*
X157899068Y-106227271D01*
X157828586Y-106057111D01*
X157726262Y-105903972D01*
X157596028Y-105773738D01*
X157442889Y-105671414D01*
X157272729Y-105600932D01*
X157092089Y-105565000D01*
X156907911Y-105565000D01*
X156727271Y-105600932D01*
X156557111Y-105671414D01*
X156403972Y-105773738D01*
X156273738Y-105903972D01*
X156171414Y-106057111D01*
X156100932Y-106227271D01*
X156076848Y-106348350D01*
X155018198Y-107407001D01*
X143979324Y-107407001D01*
X144017000Y-107217592D01*
X144017000Y-106942408D01*
X143979324Y-106752999D01*
X152469679Y-106752999D01*
X152507001Y-106756675D01*
X152544323Y-106752999D01*
X152544334Y-106752999D01*
X152655987Y-106742002D01*
X152799248Y-106698545D01*
X152931277Y-106627973D01*
X153047002Y-106533000D01*
X153070805Y-106503996D01*
X157151649Y-102423153D01*
X157272729Y-102399068D01*
X157442889Y-102328586D01*
X157596028Y-102226262D01*
X157726262Y-102096028D01*
X157828586Y-101942889D01*
X157899068Y-101772729D01*
X157935000Y-101592089D01*
X157935000Y-101407911D01*
X157899068Y-101227271D01*
X157828586Y-101057111D01*
X157726262Y-100903972D01*
X157596028Y-100773738D01*
X157442889Y-100671414D01*
X157272729Y-100600932D01*
X157092089Y-100565000D01*
X156907911Y-100565000D01*
X156727271Y-100600932D01*
X156557111Y-100671414D01*
X156403972Y-100773738D01*
X156273738Y-100903972D01*
X156171414Y-101057111D01*
X156100932Y-101227271D01*
X156076847Y-101348351D01*
X152192200Y-105232999D01*
X143837110Y-105232999D01*
X143858005Y-105201727D01*
X143963314Y-104947490D01*
X144017000Y-104677592D01*
X144017000Y-104402408D01*
X143986372Y-104248429D01*
X157511003Y-90723799D01*
X157540001Y-90700001D01*
X157586523Y-90643314D01*
X157634974Y-90584277D01*
X157705546Y-90452247D01*
X157725908Y-90385120D01*
X157749003Y-90308986D01*
X157760000Y-90197333D01*
X157760000Y-90197324D01*
X157763676Y-90160001D01*
X157760000Y-90122678D01*
X157760000Y-84045535D01*
X157828586Y-83942889D01*
X157899068Y-83772729D01*
X157935000Y-83592089D01*
X157935000Y-83407911D01*
X157899068Y-83227271D01*
X157828586Y-83057111D01*
X157726262Y-82903972D01*
X157596028Y-82773738D01*
X157442889Y-82671414D01*
X157272729Y-82600932D01*
X157092089Y-82565000D01*
X156907911Y-82565000D01*
X156727271Y-82600932D01*
X156557111Y-82671414D01*
X156403972Y-82773738D01*
X156273738Y-82903972D01*
X156171414Y-83057111D01*
X156100932Y-83227271D01*
X156065000Y-83407911D01*
X156065000Y-83592089D01*
X156100932Y-83772729D01*
X156171414Y-83942889D01*
X156240000Y-84045536D01*
X156240001Y-89845197D01*
X144017000Y-102068199D01*
X144017000Y-101862408D01*
X143963314Y-101592510D01*
X143858005Y-101338273D01*
X143705120Y-101109465D01*
X143510535Y-100914880D01*
X143281727Y-100761995D01*
X143204485Y-100730000D01*
X143281727Y-100698005D01*
X143510535Y-100545120D01*
X143705120Y-100350535D01*
X143858005Y-100121727D01*
X143963314Y-99867490D01*
X144017000Y-99597592D01*
X144017000Y-99322408D01*
X143963314Y-99052510D01*
X143858005Y-98798273D01*
X143705120Y-98569465D01*
X143510535Y-98374880D01*
X143281727Y-98221995D01*
X143204485Y-98190000D01*
X143281727Y-98158005D01*
X143510535Y-98005120D01*
X143705120Y-97810535D01*
X143858005Y-97581727D01*
X143963314Y-97327490D01*
X144017000Y-97057592D01*
X144017000Y-96782408D01*
X143963314Y-96512510D01*
X143858005Y-96258273D01*
X143705120Y-96029465D01*
X143510535Y-95834880D01*
X143281727Y-95681995D01*
X143204485Y-95650000D01*
X143281727Y-95618005D01*
X143510535Y-95465120D01*
X143705120Y-95270535D01*
X143858005Y-95041727D01*
X143963314Y-94787490D01*
X144017000Y-94517592D01*
X144017000Y-94242408D01*
X143986372Y-94088430D01*
X144218004Y-93856798D01*
X144247002Y-93833000D01*
X144341975Y-93717275D01*
X144412547Y-93585246D01*
X144456004Y-93441985D01*
X144467001Y-93330332D01*
X144470678Y-93292999D01*
X144467001Y-93255666D01*
X144467001Y-86275561D01*
X144470677Y-86238238D01*
X144467001Y-86200915D01*
X144467001Y-86200906D01*
X144456004Y-86089253D01*
X144412547Y-85945992D01*
X144341975Y-85813962D01*
X144270800Y-85727236D01*
X144247002Y-85698238D01*
X144218005Y-85674441D01*
X142642005Y-84098442D01*
X142809578Y-83986473D01*
X142986473Y-83809578D01*
X143125459Y-83601571D01*
X143221195Y-83370445D01*
X143270000Y-83125084D01*
X143270000Y-82874916D01*
X143221195Y-82629555D01*
X143125459Y-82398429D01*
X142986473Y-82190422D01*
X142809578Y-82013527D01*
X142601571Y-81874541D01*
X142370445Y-81778805D01*
X142125084Y-81730000D01*
X141874916Y-81730000D01*
X141816434Y-81741633D01*
X137334801Y-77260000D01*
X138795091Y-77260000D01*
X138801082Y-77274463D01*
X138980013Y-77542252D01*
X139207748Y-77769987D01*
X139475537Y-77948918D01*
X139773088Y-78072168D01*
X140088967Y-78135000D01*
X140411033Y-78135000D01*
X140726912Y-78072168D01*
X141024463Y-77948918D01*
X141292252Y-77769987D01*
X141519987Y-77542252D01*
X141698918Y-77274463D01*
X141704909Y-77260000D01*
X145295091Y-77260000D01*
X145301082Y-77274463D01*
X145480013Y-77542252D01*
X145707748Y-77769987D01*
X145975537Y-77948918D01*
X146273088Y-78072168D01*
X146588967Y-78135000D01*
X146911033Y-78135000D01*
X147226912Y-78072168D01*
X147524463Y-77948918D01*
X147792252Y-77769987D01*
X148019987Y-77542252D01*
X148198918Y-77274463D01*
X148322168Y-76976912D01*
X148385000Y-76661033D01*
X148385000Y-76338967D01*
X148322168Y-76023088D01*
X148198918Y-75725537D01*
X148019987Y-75457748D01*
X147792252Y-75230013D01*
X147524463Y-75051082D01*
X147226912Y-74927832D01*
X146911033Y-74865000D01*
X146588967Y-74865000D01*
X146273088Y-74927832D01*
X145975537Y-75051082D01*
X145707748Y-75230013D01*
X145480013Y-75457748D01*
X145301082Y-75725537D01*
X145295091Y-75740000D01*
X141704909Y-75740000D01*
X141698918Y-75725537D01*
X141519987Y-75457748D01*
X141292252Y-75230013D01*
X141024463Y-75051082D01*
X140726912Y-74927832D01*
X140411033Y-74865000D01*
X140088967Y-74865000D01*
X139773088Y-74927832D01*
X139475537Y-75051082D01*
X139207748Y-75230013D01*
X138980013Y-75457748D01*
X138801082Y-75725537D01*
X138795091Y-75740000D01*
X126112331Y-75740000D01*
X126074998Y-75736323D01*
X126037665Y-75740000D01*
X125926012Y-75750997D01*
X125782751Y-75794454D01*
X125650722Y-75865026D01*
X125534997Y-75959999D01*
X125511199Y-75988997D01*
X123318998Y-78181199D01*
X123290000Y-78204997D01*
X123266202Y-78233995D01*
X123266201Y-78233996D01*
X123195026Y-78320722D01*
X123124454Y-78452752D01*
X123080998Y-78596013D01*
X123066324Y-78744998D01*
X123070001Y-78782330D01*
X123070000Y-85712677D01*
X123066324Y-85750000D01*
X123070000Y-85787322D01*
X123070000Y-85787332D01*
X123080997Y-85898985D01*
X123124082Y-86041020D01*
X123124454Y-86042246D01*
X123195026Y-86174276D01*
X123216881Y-86200906D01*
X123289999Y-86290001D01*
X123319003Y-86313804D01*
X126013628Y-89008430D01*
X125983000Y-89162408D01*
X125983000Y-89437592D01*
X126036686Y-89707490D01*
X126141995Y-89961727D01*
X126294880Y-90190535D01*
X126489465Y-90385120D01*
X126718273Y-90538005D01*
X126795515Y-90570000D01*
X126718273Y-90601995D01*
X126489465Y-90754880D01*
X126294880Y-90949465D01*
X126141995Y-91178273D01*
X126036686Y-91432510D01*
X125983000Y-91702408D01*
X125983000Y-91977592D01*
X126036686Y-92247490D01*
X126141995Y-92501727D01*
X126294880Y-92730535D01*
X126489465Y-92925120D01*
X126718273Y-93078005D01*
X126795515Y-93110000D01*
X126718273Y-93141995D01*
X126489465Y-93294880D01*
X126294880Y-93489465D01*
X126141995Y-93718273D01*
X126036686Y-93972510D01*
X125983000Y-94242408D01*
X125983000Y-94517592D01*
X126036686Y-94787490D01*
X126141995Y-95041727D01*
X126294880Y-95270535D01*
X126489465Y-95465120D01*
X126718273Y-95618005D01*
X126795515Y-95650000D01*
X126718273Y-95681995D01*
X126489465Y-95834880D01*
X126294880Y-96029465D01*
X126141995Y-96258273D01*
X126047191Y-96487149D01*
X113760000Y-84199959D01*
X113760000Y-84045535D01*
X113828586Y-83942889D01*
X113899068Y-83772729D01*
X113935000Y-83592089D01*
X113935000Y-83407911D01*
X113899068Y-83227271D01*
X113828586Y-83057111D01*
X113726262Y-82903972D01*
X113596028Y-82773738D01*
X113442889Y-82671414D01*
X113272729Y-82600932D01*
X113092089Y-82565000D01*
X112907911Y-82565000D01*
X112727271Y-82600932D01*
X112557111Y-82671414D01*
X112403972Y-82773738D01*
X112273738Y-82903972D01*
X112171414Y-83057111D01*
X112100932Y-83227271D01*
X112065000Y-83407911D01*
X110660000Y-83407911D01*
X110660000Y-70660000D01*
X131099636Y-70660000D01*
X131029463Y-70745506D01*
G37*
%TD.AperFunction*%
D18*
X125773738Y-78096028D02*
X125903972Y-78226262D01*
X126057111Y-78328586D01*
X126227271Y-78399068D01*
X126407911Y-78435000D01*
X126592089Y-78435000D01*
X126772729Y-78399068D01*
X126942889Y-78328586D01*
X127045535Y-78260000D01*
X136185199Y-78260000D01*
X139731033Y-81805834D01*
X139676887Y-81771785D01*
X139443483Y-81858421D01*
X139231465Y-81988927D01*
X139048982Y-82158288D01*
X139005323Y-82218632D01*
X138986473Y-82190422D01*
X138809578Y-82013527D01*
X138601571Y-81874541D01*
X138370445Y-81778805D01*
X138125084Y-81730000D01*
X137874916Y-81730000D01*
X137629555Y-81778805D01*
X137398429Y-81874541D01*
X137190422Y-82013527D01*
X137013527Y-82190422D01*
X137000000Y-82210667D01*
X136986473Y-82190422D01*
X136809578Y-82013527D01*
X136601571Y-81874541D01*
X136370445Y-81778805D01*
X136125084Y-81730000D01*
X135874916Y-81730000D01*
X135629555Y-81778805D01*
X135398429Y-81874541D01*
X135190422Y-82013527D01*
X135013527Y-82190422D01*
X135000000Y-82210667D01*
X134986473Y-82190422D01*
X134809578Y-82013527D01*
X134601571Y-81874541D01*
X134370445Y-81778805D01*
X134125084Y-81730000D01*
X133874916Y-81730000D01*
X133629555Y-81778805D01*
X133398429Y-81874541D01*
X133190422Y-82013527D01*
X133013527Y-82190422D01*
X133000000Y-82210667D01*
X132986473Y-82190422D01*
X132809578Y-82013527D01*
X132601571Y-81874541D01*
X132370445Y-81778805D01*
X132125084Y-81730000D01*
X131874916Y-81730000D01*
X131629555Y-81778805D01*
X131398429Y-81874541D01*
X131190422Y-82013527D01*
X131013527Y-82190422D01*
X131000000Y-82210667D01*
X130986473Y-82190422D01*
X130809578Y-82013527D01*
X130601571Y-81874541D01*
X130370445Y-81778805D01*
X130125084Y-81730000D01*
X129874916Y-81730000D01*
X129629555Y-81778805D01*
X129398429Y-81874541D01*
X129190422Y-82013527D01*
X129013527Y-82190422D01*
X129000000Y-82210667D01*
X128986473Y-82190422D01*
X128809578Y-82013527D01*
X128601571Y-81874541D01*
X128370445Y-81778805D01*
X128125084Y-81730000D01*
X127874916Y-81730000D01*
X127629555Y-81778805D01*
X127398429Y-81874541D01*
X127190422Y-82013527D01*
X127013527Y-82190422D01*
X126874541Y-82398429D01*
X126778805Y-82629555D01*
X126730000Y-82874916D01*
X126730000Y-83125084D01*
X126778805Y-83370445D01*
X126874541Y-83601571D01*
X127013527Y-83809578D01*
X127190422Y-83986473D01*
X127398429Y-84125459D01*
X127629555Y-84221195D01*
X127874916Y-84270000D01*
X128125084Y-84270000D01*
X128183566Y-84258367D01*
X128846211Y-84921013D01*
X128870010Y-84950012D01*
X128985735Y-85044985D01*
X129117764Y-85115557D01*
X129261025Y-85159014D01*
X129372678Y-85170011D01*
X129372686Y-85170011D01*
X129410011Y-85173687D01*
X129447336Y-85170011D01*
X139955210Y-85170011D01*
X140148199Y-85363000D01*
X139942408Y-85363000D01*
X139672510Y-85416686D01*
X139418273Y-85521995D01*
X139189465Y-85674880D01*
X138994880Y-85869465D01*
X138841995Y-86098273D01*
X138810000Y-86175515D01*
X138778005Y-86098273D01*
X138625120Y-85869465D01*
X138430535Y-85674880D01*
X138201727Y-85521995D01*
X137947490Y-85416686D01*
X137677592Y-85363000D01*
X137402408Y-85363000D01*
X137132510Y-85416686D01*
X136878273Y-85521995D01*
X136649465Y-85674880D01*
X136454880Y-85869465D01*
X136301995Y-86098273D01*
X136272308Y-86169943D01*
X136267636Y-86156977D01*
X136205656Y-86041020D01*
X135965565Y-85974040D01*
X135179605Y-86760000D01*
X135965565Y-87545960D01*
X136205656Y-87478980D01*
X136269485Y-87343240D01*
X136301995Y-87421727D01*
X136454880Y-87650535D01*
X136649465Y-87845120D01*
X136878273Y-87998005D01*
X137132510Y-88103314D01*
X137402408Y-88157000D01*
X137677592Y-88157000D01*
X137947490Y-88103314D01*
X138201727Y-87998005D01*
X138430535Y-87845120D01*
X138625120Y-87650535D01*
X138778005Y-87421727D01*
X138810000Y-87344485D01*
X138841995Y-87421727D01*
X138994880Y-87650535D01*
X139189465Y-87845120D01*
X139418273Y-87998005D01*
X139672510Y-88103314D01*
X139942408Y-88157000D01*
X140217592Y-88157000D01*
X140487490Y-88103314D01*
X140741727Y-87998005D01*
X140970535Y-87845120D01*
X141165120Y-87650535D01*
X141318005Y-87421727D01*
X141350000Y-87344485D01*
X141381995Y-87421727D01*
X141534880Y-87650535D01*
X141729465Y-87845120D01*
X141958273Y-87998005D01*
X142035515Y-88030000D01*
X141958273Y-88061995D01*
X141729465Y-88214880D01*
X141534880Y-88409465D01*
X141381995Y-88638273D01*
X141276686Y-88892510D01*
X141223000Y-89162408D01*
X141223000Y-89437592D01*
X141276686Y-89707490D01*
X141381995Y-89961727D01*
X141534880Y-90190535D01*
X141729465Y-90385120D01*
X141958273Y-90538005D01*
X142035515Y-90570000D01*
X141958273Y-90601995D01*
X141729465Y-90754880D01*
X141534880Y-90949465D01*
X141381995Y-91178273D01*
X141276686Y-91432510D01*
X141223000Y-91702408D01*
X141223000Y-91977592D01*
X141276686Y-92247490D01*
X141381995Y-92501727D01*
X141534880Y-92730535D01*
X141729465Y-92925120D01*
X141958273Y-93078005D01*
X142035515Y-93110000D01*
X141958273Y-93141995D01*
X141729465Y-93294880D01*
X141534880Y-93489465D01*
X141381995Y-93718273D01*
X141276686Y-93972510D01*
X141223000Y-94242408D01*
X141223000Y-94517592D01*
X141276686Y-94787490D01*
X141381995Y-95041727D01*
X141534880Y-95270535D01*
X141729465Y-95465120D01*
X141958273Y-95618005D01*
X142035515Y-95650000D01*
X141958273Y-95681995D01*
X141729465Y-95834880D01*
X141534880Y-96029465D01*
X141381995Y-96258273D01*
X141276686Y-96512510D01*
X141223000Y-96782408D01*
X141223000Y-97057592D01*
X141253628Y-97211571D01*
X141218198Y-97247001D01*
X128739324Y-97247001D01*
X128777000Y-97057592D01*
X128777000Y-96782408D01*
X128723314Y-96512510D01*
X128618005Y-96258273D01*
X128465120Y-96029465D01*
X128270535Y-95834880D01*
X128041727Y-95681995D01*
X127964485Y-95650000D01*
X128041727Y-95618005D01*
X128270535Y-95465120D01*
X128465120Y-95270535D01*
X128618005Y-95041727D01*
X128723314Y-94787490D01*
X128777000Y-94517592D01*
X128777000Y-94242408D01*
X128723314Y-93972510D01*
X128618005Y-93718273D01*
X128465120Y-93489465D01*
X128270535Y-93294880D01*
X128041727Y-93141995D01*
X127964485Y-93110000D01*
X128041727Y-93078005D01*
X128270535Y-92925120D01*
X128465120Y-92730535D01*
X128618005Y-92501727D01*
X128723314Y-92247490D01*
X128777000Y-91977592D01*
X128777000Y-91702408D01*
X128723314Y-91432510D01*
X128618005Y-91178273D01*
X128465120Y-90949465D01*
X128270535Y-90754880D01*
X128041727Y-90601995D01*
X127964485Y-90570000D01*
X128041727Y-90538005D01*
X128270535Y-90385120D01*
X128465120Y-90190535D01*
X128618005Y-89961727D01*
X128723314Y-89707490D01*
X128777000Y-89437592D01*
X128777000Y-89162408D01*
X128723314Y-88892510D01*
X128618005Y-88638273D01*
X128465120Y-88409465D01*
X128270535Y-88214880D01*
X128041727Y-88061995D01*
X127964485Y-88030000D01*
X128041727Y-87998005D01*
X128270535Y-87845120D01*
X128390090Y-87725565D01*
X134214040Y-87725565D01*
X134281020Y-87965656D01*
X134530048Y-88082756D01*
X134797135Y-88149023D01*
X135072017Y-88161910D01*
X135344133Y-88120922D01*
X135603023Y-88027636D01*
X135718980Y-87965656D01*
X135785960Y-87725565D01*
X135000000Y-86939605D01*
X134214040Y-87725565D01*
X128390090Y-87725565D01*
X128465120Y-87650535D01*
X128618005Y-87421727D01*
X128723314Y-87167490D01*
X128777000Y-86897592D01*
X128777000Y-86832017D01*
X133598090Y-86832017D01*
X133639078Y-87104133D01*
X133732364Y-87363023D01*
X133794344Y-87478980D01*
X134034435Y-87545960D01*
X134820395Y-86760000D01*
X134034435Y-85974040D01*
X133794344Y-86041020D01*
X133677244Y-86290048D01*
X133610977Y-86557135D01*
X133598090Y-86832017D01*
X128777000Y-86832017D01*
X128777000Y-86622408D01*
X128723314Y-86352510D01*
X128618005Y-86098273D01*
X128465120Y-85869465D01*
X128390090Y-85794435D01*
X134214040Y-85794435D01*
X135000000Y-86580395D01*
X135785960Y-85794435D01*
X135718980Y-85554344D01*
X135469952Y-85437244D01*
X135202865Y-85370977D01*
X134927983Y-85358090D01*
X134655867Y-85399078D01*
X134396977Y-85492364D01*
X134281020Y-85554344D01*
X134214040Y-85794435D01*
X128390090Y-85794435D01*
X128270535Y-85674880D01*
X128041727Y-85521995D01*
X127787490Y-85416686D01*
X127517592Y-85363000D01*
X127242408Y-85363000D01*
X126972510Y-85416686D01*
X126718273Y-85521995D01*
X126489465Y-85674880D01*
X126294880Y-85869465D01*
X126141995Y-86098273D01*
X126036686Y-86352510D01*
X125983000Y-86622408D01*
X125983000Y-86828199D01*
X124590000Y-85435199D01*
X124590000Y-79059799D01*
X125685632Y-77964168D01*
X125773738Y-78096028D01*
%TA.AperFunction,Conductor*%
D19*
G36*
X125773738Y-78096028D02*
G01*
X125903972Y-78226262D01*
X126057111Y-78328586D01*
X126227271Y-78399068D01*
X126407911Y-78435000D01*
X126592089Y-78435000D01*
X126772729Y-78399068D01*
X126942889Y-78328586D01*
X127045535Y-78260000D01*
X136185199Y-78260000D01*
X139731033Y-81805834D01*
X139676887Y-81771785D01*
X139443483Y-81858421D01*
X139231465Y-81988927D01*
X139048982Y-82158288D01*
X139005323Y-82218632D01*
X138986473Y-82190422D01*
X138809578Y-82013527D01*
X138601571Y-81874541D01*
X138370445Y-81778805D01*
X138125084Y-81730000D01*
X137874916Y-81730000D01*
X137629555Y-81778805D01*
X137398429Y-81874541D01*
X137190422Y-82013527D01*
X137013527Y-82190422D01*
X137000000Y-82210667D01*
X136986473Y-82190422D01*
X136809578Y-82013527D01*
X136601571Y-81874541D01*
X136370445Y-81778805D01*
X136125084Y-81730000D01*
X135874916Y-81730000D01*
X135629555Y-81778805D01*
X135398429Y-81874541D01*
X135190422Y-82013527D01*
X135013527Y-82190422D01*
X135000000Y-82210667D01*
X134986473Y-82190422D01*
X134809578Y-82013527D01*
X134601571Y-81874541D01*
X134370445Y-81778805D01*
X134125084Y-81730000D01*
X133874916Y-81730000D01*
X133629555Y-81778805D01*
X133398429Y-81874541D01*
X133190422Y-82013527D01*
X133013527Y-82190422D01*
X133000000Y-82210667D01*
X132986473Y-82190422D01*
X132809578Y-82013527D01*
X132601571Y-81874541D01*
X132370445Y-81778805D01*
X132125084Y-81730000D01*
X131874916Y-81730000D01*
X131629555Y-81778805D01*
X131398429Y-81874541D01*
X131190422Y-82013527D01*
X131013527Y-82190422D01*
X131000000Y-82210667D01*
X130986473Y-82190422D01*
X130809578Y-82013527D01*
X130601571Y-81874541D01*
X130370445Y-81778805D01*
X130125084Y-81730000D01*
X129874916Y-81730000D01*
X129629555Y-81778805D01*
X129398429Y-81874541D01*
X129190422Y-82013527D01*
X129013527Y-82190422D01*
X129000000Y-82210667D01*
X128986473Y-82190422D01*
X128809578Y-82013527D01*
X128601571Y-81874541D01*
X128370445Y-81778805D01*
X128125084Y-81730000D01*
X127874916Y-81730000D01*
X127629555Y-81778805D01*
X127398429Y-81874541D01*
X127190422Y-82013527D01*
X127013527Y-82190422D01*
X126874541Y-82398429D01*
X126778805Y-82629555D01*
X126730000Y-82874916D01*
X126730000Y-83125084D01*
X126778805Y-83370445D01*
X126874541Y-83601571D01*
X127013527Y-83809578D01*
X127190422Y-83986473D01*
X127398429Y-84125459D01*
X127629555Y-84221195D01*
X127874916Y-84270000D01*
X128125084Y-84270000D01*
X128183566Y-84258367D01*
X128846211Y-84921013D01*
X128870010Y-84950012D01*
X128985735Y-85044985D01*
X129117764Y-85115557D01*
X129261025Y-85159014D01*
X129372678Y-85170011D01*
X129372686Y-85170011D01*
X129410011Y-85173687D01*
X129447336Y-85170011D01*
X139955210Y-85170011D01*
X140148199Y-85363000D01*
X139942408Y-85363000D01*
X139672510Y-85416686D01*
X139418273Y-85521995D01*
X139189465Y-85674880D01*
X138994880Y-85869465D01*
X138841995Y-86098273D01*
X138810000Y-86175515D01*
X138778005Y-86098273D01*
X138625120Y-85869465D01*
X138430535Y-85674880D01*
X138201727Y-85521995D01*
X137947490Y-85416686D01*
X137677592Y-85363000D01*
X137402408Y-85363000D01*
X137132510Y-85416686D01*
X136878273Y-85521995D01*
X136649465Y-85674880D01*
X136454880Y-85869465D01*
X136301995Y-86098273D01*
X136272308Y-86169943D01*
X136267636Y-86156977D01*
X136205656Y-86041020D01*
X135965565Y-85974040D01*
X135179605Y-86760000D01*
X135965565Y-87545960D01*
X136205656Y-87478980D01*
X136269485Y-87343240D01*
X136301995Y-87421727D01*
X136454880Y-87650535D01*
X136649465Y-87845120D01*
X136878273Y-87998005D01*
X137132510Y-88103314D01*
X137402408Y-88157000D01*
X137677592Y-88157000D01*
X137947490Y-88103314D01*
X138201727Y-87998005D01*
X138430535Y-87845120D01*
X138625120Y-87650535D01*
X138778005Y-87421727D01*
X138810000Y-87344485D01*
X138841995Y-87421727D01*
X138994880Y-87650535D01*
X139189465Y-87845120D01*
X139418273Y-87998005D01*
X139672510Y-88103314D01*
X139942408Y-88157000D01*
X140217592Y-88157000D01*
X140487490Y-88103314D01*
X140741727Y-87998005D01*
X140970535Y-87845120D01*
X141165120Y-87650535D01*
X141318005Y-87421727D01*
X141350000Y-87344485D01*
X141381995Y-87421727D01*
X141534880Y-87650535D01*
X141729465Y-87845120D01*
X141958273Y-87998005D01*
X142035515Y-88030000D01*
X141958273Y-88061995D01*
X141729465Y-88214880D01*
X141534880Y-88409465D01*
X141381995Y-88638273D01*
X141276686Y-88892510D01*
X141223000Y-89162408D01*
X141223000Y-89437592D01*
X141276686Y-89707490D01*
X141381995Y-89961727D01*
X141534880Y-90190535D01*
X141729465Y-90385120D01*
X141958273Y-90538005D01*
X142035515Y-90570000D01*
X141958273Y-90601995D01*
X141729465Y-90754880D01*
X141534880Y-90949465D01*
X141381995Y-91178273D01*
X141276686Y-91432510D01*
X141223000Y-91702408D01*
X141223000Y-91977592D01*
X141276686Y-92247490D01*
X141381995Y-92501727D01*
X141534880Y-92730535D01*
X141729465Y-92925120D01*
X141958273Y-93078005D01*
X142035515Y-93110000D01*
X141958273Y-93141995D01*
X141729465Y-93294880D01*
X141534880Y-93489465D01*
X141381995Y-93718273D01*
X141276686Y-93972510D01*
X141223000Y-94242408D01*
X141223000Y-94517592D01*
X141276686Y-94787490D01*
X141381995Y-95041727D01*
X141534880Y-95270535D01*
X141729465Y-95465120D01*
X141958273Y-95618005D01*
X142035515Y-95650000D01*
X141958273Y-95681995D01*
X141729465Y-95834880D01*
X141534880Y-96029465D01*
X141381995Y-96258273D01*
X141276686Y-96512510D01*
X141223000Y-96782408D01*
X141223000Y-97057592D01*
X141253628Y-97211571D01*
X141218198Y-97247001D01*
X128739324Y-97247001D01*
X128777000Y-97057592D01*
X128777000Y-96782408D01*
X128723314Y-96512510D01*
X128618005Y-96258273D01*
X128465120Y-96029465D01*
X128270535Y-95834880D01*
X128041727Y-95681995D01*
X127964485Y-95650000D01*
X128041727Y-95618005D01*
X128270535Y-95465120D01*
X128465120Y-95270535D01*
X128618005Y-95041727D01*
X128723314Y-94787490D01*
X128777000Y-94517592D01*
X128777000Y-94242408D01*
X128723314Y-93972510D01*
X128618005Y-93718273D01*
X128465120Y-93489465D01*
X128270535Y-93294880D01*
X128041727Y-93141995D01*
X127964485Y-93110000D01*
X128041727Y-93078005D01*
X128270535Y-92925120D01*
X128465120Y-92730535D01*
X128618005Y-92501727D01*
X128723314Y-92247490D01*
X128777000Y-91977592D01*
X128777000Y-91702408D01*
X128723314Y-91432510D01*
X128618005Y-91178273D01*
X128465120Y-90949465D01*
X128270535Y-90754880D01*
X128041727Y-90601995D01*
X127964485Y-90570000D01*
X128041727Y-90538005D01*
X128270535Y-90385120D01*
X128465120Y-90190535D01*
X128618005Y-89961727D01*
X128723314Y-89707490D01*
X128777000Y-89437592D01*
X128777000Y-89162408D01*
X128723314Y-88892510D01*
X128618005Y-88638273D01*
X128465120Y-88409465D01*
X128270535Y-88214880D01*
X128041727Y-88061995D01*
X127964485Y-88030000D01*
X128041727Y-87998005D01*
X128270535Y-87845120D01*
X128390090Y-87725565D01*
X134214040Y-87725565D01*
X134281020Y-87965656D01*
X134530048Y-88082756D01*
X134797135Y-88149023D01*
X135072017Y-88161910D01*
X135344133Y-88120922D01*
X135603023Y-88027636D01*
X135718980Y-87965656D01*
X135785960Y-87725565D01*
X135000000Y-86939605D01*
X134214040Y-87725565D01*
X128390090Y-87725565D01*
X128465120Y-87650535D01*
X128618005Y-87421727D01*
X128723314Y-87167490D01*
X128777000Y-86897592D01*
X128777000Y-86832017D01*
X133598090Y-86832017D01*
X133639078Y-87104133D01*
X133732364Y-87363023D01*
X133794344Y-87478980D01*
X134034435Y-87545960D01*
X134820395Y-86760000D01*
X134034435Y-85974040D01*
X133794344Y-86041020D01*
X133677244Y-86290048D01*
X133610977Y-86557135D01*
X133598090Y-86832017D01*
X128777000Y-86832017D01*
X128777000Y-86622408D01*
X128723314Y-86352510D01*
X128618005Y-86098273D01*
X128465120Y-85869465D01*
X128390090Y-85794435D01*
X134214040Y-85794435D01*
X135000000Y-86580395D01*
X135785960Y-85794435D01*
X135718980Y-85554344D01*
X135469952Y-85437244D01*
X135202865Y-85370977D01*
X134927983Y-85358090D01*
X134655867Y-85399078D01*
X134396977Y-85492364D01*
X134281020Y-85554344D01*
X134214040Y-85794435D01*
X128390090Y-85794435D01*
X128270535Y-85674880D01*
X128041727Y-85521995D01*
X127787490Y-85416686D01*
X127517592Y-85363000D01*
X127242408Y-85363000D01*
X126972510Y-85416686D01*
X126718273Y-85521995D01*
X126489465Y-85674880D01*
X126294880Y-85869465D01*
X126141995Y-86098273D01*
X126036686Y-86352510D01*
X125983000Y-86622408D01*
X125983000Y-86828199D01*
X124590000Y-85435199D01*
X124590000Y-79059799D01*
X125685632Y-77964168D01*
X125773738Y-78096028D01*
G37*
%TD.AperFunction*%
D18*
X140127000Y-82873000D02*
X140147000Y-82873000D01*
X140147000Y-83127000D01*
X140127000Y-83127000D01*
X140127000Y-83147000D01*
X139873000Y-83147000D01*
X139873000Y-83127000D01*
X139853000Y-83127000D01*
X139853000Y-82873000D01*
X139873000Y-82873000D01*
X139873000Y-82853000D01*
X140127000Y-82853000D01*
X140127000Y-82873000D01*
%TA.AperFunction,Conductor*%
D19*
G36*
X140127000Y-82873000D02*
G01*
X140147000Y-82873000D01*
X140147000Y-83127000D01*
X140127000Y-83127000D01*
X140127000Y-83147000D01*
X139873000Y-83147000D01*
X139873000Y-83127000D01*
X139853000Y-83127000D01*
X139853000Y-82873000D01*
X139873000Y-82873000D01*
X139873000Y-82853000D01*
X140127000Y-82853000D01*
X140127000Y-82873000D01*
G37*
%TD.AperFunction*%
%TD*%
M02*
