%TF.GenerationSoftware,KiCad,Pcbnew,(5.1.9)-1*%
%TF.CreationDate,2021-04-07T01:06:44+02:00*%
%TF.ProjectId,HB-RC-6-PBU-LED_328,48422d52-432d-4362-9d50-42552d4c4544,rev?*%
%TF.SameCoordinates,Original*%
%TF.FileFunction,Paste,Top*%
%TF.FilePolarity,Positive*%
%FSLAX46Y46*%
G04 Gerber Fmt 4.6, Leading zero omitted, Abs format (unit mm)*
G04 Created by KiCad (PCBNEW (5.1.9)-1) date 2021-04-07 01:06:44*
%MOMM*%
%LPD*%
G01*
G04 APERTURE LIST*
%ADD10R,0.850000X1.600000*%
%ADD11R,1.600000X2.180000*%
%ADD12R,1.060000X0.650000*%
G04 APERTURE END LIST*
D10*
%TO.C,D2*%
X116875000Y-78750000D03*
X118625000Y-78750000D03*
X116875000Y-75250000D03*
X118625000Y-75250000D03*
%TD*%
%TO.C,D3*%
X117125000Y-96750000D03*
X118875000Y-96750000D03*
X117125000Y-93250000D03*
X118875000Y-93250000D03*
%TD*%
D11*
%TO.C,SW7*%
X157000000Y-108410000D03*
X157000000Y-117590000D03*
%TD*%
%TO.C,SW6*%
X157000000Y-99590000D03*
X157000000Y-90410000D03*
%TD*%
%TO.C,SW5*%
X157000000Y-81590000D03*
X157000000Y-72410000D03*
%TD*%
%TO.C,SW4*%
X113000000Y-108410000D03*
X113000000Y-117590000D03*
%TD*%
%TO.C,SW3*%
X113000000Y-99590000D03*
X113000000Y-90410000D03*
%TD*%
%TO.C,SW2*%
X113000000Y-81590000D03*
X113000000Y-72410000D03*
%TD*%
%TO.C,R2*%
G36*
G01*
X129400000Y-73950001D02*
X129400000Y-73049999D01*
G75*
G02*
X129649999Y-72800000I249999J0D01*
G01*
X130350001Y-72800000D01*
G75*
G02*
X130600000Y-73049999I0J-249999D01*
G01*
X130600000Y-73950001D01*
G75*
G02*
X130350001Y-74200000I-249999J0D01*
G01*
X129649999Y-74200000D01*
G75*
G02*
X129400000Y-73950001I0J249999D01*
G01*
G37*
G36*
G01*
X127400000Y-73950001D02*
X127400000Y-73049999D01*
G75*
G02*
X127649999Y-72800000I249999J0D01*
G01*
X128350001Y-72800000D01*
G75*
G02*
X128600000Y-73049999I0J-249999D01*
G01*
X128600000Y-73950001D01*
G75*
G02*
X128350001Y-74200000I-249999J0D01*
G01*
X127649999Y-74200000D01*
G75*
G02*
X127400000Y-73950001I0J249999D01*
G01*
G37*
%TD*%
%TO.C,R1*%
G36*
G01*
X129400000Y-71950001D02*
X129400000Y-71049999D01*
G75*
G02*
X129649999Y-70800000I249999J0D01*
G01*
X130350001Y-70800000D01*
G75*
G02*
X130600000Y-71049999I0J-249999D01*
G01*
X130600000Y-71950001D01*
G75*
G02*
X130350001Y-72200000I-249999J0D01*
G01*
X129649999Y-72200000D01*
G75*
G02*
X129400000Y-71950001I0J249999D01*
G01*
G37*
G36*
G01*
X127400000Y-71950001D02*
X127400000Y-71049999D01*
G75*
G02*
X127649999Y-70800000I249999J0D01*
G01*
X128350001Y-70800000D01*
G75*
G02*
X128600000Y-71049999I0J-249999D01*
G01*
X128600000Y-71950001D01*
G75*
G02*
X128350001Y-72200000I-249999J0D01*
G01*
X127649999Y-72200000D01*
G75*
G02*
X127400000Y-71950001I0J249999D01*
G01*
G37*
%TD*%
D12*
%TO.C,U2*%
X124600000Y-76000000D03*
X124600000Y-75050000D03*
X124600000Y-76950000D03*
X122400000Y-76950000D03*
X122400000Y-76000000D03*
X122400000Y-75050000D03*
%TD*%
D10*
%TO.C,D7*%
X151125000Y-114750000D03*
X152875000Y-114750000D03*
X151125000Y-111250000D03*
X152875000Y-111250000D03*
%TD*%
%TO.C,D6*%
X151125000Y-96750000D03*
X152875000Y-96750000D03*
X151125000Y-93250000D03*
X152875000Y-93250000D03*
%TD*%
%TO.C,D5*%
X151125000Y-78750000D03*
X152875000Y-78750000D03*
X151125000Y-75250000D03*
X152875000Y-75250000D03*
%TD*%
%TO.C,D4*%
X117125000Y-114750000D03*
X118875000Y-114750000D03*
X117125000Y-111250000D03*
X118875000Y-111250000D03*
%TD*%
%TO.C,C6*%
G36*
G01*
X152450000Y-118225000D02*
X152450000Y-117275000D01*
G75*
G02*
X152700000Y-117025000I250000J0D01*
G01*
X153375000Y-117025000D01*
G75*
G02*
X153625000Y-117275000I0J-250000D01*
G01*
X153625000Y-118225000D01*
G75*
G02*
X153375000Y-118475000I-250000J0D01*
G01*
X152700000Y-118475000D01*
G75*
G02*
X152450000Y-118225000I0J250000D01*
G01*
G37*
G36*
G01*
X150375000Y-118225000D02*
X150375000Y-117275000D01*
G75*
G02*
X150625000Y-117025000I250000J0D01*
G01*
X151300000Y-117025000D01*
G75*
G02*
X151550000Y-117275000I0J-250000D01*
G01*
X151550000Y-118225000D01*
G75*
G02*
X151300000Y-118475000I-250000J0D01*
G01*
X150625000Y-118475000D01*
G75*
G02*
X150375000Y-118225000I0J250000D01*
G01*
G37*
%TD*%
%TO.C,C5*%
G36*
G01*
X152450000Y-100475000D02*
X152450000Y-99525000D01*
G75*
G02*
X152700000Y-99275000I250000J0D01*
G01*
X153375000Y-99275000D01*
G75*
G02*
X153625000Y-99525000I0J-250000D01*
G01*
X153625000Y-100475000D01*
G75*
G02*
X153375000Y-100725000I-250000J0D01*
G01*
X152700000Y-100725000D01*
G75*
G02*
X152450000Y-100475000I0J250000D01*
G01*
G37*
G36*
G01*
X150375000Y-100475000D02*
X150375000Y-99525000D01*
G75*
G02*
X150625000Y-99275000I250000J0D01*
G01*
X151300000Y-99275000D01*
G75*
G02*
X151550000Y-99525000I0J-250000D01*
G01*
X151550000Y-100475000D01*
G75*
G02*
X151300000Y-100725000I-250000J0D01*
G01*
X150625000Y-100725000D01*
G75*
G02*
X150375000Y-100475000I0J250000D01*
G01*
G37*
%TD*%
%TO.C,C4*%
G36*
G01*
X152450000Y-82475000D02*
X152450000Y-81525000D01*
G75*
G02*
X152700000Y-81275000I250000J0D01*
G01*
X153375000Y-81275000D01*
G75*
G02*
X153625000Y-81525000I0J-250000D01*
G01*
X153625000Y-82475000D01*
G75*
G02*
X153375000Y-82725000I-250000J0D01*
G01*
X152700000Y-82725000D01*
G75*
G02*
X152450000Y-82475000I0J250000D01*
G01*
G37*
G36*
G01*
X150375000Y-82475000D02*
X150375000Y-81525000D01*
G75*
G02*
X150625000Y-81275000I250000J0D01*
G01*
X151300000Y-81275000D01*
G75*
G02*
X151550000Y-81525000I0J-250000D01*
G01*
X151550000Y-82475000D01*
G75*
G02*
X151300000Y-82725000I-250000J0D01*
G01*
X150625000Y-82725000D01*
G75*
G02*
X150375000Y-82475000I0J250000D01*
G01*
G37*
%TD*%
%TO.C,C3*%
G36*
G01*
X118412500Y-118475000D02*
X118412500Y-117525000D01*
G75*
G02*
X118662500Y-117275000I250000J0D01*
G01*
X119337500Y-117275000D01*
G75*
G02*
X119587500Y-117525000I0J-250000D01*
G01*
X119587500Y-118475000D01*
G75*
G02*
X119337500Y-118725000I-250000J0D01*
G01*
X118662500Y-118725000D01*
G75*
G02*
X118412500Y-118475000I0J250000D01*
G01*
G37*
G36*
G01*
X116337500Y-118475000D02*
X116337500Y-117525000D01*
G75*
G02*
X116587500Y-117275000I250000J0D01*
G01*
X117262500Y-117275000D01*
G75*
G02*
X117512500Y-117525000I0J-250000D01*
G01*
X117512500Y-118475000D01*
G75*
G02*
X117262500Y-118725000I-250000J0D01*
G01*
X116587500Y-118725000D01*
G75*
G02*
X116337500Y-118475000I0J250000D01*
G01*
G37*
%TD*%
%TO.C,C2*%
G36*
G01*
X118450000Y-100475000D02*
X118450000Y-99525000D01*
G75*
G02*
X118700000Y-99275000I250000J0D01*
G01*
X119375000Y-99275000D01*
G75*
G02*
X119625000Y-99525000I0J-250000D01*
G01*
X119625000Y-100475000D01*
G75*
G02*
X119375000Y-100725000I-250000J0D01*
G01*
X118700000Y-100725000D01*
G75*
G02*
X118450000Y-100475000I0J250000D01*
G01*
G37*
G36*
G01*
X116375000Y-100475000D02*
X116375000Y-99525000D01*
G75*
G02*
X116625000Y-99275000I250000J0D01*
G01*
X117300000Y-99275000D01*
G75*
G02*
X117550000Y-99525000I0J-250000D01*
G01*
X117550000Y-100475000D01*
G75*
G02*
X117300000Y-100725000I-250000J0D01*
G01*
X116625000Y-100725000D01*
G75*
G02*
X116375000Y-100475000I0J250000D01*
G01*
G37*
%TD*%
%TO.C,C1*%
G36*
G01*
X118412500Y-82475000D02*
X118412500Y-81525000D01*
G75*
G02*
X118662500Y-81275000I250000J0D01*
G01*
X119337500Y-81275000D01*
G75*
G02*
X119587500Y-81525000I0J-250000D01*
G01*
X119587500Y-82475000D01*
G75*
G02*
X119337500Y-82725000I-250000J0D01*
G01*
X118662500Y-82725000D01*
G75*
G02*
X118412500Y-82475000I0J250000D01*
G01*
G37*
G36*
G01*
X116337500Y-82475000D02*
X116337500Y-81525000D01*
G75*
G02*
X116587500Y-81275000I250000J0D01*
G01*
X117262500Y-81275000D01*
G75*
G02*
X117512500Y-81525000I0J-250000D01*
G01*
X117512500Y-82475000D01*
G75*
G02*
X117262500Y-82725000I-250000J0D01*
G01*
X116587500Y-82725000D01*
G75*
G02*
X116337500Y-82475000I0J250000D01*
G01*
G37*
%TD*%
M02*
