%TF.GenerationSoftware,KiCad,Pcbnew,(5.1.9)-1*%
%TF.CreationDate,2021-04-07T01:06:44+02:00*%
%TF.ProjectId,HB-RC-6-PBU-LED_328,48422d52-432d-4362-9d50-42552d4c4544,rev?*%
%TF.SameCoordinates,Original*%
%TF.FileFunction,Legend,Bot*%
%TF.FilePolarity,Positive*%
%FSLAX46Y46*%
G04 Gerber Fmt 4.6, Leading zero omitted, Abs format (unit mm)*
G04 Created by KiCad (PCBNEW (5.1.9)-1) date 2021-04-07 01:06:44*
%MOMM*%
%LPD*%
G01*
G04 APERTURE LIST*
%ADD10C,0.120000*%
%ADD11C,0.150000*%
G04 APERTURE END LIST*
D10*
%TO.C,SW1*%
X140000000Y-75000000D02*
X140000000Y-73500000D01*
X141250000Y-71000000D02*
X145750000Y-71000000D01*
X147000000Y-73500000D02*
X147000000Y-75000000D01*
X145750000Y-77500000D02*
X141250000Y-77500000D01*
D11*
%TO.C,U1*%
X124840000Y-84220000D02*
X145160000Y-84220000D01*
X145160000Y-84220000D02*
X145160000Y-119780000D01*
X145160000Y-119780000D02*
X124840000Y-119780000D01*
X124840000Y-119780000D02*
X124840000Y-84220000D01*
%TO.C,SW1*%
X144833333Y-74654761D02*
X144690476Y-74702380D01*
X144452380Y-74702380D01*
X144357142Y-74654761D01*
X144309523Y-74607142D01*
X144261904Y-74511904D01*
X144261904Y-74416666D01*
X144309523Y-74321428D01*
X144357142Y-74273809D01*
X144452380Y-74226190D01*
X144642857Y-74178571D01*
X144738095Y-74130952D01*
X144785714Y-74083333D01*
X144833333Y-73988095D01*
X144833333Y-73892857D01*
X144785714Y-73797619D01*
X144738095Y-73750000D01*
X144642857Y-73702380D01*
X144404761Y-73702380D01*
X144261904Y-73750000D01*
X143928571Y-73702380D02*
X143690476Y-74702380D01*
X143500000Y-73988095D01*
X143309523Y-74702380D01*
X143071428Y-73702380D01*
X142166666Y-74702380D02*
X142738095Y-74702380D01*
X142452380Y-74702380D02*
X142452380Y-73702380D01*
X142547619Y-73845238D01*
X142642857Y-73940476D01*
X142738095Y-73988095D01*
%TO.C,U1*%
X131951904Y-86212380D02*
X131951904Y-87021904D01*
X131904285Y-87117142D01*
X131856666Y-87164761D01*
X131761428Y-87212380D01*
X131570952Y-87212380D01*
X131475714Y-87164761D01*
X131428095Y-87117142D01*
X131380476Y-87021904D01*
X131380476Y-86212380D01*
X130380476Y-87212380D02*
X130951904Y-87212380D01*
X130666190Y-87212380D02*
X130666190Y-86212380D01*
X130761428Y-86355238D01*
X130856666Y-86450476D01*
X130951904Y-86498095D01*
%TD*%
M02*
