%TF.GenerationSoftware,KiCad,Pcbnew,(5.1.9)-1*%
%TF.CreationDate,2021-04-07T01:06:44+02:00*%
%TF.ProjectId,HB-RC-6-PBU-LED_328,48422d52-432d-4362-9d50-42552d4c4544,rev?*%
%TF.SameCoordinates,Original*%
%TF.FileFunction,Copper,L1,Top*%
%TF.FilePolarity,Positive*%
%FSLAX46Y46*%
G04 Gerber Fmt 4.6, Leading zero omitted, Abs format (unit mm)*
G04 Created by KiCad (PCBNEW (5.1.9)-1) date 2021-04-07 01:06:44*
%MOMM*%
%LPD*%
G01*
G04 APERTURE LIST*
%TA.AperFunction,SMDPad,CuDef*%
%ADD10C,0.100000*%
%TD*%
%TA.AperFunction,ComponentPad*%
%ADD11C,2.000000*%
%TD*%
%TA.AperFunction,SMDPad,CuDef*%
%ADD12R,0.850000X1.600000*%
%TD*%
%TA.AperFunction,SMDPad,CuDef*%
%ADD13R,1.600000X2.180000*%
%TD*%
%TA.AperFunction,SMDPad,CuDef*%
%ADD14R,1.060000X0.650000*%
%TD*%
%TA.AperFunction,ComponentPad*%
%ADD15C,1.524000*%
%TD*%
%TA.AperFunction,ComponentPad*%
%ADD16O,1.270000X1.270000*%
%TD*%
%TA.AperFunction,ComponentPad*%
%ADD17C,1.270000*%
%TD*%
%TA.AperFunction,SMDPad,CuDef*%
%ADD18R,1.200000X2.000000*%
%TD*%
%TA.AperFunction,ComponentPad*%
%ADD19C,1.800000*%
%TD*%
%TA.AperFunction,ComponentPad*%
%ADD20R,1.800000X1.800000*%
%TD*%
%TA.AperFunction,ViaPad*%
%ADD21C,0.600000*%
%TD*%
%TA.AperFunction,Conductor*%
%ADD22C,0.250000*%
%TD*%
%TA.AperFunction,Conductor*%
%ADD23C,0.254000*%
%TD*%
%TA.AperFunction,Conductor*%
%ADD24C,0.100000*%
%TD*%
G04 APERTURE END LIST*
%TA.AperFunction,SMDPad,CuDef*%
D10*
%TO.P,JP2,2*%
%TO.N,/3V3*%
G36*
X124150000Y-72000602D02*
G01*
X124174534Y-72000602D01*
X124223365Y-72005412D01*
X124271490Y-72014984D01*
X124318445Y-72029228D01*
X124363778Y-72048005D01*
X124407051Y-72071136D01*
X124447850Y-72098396D01*
X124485779Y-72129524D01*
X124520476Y-72164221D01*
X124551604Y-72202150D01*
X124578864Y-72242949D01*
X124601995Y-72286222D01*
X124620772Y-72331555D01*
X124635016Y-72378510D01*
X124644588Y-72426635D01*
X124649398Y-72475466D01*
X124649398Y-72500000D01*
X124650000Y-72500000D01*
X124650000Y-73000000D01*
X124649398Y-73000000D01*
X124649398Y-73024534D01*
X124644588Y-73073365D01*
X124635016Y-73121490D01*
X124620772Y-73168445D01*
X124601995Y-73213778D01*
X124578864Y-73257051D01*
X124551604Y-73297850D01*
X124520476Y-73335779D01*
X124485779Y-73370476D01*
X124447850Y-73401604D01*
X124407051Y-73428864D01*
X124363778Y-73451995D01*
X124318445Y-73470772D01*
X124271490Y-73485016D01*
X124223365Y-73494588D01*
X124174534Y-73499398D01*
X124150000Y-73499398D01*
X124150000Y-73500000D01*
X123650000Y-73500000D01*
X123650000Y-72000000D01*
X124150000Y-72000000D01*
X124150000Y-72000602D01*
G37*
%TD.AperFunction*%
%TA.AperFunction,SMDPad,CuDef*%
%TO.P,JP2,1*%
%TO.N,/5V*%
G36*
X123350000Y-73500000D02*
G01*
X122850000Y-73500000D01*
X122850000Y-73499398D01*
X122825466Y-73499398D01*
X122776635Y-73494588D01*
X122728510Y-73485016D01*
X122681555Y-73470772D01*
X122636222Y-73451995D01*
X122592949Y-73428864D01*
X122552150Y-73401604D01*
X122514221Y-73370476D01*
X122479524Y-73335779D01*
X122448396Y-73297850D01*
X122421136Y-73257051D01*
X122398005Y-73213778D01*
X122379228Y-73168445D01*
X122364984Y-73121490D01*
X122355412Y-73073365D01*
X122350602Y-73024534D01*
X122350602Y-73000000D01*
X122350000Y-73000000D01*
X122350000Y-72500000D01*
X122350602Y-72500000D01*
X122350602Y-72475466D01*
X122355412Y-72426635D01*
X122364984Y-72378510D01*
X122379228Y-72331555D01*
X122398005Y-72286222D01*
X122421136Y-72242949D01*
X122448396Y-72202150D01*
X122479524Y-72164221D01*
X122514221Y-72129524D01*
X122552150Y-72098396D01*
X122592949Y-72071136D01*
X122636222Y-72048005D01*
X122681555Y-72029228D01*
X122728510Y-72014984D01*
X122776635Y-72005412D01*
X122825466Y-72000602D01*
X122850000Y-72000602D01*
X122850000Y-72000000D01*
X123350000Y-72000000D01*
X123350000Y-73500000D01*
G37*
%TD.AperFunction*%
%TD*%
%TA.AperFunction,SMDPad,CuDef*%
%TO.P,JP1,2*%
%TO.N,/WS_LED*%
G36*
X124050000Y-78500602D02*
G01*
X124074534Y-78500602D01*
X124123365Y-78505412D01*
X124171490Y-78514984D01*
X124218445Y-78529228D01*
X124263778Y-78548005D01*
X124307051Y-78571136D01*
X124347850Y-78598396D01*
X124385779Y-78629524D01*
X124420476Y-78664221D01*
X124451604Y-78702150D01*
X124478864Y-78742949D01*
X124501995Y-78786222D01*
X124520772Y-78831555D01*
X124535016Y-78878510D01*
X124544588Y-78926635D01*
X124549398Y-78975466D01*
X124549398Y-79000000D01*
X124550000Y-79000000D01*
X124550000Y-79500000D01*
X124549398Y-79500000D01*
X124549398Y-79524534D01*
X124544588Y-79573365D01*
X124535016Y-79621490D01*
X124520772Y-79668445D01*
X124501995Y-79713778D01*
X124478864Y-79757051D01*
X124451604Y-79797850D01*
X124420476Y-79835779D01*
X124385779Y-79870476D01*
X124347850Y-79901604D01*
X124307051Y-79928864D01*
X124263778Y-79951995D01*
X124218445Y-79970772D01*
X124171490Y-79985016D01*
X124123365Y-79994588D01*
X124074534Y-79999398D01*
X124050000Y-79999398D01*
X124050000Y-80000000D01*
X123550000Y-80000000D01*
X123550000Y-78500000D01*
X124050000Y-78500000D01*
X124050000Y-78500602D01*
G37*
%TD.AperFunction*%
%TA.AperFunction,SMDPad,CuDef*%
%TO.P,JP1,1*%
%TO.N,/WS2812B_LED_5V_Lvl*%
G36*
X123250000Y-80000000D02*
G01*
X122750000Y-80000000D01*
X122750000Y-79999398D01*
X122725466Y-79999398D01*
X122676635Y-79994588D01*
X122628510Y-79985016D01*
X122581555Y-79970772D01*
X122536222Y-79951995D01*
X122492949Y-79928864D01*
X122452150Y-79901604D01*
X122414221Y-79870476D01*
X122379524Y-79835779D01*
X122348396Y-79797850D01*
X122321136Y-79757051D01*
X122298005Y-79713778D01*
X122279228Y-79668445D01*
X122264984Y-79621490D01*
X122255412Y-79573365D01*
X122250602Y-79524534D01*
X122250602Y-79500000D01*
X122250000Y-79500000D01*
X122250000Y-79000000D01*
X122250602Y-79000000D01*
X122250602Y-78975466D01*
X122255412Y-78926635D01*
X122264984Y-78878510D01*
X122279228Y-78831555D01*
X122298005Y-78786222D01*
X122321136Y-78742949D01*
X122348396Y-78702150D01*
X122379524Y-78664221D01*
X122414221Y-78629524D01*
X122452150Y-78598396D01*
X122492949Y-78571136D01*
X122536222Y-78548005D01*
X122581555Y-78529228D01*
X122628510Y-78514984D01*
X122676635Y-78505412D01*
X122725466Y-78500602D01*
X122750000Y-78500602D01*
X122750000Y-78500000D01*
X123250000Y-78500000D01*
X123250000Y-80000000D01*
G37*
%TD.AperFunction*%
%TD*%
D11*
%TO.P,SW1,1*%
%TO.N,GND*%
X140250000Y-72000000D03*
%TO.P,SW1,2*%
%TO.N,/CONFIG*%
X140250000Y-76500000D03*
%TO.P,SW1,1*%
%TO.N,GND*%
X146750000Y-72000000D03*
%TO.P,SW1,2*%
%TO.N,/CONFIG*%
X146750000Y-76500000D03*
%TD*%
D12*
%TO.P,D2,1*%
%TO.N,/5V*%
X116875000Y-78750000D03*
%TO.P,D2,2*%
%TO.N,Net-(D2-Pad2)*%
X118625000Y-78750000D03*
%TO.P,D2,4*%
%TO.N,/WS2812B_LED_5V_Lvl*%
X116875000Y-75250000D03*
%TO.P,D2,3*%
%TO.N,GND*%
X118625000Y-75250000D03*
%TD*%
%TO.P,D3,1*%
%TO.N,/5V*%
X117125000Y-96750000D03*
%TO.P,D3,2*%
%TO.N,Net-(D3-Pad2)*%
X118875000Y-96750000D03*
%TO.P,D3,4*%
%TO.N,Net-(D2-Pad2)*%
X117125000Y-93250000D03*
%TO.P,D3,3*%
%TO.N,GND*%
X118875000Y-93250000D03*
%TD*%
D13*
%TO.P,SW7,2*%
%TO.N,/BTN6*%
X157000000Y-108410000D03*
%TO.P,SW7,1*%
%TO.N,GND*%
X157000000Y-117590000D03*
%TD*%
%TO.P,SW6,2*%
%TO.N,/BTN5*%
X157000000Y-99590000D03*
%TO.P,SW6,1*%
%TO.N,GND*%
X157000000Y-90410000D03*
%TD*%
%TO.P,SW5,2*%
%TO.N,/BTN4*%
X157000000Y-81590000D03*
%TO.P,SW5,1*%
%TO.N,GND*%
X157000000Y-72410000D03*
%TD*%
%TO.P,SW4,2*%
%TO.N,/BTN3*%
X113000000Y-108410000D03*
%TO.P,SW4,1*%
%TO.N,GND*%
X113000000Y-117590000D03*
%TD*%
%TO.P,SW3,2*%
%TO.N,/BTN2*%
X113000000Y-99590000D03*
%TO.P,SW3,1*%
%TO.N,GND*%
X113000000Y-90410000D03*
%TD*%
%TO.P,SW2,2*%
%TO.N,/BTN1*%
X113000000Y-81590000D03*
%TO.P,SW2,1*%
%TO.N,GND*%
X113000000Y-72410000D03*
%TD*%
%TO.P,R2,2*%
%TO.N,Net-(D1-Pad2)*%
%TA.AperFunction,SMDPad,CuDef*%
G36*
G01*
X129400000Y-73950001D02*
X129400000Y-73049999D01*
G75*
G02*
X129649999Y-72800000I249999J0D01*
G01*
X130350001Y-72800000D01*
G75*
G02*
X130600000Y-73049999I0J-249999D01*
G01*
X130600000Y-73950001D01*
G75*
G02*
X130350001Y-74200000I-249999J0D01*
G01*
X129649999Y-74200000D01*
G75*
G02*
X129400000Y-73950001I0J249999D01*
G01*
G37*
%TD.AperFunction*%
%TO.P,R2,1*%
%TO.N,/LED1*%
%TA.AperFunction,SMDPad,CuDef*%
G36*
G01*
X127400000Y-73950001D02*
X127400000Y-73049999D01*
G75*
G02*
X127649999Y-72800000I249999J0D01*
G01*
X128350001Y-72800000D01*
G75*
G02*
X128600000Y-73049999I0J-249999D01*
G01*
X128600000Y-73950001D01*
G75*
G02*
X128350001Y-74200000I-249999J0D01*
G01*
X127649999Y-74200000D01*
G75*
G02*
X127400000Y-73950001I0J249999D01*
G01*
G37*
%TD.AperFunction*%
%TD*%
%TO.P,R1,2*%
%TO.N,Net-(D1-Pad1)*%
%TA.AperFunction,SMDPad,CuDef*%
G36*
G01*
X129400000Y-71950001D02*
X129400000Y-71049999D01*
G75*
G02*
X129649999Y-70800000I249999J0D01*
G01*
X130350001Y-70800000D01*
G75*
G02*
X130600000Y-71049999I0J-249999D01*
G01*
X130600000Y-71950001D01*
G75*
G02*
X130350001Y-72200000I-249999J0D01*
G01*
X129649999Y-72200000D01*
G75*
G02*
X129400000Y-71950001I0J249999D01*
G01*
G37*
%TD.AperFunction*%
%TO.P,R1,1*%
%TO.N,/LED2*%
%TA.AperFunction,SMDPad,CuDef*%
G36*
G01*
X127400000Y-71950001D02*
X127400000Y-71049999D01*
G75*
G02*
X127649999Y-70800000I249999J0D01*
G01*
X128350001Y-70800000D01*
G75*
G02*
X128600000Y-71049999I0J-249999D01*
G01*
X128600000Y-71950001D01*
G75*
G02*
X128350001Y-72200000I-249999J0D01*
G01*
X127649999Y-72200000D01*
G75*
G02*
X127400000Y-71950001I0J249999D01*
G01*
G37*
%TD.AperFunction*%
%TD*%
D14*
%TO.P,U2,5*%
%TO.N,GND*%
X124600000Y-76000000D03*
%TO.P,U2,6*%
%TO.N,/3V3*%
X124600000Y-75050000D03*
%TO.P,U2,4*%
%TO.N,/WS_LED*%
X124600000Y-76950000D03*
%TO.P,U2,3*%
%TO.N,/WS2812B_LED_5V_Lvl*%
X122400000Y-76950000D03*
%TO.P,U2,2*%
%TO.N,GND*%
X122400000Y-76000000D03*
%TO.P,U2,1*%
%TO.N,/5V*%
X122400000Y-75050000D03*
%TD*%
D15*
%TO.P,U1,TXD*%
%TO.N,Net-(U1-PadTXD)*%
X127380000Y-114700000D03*
%TO.P,U1,RXD*%
%TO.N,Net-(U1-PadRXD)*%
X127380000Y-112160000D03*
%TO.P,U1,RST*%
%TO.N,Net-(U1-PadRST)*%
X127380000Y-109620000D03*
%TO.P,U1,GND*%
%TO.N,GND*%
X127380000Y-107080000D03*
%TO.P,U1,2*%
%TO.N,/GDO0*%
X127380000Y-104540000D03*
%TO.P,U1,3*%
%TO.N,Net-(U1-Pad3)*%
X127380000Y-102000000D03*
%TO.P,U1,4*%
%TO.N,/LED1*%
X127380000Y-99460000D03*
%TO.P,U1,5*%
%TO.N,/LED2*%
X127380000Y-96920000D03*
%TO.P,U1,6*%
%TO.N,Net-(U1-Pad6)*%
X127380000Y-94380000D03*
%TO.P,U1,7*%
%TO.N,Net-(U1-Pad7)*%
X127380000Y-91840000D03*
%TO.P,U1,8*%
%TO.N,/CONFIG*%
X127380000Y-89300000D03*
%TO.P,U1,9*%
%TO.N,/WS_LED*%
X127380000Y-86760000D03*
%TO.P,U1,10*%
%TO.N,/CSN*%
X142620000Y-86760000D03*
%TO.P,U1,11*%
%TO.N,/MOSI*%
X142620000Y-89300000D03*
%TO.P,U1,12*%
%TO.N,/MISO*%
X142620000Y-91840000D03*
%TO.P,U1,13*%
%TO.N,/SCK*%
X142620000Y-94380000D03*
%TO.P,U1,A0*%
%TO.N,/BTN1*%
X142620000Y-96920000D03*
%TO.P,U1,A1*%
%TO.N,/BTN2*%
X142620000Y-99460000D03*
%TO.P,U1,A2*%
%TO.N,/BTN3*%
X142620000Y-102000000D03*
%TO.P,U1,A3*%
%TO.N,/BTN4*%
X142620000Y-104540000D03*
%TO.P,U1,VCC*%
%TO.N,/3V3*%
X142620000Y-107080000D03*
%TO.P,U1,RST*%
%TO.N,Net-(U1-PadRST)*%
X142620000Y-109620000D03*
%TO.P,U1,GND*%
%TO.N,GND*%
X142620000Y-112160000D03*
%TO.P,U1,RAW*%
%TO.N,/5V*%
X142620000Y-114700000D03*
%TO.P,U1,A4*%
%TO.N,/BTN5*%
X140080000Y-103270000D03*
%TO.P,U1,A5*%
%TO.N,/BTN6*%
X140080000Y-105810000D03*
%TO.P,U1,A7*%
%TO.N,Net-(U1-PadA7)*%
X140080000Y-86760000D03*
%TO.P,U1,A6*%
%TO.N,Net-(U1-PadA6)*%
X137540000Y-86760000D03*
%TO.P,U1,GND*%
%TO.N,GND*%
X135000000Y-86760000D03*
%TD*%
D16*
%TO.P,IC1,1*%
%TO.N,/3V3*%
X142000000Y-83000000D03*
%TO.P,IC1,2*%
%TO.N,GND*%
X140000000Y-83000000D03*
D17*
%TO.P,IC1,3*%
%TO.N,/MOSI*%
X138000000Y-83000000D03*
%TO.P,IC1,4*%
%TO.N,/SCK*%
X136000000Y-83000000D03*
%TO.P,IC1,5*%
%TO.N,/MISO*%
X134000000Y-83000000D03*
%TO.P,IC1,6*%
%TO.N,Net-(IC1-Pad6)*%
X132000000Y-83000000D03*
%TO.P,IC1,7*%
%TO.N,/GDO0*%
X130000000Y-83000000D03*
%TO.P,IC1,8*%
%TO.N,/CSN*%
X128000000Y-83000000D03*
D18*
%TO.P,IC1,1*%
%TO.N,/3V3*%
X142000000Y-82000000D03*
%TO.P,IC1,2*%
%TO.N,GND*%
X140000000Y-82000000D03*
%TO.P,IC1,3*%
%TO.N,/MOSI*%
X138000000Y-82000000D03*
%TO.P,IC1,4*%
%TO.N,/SCK*%
X136000000Y-82000000D03*
%TO.P,IC1,5*%
%TO.N,/MISO*%
X134000000Y-82000000D03*
%TO.P,IC1,6*%
%TO.N,Net-(IC1-Pad6)*%
X132000000Y-82000000D03*
%TO.P,IC1,7*%
%TO.N,/GDO0*%
X130000000Y-82000000D03*
%TO.P,IC1,8*%
%TO.N,/CSN*%
X128000000Y-82000000D03*
%TD*%
D12*
%TO.P,D7,1*%
%TO.N,/5V*%
X151125000Y-114750000D03*
%TO.P,D7,2*%
%TO.N,Net-(D7-Pad2)*%
X152875000Y-114750000D03*
%TO.P,D7,4*%
%TO.N,Net-(D6-Pad2)*%
X151125000Y-111250000D03*
%TO.P,D7,3*%
%TO.N,GND*%
X152875000Y-111250000D03*
%TD*%
%TO.P,D6,1*%
%TO.N,/5V*%
X151125000Y-96750000D03*
%TO.P,D6,2*%
%TO.N,Net-(D6-Pad2)*%
X152875000Y-96750000D03*
%TO.P,D6,4*%
%TO.N,Net-(D5-Pad2)*%
X151125000Y-93250000D03*
%TO.P,D6,3*%
%TO.N,GND*%
X152875000Y-93250000D03*
%TD*%
%TO.P,D5,1*%
%TO.N,/5V*%
X151125000Y-78750000D03*
%TO.P,D5,2*%
%TO.N,Net-(D5-Pad2)*%
X152875000Y-78750000D03*
%TO.P,D5,4*%
%TO.N,Net-(D4-Pad2)*%
X151125000Y-75250000D03*
%TO.P,D5,3*%
%TO.N,GND*%
X152875000Y-75250000D03*
%TD*%
%TO.P,D4,1*%
%TO.N,/5V*%
X117125000Y-114750000D03*
%TO.P,D4,2*%
%TO.N,Net-(D4-Pad2)*%
X118875000Y-114750000D03*
%TO.P,D4,4*%
%TO.N,Net-(D3-Pad2)*%
X117125000Y-111250000D03*
%TO.P,D4,3*%
%TO.N,GND*%
X118875000Y-111250000D03*
%TD*%
D19*
%TO.P,D1,3*%
%TO.N,GND*%
X137540000Y-72000000D03*
%TO.P,D1,2*%
%TO.N,Net-(D1-Pad2)*%
X135000000Y-72000000D03*
D20*
%TO.P,D1,1*%
%TO.N,Net-(D1-Pad1)*%
X132460000Y-72000000D03*
%TD*%
%TO.P,C6,2*%
%TO.N,GND*%
%TA.AperFunction,SMDPad,CuDef*%
G36*
G01*
X152450000Y-118225000D02*
X152450000Y-117275000D01*
G75*
G02*
X152700000Y-117025000I250000J0D01*
G01*
X153375000Y-117025000D01*
G75*
G02*
X153625000Y-117275000I0J-250000D01*
G01*
X153625000Y-118225000D01*
G75*
G02*
X153375000Y-118475000I-250000J0D01*
G01*
X152700000Y-118475000D01*
G75*
G02*
X152450000Y-118225000I0J250000D01*
G01*
G37*
%TD.AperFunction*%
%TO.P,C6,1*%
%TO.N,/5V*%
%TA.AperFunction,SMDPad,CuDef*%
G36*
G01*
X150375000Y-118225000D02*
X150375000Y-117275000D01*
G75*
G02*
X150625000Y-117025000I250000J0D01*
G01*
X151300000Y-117025000D01*
G75*
G02*
X151550000Y-117275000I0J-250000D01*
G01*
X151550000Y-118225000D01*
G75*
G02*
X151300000Y-118475000I-250000J0D01*
G01*
X150625000Y-118475000D01*
G75*
G02*
X150375000Y-118225000I0J250000D01*
G01*
G37*
%TD.AperFunction*%
%TD*%
%TO.P,C5,2*%
%TO.N,GND*%
%TA.AperFunction,SMDPad,CuDef*%
G36*
G01*
X152450000Y-100475000D02*
X152450000Y-99525000D01*
G75*
G02*
X152700000Y-99275000I250000J0D01*
G01*
X153375000Y-99275000D01*
G75*
G02*
X153625000Y-99525000I0J-250000D01*
G01*
X153625000Y-100475000D01*
G75*
G02*
X153375000Y-100725000I-250000J0D01*
G01*
X152700000Y-100725000D01*
G75*
G02*
X152450000Y-100475000I0J250000D01*
G01*
G37*
%TD.AperFunction*%
%TO.P,C5,1*%
%TO.N,/5V*%
%TA.AperFunction,SMDPad,CuDef*%
G36*
G01*
X150375000Y-100475000D02*
X150375000Y-99525000D01*
G75*
G02*
X150625000Y-99275000I250000J0D01*
G01*
X151300000Y-99275000D01*
G75*
G02*
X151550000Y-99525000I0J-250000D01*
G01*
X151550000Y-100475000D01*
G75*
G02*
X151300000Y-100725000I-250000J0D01*
G01*
X150625000Y-100725000D01*
G75*
G02*
X150375000Y-100475000I0J250000D01*
G01*
G37*
%TD.AperFunction*%
%TD*%
%TO.P,C4,2*%
%TO.N,GND*%
%TA.AperFunction,SMDPad,CuDef*%
G36*
G01*
X152450000Y-82475000D02*
X152450000Y-81525000D01*
G75*
G02*
X152700000Y-81275000I250000J0D01*
G01*
X153375000Y-81275000D01*
G75*
G02*
X153625000Y-81525000I0J-250000D01*
G01*
X153625000Y-82475000D01*
G75*
G02*
X153375000Y-82725000I-250000J0D01*
G01*
X152700000Y-82725000D01*
G75*
G02*
X152450000Y-82475000I0J250000D01*
G01*
G37*
%TD.AperFunction*%
%TO.P,C4,1*%
%TO.N,/5V*%
%TA.AperFunction,SMDPad,CuDef*%
G36*
G01*
X150375000Y-82475000D02*
X150375000Y-81525000D01*
G75*
G02*
X150625000Y-81275000I250000J0D01*
G01*
X151300000Y-81275000D01*
G75*
G02*
X151550000Y-81525000I0J-250000D01*
G01*
X151550000Y-82475000D01*
G75*
G02*
X151300000Y-82725000I-250000J0D01*
G01*
X150625000Y-82725000D01*
G75*
G02*
X150375000Y-82475000I0J250000D01*
G01*
G37*
%TD.AperFunction*%
%TD*%
%TO.P,C3,2*%
%TO.N,GND*%
%TA.AperFunction,SMDPad,CuDef*%
G36*
G01*
X118412500Y-118475000D02*
X118412500Y-117525000D01*
G75*
G02*
X118662500Y-117275000I250000J0D01*
G01*
X119337500Y-117275000D01*
G75*
G02*
X119587500Y-117525000I0J-250000D01*
G01*
X119587500Y-118475000D01*
G75*
G02*
X119337500Y-118725000I-250000J0D01*
G01*
X118662500Y-118725000D01*
G75*
G02*
X118412500Y-118475000I0J250000D01*
G01*
G37*
%TD.AperFunction*%
%TO.P,C3,1*%
%TO.N,/5V*%
%TA.AperFunction,SMDPad,CuDef*%
G36*
G01*
X116337500Y-118475000D02*
X116337500Y-117525000D01*
G75*
G02*
X116587500Y-117275000I250000J0D01*
G01*
X117262500Y-117275000D01*
G75*
G02*
X117512500Y-117525000I0J-250000D01*
G01*
X117512500Y-118475000D01*
G75*
G02*
X117262500Y-118725000I-250000J0D01*
G01*
X116587500Y-118725000D01*
G75*
G02*
X116337500Y-118475000I0J250000D01*
G01*
G37*
%TD.AperFunction*%
%TD*%
%TO.P,C2,2*%
%TO.N,GND*%
%TA.AperFunction,SMDPad,CuDef*%
G36*
G01*
X118450000Y-100475000D02*
X118450000Y-99525000D01*
G75*
G02*
X118700000Y-99275000I250000J0D01*
G01*
X119375000Y-99275000D01*
G75*
G02*
X119625000Y-99525000I0J-250000D01*
G01*
X119625000Y-100475000D01*
G75*
G02*
X119375000Y-100725000I-250000J0D01*
G01*
X118700000Y-100725000D01*
G75*
G02*
X118450000Y-100475000I0J250000D01*
G01*
G37*
%TD.AperFunction*%
%TO.P,C2,1*%
%TO.N,/5V*%
%TA.AperFunction,SMDPad,CuDef*%
G36*
G01*
X116375000Y-100475000D02*
X116375000Y-99525000D01*
G75*
G02*
X116625000Y-99275000I250000J0D01*
G01*
X117300000Y-99275000D01*
G75*
G02*
X117550000Y-99525000I0J-250000D01*
G01*
X117550000Y-100475000D01*
G75*
G02*
X117300000Y-100725000I-250000J0D01*
G01*
X116625000Y-100725000D01*
G75*
G02*
X116375000Y-100475000I0J250000D01*
G01*
G37*
%TD.AperFunction*%
%TD*%
%TO.P,C1,2*%
%TO.N,GND*%
%TA.AperFunction,SMDPad,CuDef*%
G36*
G01*
X118412500Y-82475000D02*
X118412500Y-81525000D01*
G75*
G02*
X118662500Y-81275000I250000J0D01*
G01*
X119337500Y-81275000D01*
G75*
G02*
X119587500Y-81525000I0J-250000D01*
G01*
X119587500Y-82475000D01*
G75*
G02*
X119337500Y-82725000I-250000J0D01*
G01*
X118662500Y-82725000D01*
G75*
G02*
X118412500Y-82475000I0J250000D01*
G01*
G37*
%TD.AperFunction*%
%TO.P,C1,1*%
%TO.N,/5V*%
%TA.AperFunction,SMDPad,CuDef*%
G36*
G01*
X116337500Y-82475000D02*
X116337500Y-81525000D01*
G75*
G02*
X116587500Y-81275000I250000J0D01*
G01*
X117262500Y-81275000D01*
G75*
G02*
X117512500Y-81525000I0J-250000D01*
G01*
X117512500Y-82475000D01*
G75*
G02*
X117262500Y-82725000I-250000J0D01*
G01*
X116587500Y-82725000D01*
G75*
G02*
X116337500Y-82475000I0J250000D01*
G01*
G37*
%TD.AperFunction*%
%TD*%
D21*
%TO.N,GND*%
X157750000Y-88250000D03*
X120500000Y-76000000D03*
%TO.N,/3V3*%
X126500000Y-77500000D03*
%TO.N,/BTN1*%
X113000000Y-83500000D03*
%TO.N,/BTN2*%
X113000000Y-101500000D03*
%TO.N,/BTN3*%
X113000000Y-106500000D03*
%TO.N,/BTN4*%
X157000000Y-83500000D03*
%TO.N,/BTN5*%
X157000000Y-101500000D03*
%TO.N,/BTN6*%
X157000000Y-106500000D03*
%TD*%
D22*
%TO.N,GND*%
X135000000Y-80814998D02*
X135000000Y-86760000D01*
X135139999Y-80674999D02*
X135000000Y-80814998D01*
X139924999Y-80674999D02*
X135139999Y-80674999D01*
X140000000Y-80750000D02*
X139924999Y-80674999D01*
X140000000Y-82000000D02*
X140000000Y-80750000D01*
X157000000Y-89000000D02*
X157750000Y-88250000D01*
X157000000Y-90410000D02*
X157000000Y-89000000D01*
X119375000Y-76000000D02*
X122400000Y-76000000D01*
X118625000Y-75250000D02*
X118625000Y-75250000D01*
X122400000Y-76000000D02*
X124600000Y-76000000D01*
X118625000Y-75250000D02*
X119375000Y-76000000D01*
%TO.N,/5V*%
X116875000Y-81950000D02*
X116925000Y-82000000D01*
X116875000Y-78750000D02*
X116875000Y-81950000D01*
X117125000Y-99837500D02*
X116962500Y-100000000D01*
X117125000Y-96750000D02*
X117125000Y-99837500D01*
X117125000Y-117800000D02*
X116925000Y-118000000D01*
X117125000Y-114750000D02*
X117125000Y-117800000D01*
X116374999Y-113999999D02*
X117125000Y-114750000D01*
X116374999Y-100587501D02*
X116374999Y-113999999D01*
X116962500Y-100000000D02*
X116374999Y-100587501D01*
X116374999Y-82550001D02*
X116925000Y-82000000D01*
X116374999Y-96674999D02*
X116374999Y-82550001D01*
X116450000Y-96750000D02*
X116374999Y-96674999D01*
X117125000Y-96750000D02*
X116450000Y-96750000D01*
X151125000Y-81837500D02*
X150962500Y-82000000D01*
X151125000Y-78750000D02*
X151125000Y-81837500D01*
X151125000Y-99837500D02*
X150962500Y-100000000D01*
X151125000Y-96750000D02*
X151125000Y-99837500D01*
X151125000Y-117587500D02*
X150962500Y-117750000D01*
X151125000Y-114750000D02*
X151125000Y-117587500D01*
X150374999Y-95999999D02*
X151125000Y-96750000D01*
X150374999Y-82587501D02*
X150374999Y-95999999D01*
X150962500Y-82000000D02*
X150374999Y-82587501D01*
X150374999Y-113999999D02*
X151125000Y-114750000D01*
X150374999Y-100587501D02*
X150374999Y-113999999D01*
X150962500Y-100000000D02*
X150374999Y-100587501D01*
X141444999Y-115875001D02*
X142620000Y-114700000D01*
X117200001Y-115875001D02*
X141444999Y-115875001D01*
X117125000Y-115800000D02*
X117200001Y-115875001D01*
X117125000Y-114750000D02*
X117125000Y-115800000D01*
X151075000Y-114700000D02*
X151125000Y-114750000D01*
X142620000Y-114700000D02*
X151075000Y-114700000D01*
X122850000Y-74600000D02*
X122400000Y-75050000D01*
X122850000Y-72500000D02*
X122850000Y-74600000D01*
X121474999Y-74124999D02*
X122400000Y-75050000D01*
X116189999Y-74124999D02*
X121474999Y-74124999D01*
X116124999Y-74189999D02*
X116189999Y-74124999D01*
X116124999Y-77999999D02*
X116124999Y-74189999D01*
X116875000Y-78750000D02*
X116124999Y-77999999D01*
%TO.N,Net-(D1-Pad2)*%
X133500000Y-73500000D02*
X135000000Y-72000000D01*
X130000000Y-73500000D02*
X133500000Y-73500000D01*
%TO.N,Net-(D1-Pad1)*%
X131960000Y-71500000D02*
X132460000Y-72000000D01*
X130000000Y-71500000D02*
X131960000Y-71500000D01*
%TO.N,Net-(D2-Pad2)*%
X118087490Y-92287510D02*
X117125000Y-93250000D01*
X118087490Y-79287510D02*
X118087490Y-92287510D01*
X118625000Y-78750000D02*
X118087490Y-79287510D01*
%TO.N,/WS2812B_LED_5V_Lvl*%
X122700000Y-77250000D02*
X122400000Y-76950000D01*
X122700000Y-79250000D02*
X122700000Y-77250000D01*
X118575000Y-76950000D02*
X116875000Y-75250000D01*
X122400000Y-76950000D02*
X118575000Y-76950000D01*
%TO.N,Net-(D3-Pad2)*%
X118124990Y-110250010D02*
X117125000Y-111250000D01*
X118124990Y-97500010D02*
X118124990Y-110250010D01*
X118875000Y-96750000D02*
X118124990Y-97500010D01*
%TO.N,Net-(D4-Pad2)*%
X151125000Y-75250000D02*
X149500000Y-76875000D01*
X120012001Y-113612999D02*
X118875000Y-114750000D01*
X142775763Y-113612999D02*
X120012001Y-113612999D01*
X149500000Y-106888762D02*
X142775763Y-113612999D01*
X149500000Y-76875000D02*
X149500000Y-106888762D01*
%TO.N,Net-(D5-Pad2)*%
X151875010Y-92499990D02*
X151125000Y-93250000D01*
X151875010Y-80874990D02*
X151875010Y-92499990D01*
X152875000Y-79875000D02*
X151875010Y-80874990D01*
X152875000Y-78750000D02*
X152875000Y-79875000D01*
%TO.N,Net-(D6-Pad2)*%
X152124990Y-110250010D02*
X151125000Y-111250000D01*
X152124990Y-97500010D02*
X152124990Y-110250010D01*
X152875000Y-96750000D02*
X152124990Y-97500010D01*
%TO.N,/3V3*%
X142000000Y-82000000D02*
X143750000Y-83750000D01*
X143750000Y-105950000D02*
X142620000Y-107080000D01*
X143750000Y-83750000D02*
X143750000Y-105950000D01*
X124150000Y-74600000D02*
X124600000Y-75050000D01*
X124150000Y-72500000D02*
X124150000Y-74600000D01*
X126500000Y-76170000D02*
X126500000Y-77500000D01*
X125380000Y-75050000D02*
X126500000Y-76170000D01*
X124600000Y-75050000D02*
X125380000Y-75050000D01*
%TO.N,/MOSI*%
X138627001Y-83627001D02*
X138000000Y-83000000D01*
X138627001Y-86915763D02*
X138627001Y-83627001D01*
X141011238Y-89300000D02*
X138627001Y-86915763D01*
X142620000Y-89300000D02*
X141011238Y-89300000D01*
%TO.N,/MISO*%
X138471238Y-91840000D02*
X142620000Y-91840000D01*
X133912999Y-87281761D02*
X138471238Y-91840000D01*
X133912999Y-82087001D02*
X133912999Y-87281761D01*
X134000000Y-82000000D02*
X133912999Y-82087001D01*
%TO.N,/GDO0*%
X130000000Y-101920000D02*
X127380000Y-104540000D01*
X130000000Y-82000000D02*
X130000000Y-101920000D01*
%TO.N,/BTN1*%
X113000000Y-81590000D02*
X113000000Y-83500000D01*
%TO.N,/BTN2*%
X113000000Y-99590000D02*
X113000000Y-101500000D01*
%TO.N,/BTN3*%
X113000000Y-108410000D02*
X113000000Y-106500000D01*
%TO.N,/BTN4*%
X157000000Y-81590000D02*
X157000000Y-83500000D01*
%TO.N,/BTN5*%
X157000000Y-99590000D02*
X157000000Y-101500000D01*
%TO.N,/BTN6*%
X157000000Y-108410000D02*
X157000000Y-106500000D01*
%TO.N,/LED1*%
X127039999Y-79846411D02*
X127039999Y-84039999D01*
X128025019Y-78861391D02*
X127039999Y-79846411D01*
X128025020Y-73525020D02*
X128025019Y-78861391D01*
X128000000Y-73500000D02*
X128025020Y-73525020D01*
X128917011Y-97922989D02*
X127380000Y-99460000D01*
X128917011Y-85917011D02*
X128917011Y-97922989D01*
X127039999Y-84039999D02*
X128917011Y-85917011D01*
%TO.N,/LED2*%
X128467001Y-95832999D02*
X127380000Y-96920000D01*
X128467001Y-86238239D02*
X128467001Y-95832999D01*
X126589989Y-79660011D02*
X126589989Y-84361227D01*
X127575010Y-78674990D02*
X126589989Y-79660011D01*
X127575010Y-76611672D02*
X127575010Y-78674990D01*
X127074990Y-76111652D02*
X127575010Y-76611672D01*
X126589989Y-84361227D02*
X128467001Y-86238239D01*
X127074990Y-72425010D02*
X127074990Y-76111652D01*
X128000000Y-71500000D02*
X127074990Y-72425010D01*
%TO.N,/WS_LED*%
X124000000Y-77550000D02*
X124600000Y-76950000D01*
X124000000Y-79250000D02*
X124000000Y-77550000D01*
X124000000Y-83380000D02*
X127380000Y-86760000D01*
X124000000Y-79250000D02*
X124000000Y-83380000D01*
%TD*%
D23*
%TO.N,GND*%
X126829528Y-70710149D02*
X126778992Y-70876745D01*
X126761928Y-71049999D01*
X126761928Y-71663271D01*
X126563992Y-71861207D01*
X126534989Y-71885009D01*
X126491989Y-71937405D01*
X126440016Y-72000734D01*
X126404835Y-72066553D01*
X126369444Y-72132764D01*
X126325987Y-72276025D01*
X126314990Y-72387678D01*
X126314990Y-72387688D01*
X126311314Y-72425010D01*
X126314990Y-72462333D01*
X126314991Y-74910189D01*
X125943804Y-74539002D01*
X125920001Y-74509999D01*
X125804276Y-74415026D01*
X125672247Y-74344454D01*
X125628189Y-74331089D01*
X125581185Y-74273815D01*
X125484494Y-74194463D01*
X125374180Y-74135498D01*
X125254482Y-74099188D01*
X125130000Y-74086928D01*
X124910000Y-74086928D01*
X124910000Y-73844569D01*
X124918382Y-73837690D01*
X124987690Y-73768382D01*
X125067042Y-73671691D01*
X125121498Y-73590192D01*
X125180464Y-73479875D01*
X125217973Y-73389319D01*
X125254282Y-73269623D01*
X125273404Y-73173490D01*
X125285664Y-73049009D01*
X125285664Y-73024450D01*
X125288072Y-73000000D01*
X125288072Y-72500000D01*
X125285664Y-72475550D01*
X125285664Y-72450991D01*
X125273404Y-72326510D01*
X125254282Y-72230377D01*
X125217973Y-72110681D01*
X125180464Y-72020125D01*
X125121498Y-71909808D01*
X125067042Y-71828309D01*
X124987690Y-71731618D01*
X124918382Y-71662310D01*
X124821691Y-71582958D01*
X124740192Y-71528502D01*
X124629875Y-71469536D01*
X124539319Y-71432027D01*
X124419623Y-71395718D01*
X124323490Y-71376596D01*
X124199009Y-71364336D01*
X124174450Y-71364336D01*
X124150000Y-71361928D01*
X123650000Y-71361928D01*
X123525518Y-71374188D01*
X123500000Y-71381929D01*
X123474482Y-71374188D01*
X123350000Y-71361928D01*
X122850000Y-71361928D01*
X122825550Y-71364336D01*
X122800991Y-71364336D01*
X122676510Y-71376596D01*
X122580377Y-71395718D01*
X122460681Y-71432027D01*
X122370125Y-71469536D01*
X122259808Y-71528502D01*
X122178309Y-71582958D01*
X122081618Y-71662310D01*
X122012310Y-71731618D01*
X121932958Y-71828309D01*
X121878502Y-71909808D01*
X121819536Y-72020125D01*
X121782027Y-72110681D01*
X121745718Y-72230377D01*
X121726596Y-72326510D01*
X121714336Y-72450991D01*
X121714336Y-72475550D01*
X121711928Y-72500000D01*
X121711928Y-73000000D01*
X121714336Y-73024450D01*
X121714336Y-73049009D01*
X121726596Y-73173490D01*
X121745718Y-73269623D01*
X121782027Y-73389319D01*
X121802261Y-73438169D01*
X121767246Y-73419453D01*
X121623985Y-73375996D01*
X121512332Y-73364999D01*
X121512321Y-73364999D01*
X121474999Y-73361323D01*
X121437677Y-73364999D01*
X116227322Y-73364999D01*
X116189999Y-73361323D01*
X116152677Y-73364999D01*
X116152666Y-73364999D01*
X116041013Y-73375996D01*
X115897752Y-73419453D01*
X115765723Y-73490025D01*
X115649998Y-73584998D01*
X115626195Y-73614002D01*
X115613997Y-73626200D01*
X115584999Y-73649998D01*
X115561201Y-73678996D01*
X115561200Y-73678997D01*
X115490025Y-73765723D01*
X115419453Y-73897753D01*
X115395714Y-73976013D01*
X115375997Y-74041013D01*
X115367897Y-74123255D01*
X115361323Y-74189999D01*
X115365000Y-74227331D01*
X115364999Y-77962676D01*
X115361323Y-77999999D01*
X115364999Y-78037321D01*
X115364999Y-78037331D01*
X115375996Y-78148984D01*
X115403301Y-78238997D01*
X115419453Y-78292245D01*
X115490025Y-78424275D01*
X115500563Y-78437115D01*
X115584998Y-78540000D01*
X115614001Y-78563802D01*
X115811928Y-78761729D01*
X115811928Y-79550000D01*
X115824188Y-79674482D01*
X115860498Y-79794180D01*
X115919463Y-79904494D01*
X115998815Y-80001185D01*
X116095506Y-80080537D01*
X116115000Y-80090957D01*
X116115001Y-80775431D01*
X116094114Y-80786595D01*
X115959538Y-80897038D01*
X115849095Y-81031614D01*
X115767028Y-81185150D01*
X115716492Y-81351746D01*
X115699428Y-81525000D01*
X115699428Y-82201676D01*
X115669453Y-82257755D01*
X115658078Y-82295255D01*
X115625997Y-82401015D01*
X115620188Y-82459999D01*
X115611323Y-82550001D01*
X115615000Y-82587333D01*
X115614999Y-96637677D01*
X115611323Y-96674999D01*
X115614999Y-96712321D01*
X115614999Y-96712331D01*
X115625996Y-96823984D01*
X115648748Y-96898987D01*
X115669453Y-96967245D01*
X115740025Y-97099275D01*
X115779870Y-97147825D01*
X115834998Y-97215000D01*
X115863999Y-97238801D01*
X115886199Y-97261001D01*
X115909999Y-97290001D01*
X116025724Y-97384974D01*
X116061928Y-97404326D01*
X116061928Y-97550000D01*
X116074188Y-97674482D01*
X116110498Y-97794180D01*
X116169463Y-97904494D01*
X116248815Y-98001185D01*
X116345506Y-98080537D01*
X116365000Y-98090957D01*
X116365001Y-98680306D01*
X116285150Y-98704528D01*
X116131614Y-98786595D01*
X115997038Y-98897038D01*
X115886595Y-99031614D01*
X115804528Y-99185150D01*
X115753992Y-99351746D01*
X115736928Y-99525000D01*
X115736928Y-100169019D01*
X115715557Y-100209002D01*
X115669453Y-100295255D01*
X115625996Y-100438516D01*
X115614999Y-100550169D01*
X115614999Y-100550179D01*
X115611323Y-100587501D01*
X115614999Y-100624823D01*
X115615000Y-113962667D01*
X115611323Y-113999999D01*
X115615000Y-114037332D01*
X115625997Y-114148985D01*
X115634434Y-114176798D01*
X115669453Y-114292245D01*
X115740025Y-114424275D01*
X115767501Y-114457754D01*
X115834999Y-114540000D01*
X115863997Y-114563798D01*
X116061928Y-114761729D01*
X116061928Y-115550000D01*
X116074188Y-115674482D01*
X116110498Y-115794180D01*
X116169463Y-115904494D01*
X116248815Y-116001185D01*
X116345506Y-116080537D01*
X116365000Y-116090957D01*
X116365001Y-116668930D01*
X116247650Y-116704528D01*
X116094114Y-116786595D01*
X115959538Y-116897038D01*
X115849095Y-117031614D01*
X115767028Y-117185150D01*
X115716492Y-117351746D01*
X115699428Y-117525000D01*
X115699428Y-118475000D01*
X115716492Y-118648254D01*
X115767028Y-118814850D01*
X115849095Y-118968386D01*
X115959538Y-119102962D01*
X116094114Y-119213405D01*
X116247650Y-119295472D01*
X116394440Y-119340000D01*
X110660000Y-119340000D01*
X110660000Y-118680000D01*
X111561928Y-118680000D01*
X111574188Y-118804482D01*
X111610498Y-118924180D01*
X111669463Y-119034494D01*
X111748815Y-119131185D01*
X111845506Y-119210537D01*
X111955820Y-119269502D01*
X112075518Y-119305812D01*
X112200000Y-119318072D01*
X112714250Y-119315000D01*
X112873000Y-119156250D01*
X112873000Y-117717000D01*
X113127000Y-117717000D01*
X113127000Y-119156250D01*
X113285750Y-119315000D01*
X113800000Y-119318072D01*
X113924482Y-119305812D01*
X114044180Y-119269502D01*
X114154494Y-119210537D01*
X114251185Y-119131185D01*
X114330537Y-119034494D01*
X114389502Y-118924180D01*
X114425812Y-118804482D01*
X114438072Y-118680000D01*
X114435000Y-117875750D01*
X114276250Y-117717000D01*
X113127000Y-117717000D01*
X112873000Y-117717000D01*
X111723750Y-117717000D01*
X111565000Y-117875750D01*
X111561928Y-118680000D01*
X110660000Y-118680000D01*
X110660000Y-116500000D01*
X111561928Y-116500000D01*
X111565000Y-117304250D01*
X111723750Y-117463000D01*
X112873000Y-117463000D01*
X112873000Y-116023750D01*
X113127000Y-116023750D01*
X113127000Y-117463000D01*
X114276250Y-117463000D01*
X114435000Y-117304250D01*
X114438072Y-116500000D01*
X114425812Y-116375518D01*
X114389502Y-116255820D01*
X114330537Y-116145506D01*
X114251185Y-116048815D01*
X114154494Y-115969463D01*
X114044180Y-115910498D01*
X113924482Y-115874188D01*
X113800000Y-115861928D01*
X113285750Y-115865000D01*
X113127000Y-116023750D01*
X112873000Y-116023750D01*
X112714250Y-115865000D01*
X112200000Y-115861928D01*
X112075518Y-115874188D01*
X111955820Y-115910498D01*
X111845506Y-115969463D01*
X111748815Y-116048815D01*
X111669463Y-116145506D01*
X111610498Y-116255820D01*
X111574188Y-116375518D01*
X111561928Y-116500000D01*
X110660000Y-116500000D01*
X110660000Y-107320000D01*
X111561928Y-107320000D01*
X111561928Y-109500000D01*
X111574188Y-109624482D01*
X111610498Y-109744180D01*
X111669463Y-109854494D01*
X111748815Y-109951185D01*
X111845506Y-110030537D01*
X111955820Y-110089502D01*
X112075518Y-110125812D01*
X112200000Y-110138072D01*
X113800000Y-110138072D01*
X113924482Y-110125812D01*
X114044180Y-110089502D01*
X114154494Y-110030537D01*
X114251185Y-109951185D01*
X114330537Y-109854494D01*
X114389502Y-109744180D01*
X114425812Y-109624482D01*
X114438072Y-109500000D01*
X114438072Y-107320000D01*
X114425812Y-107195518D01*
X114389502Y-107075820D01*
X114330537Y-106965506D01*
X114251185Y-106868815D01*
X114154494Y-106789463D01*
X114044180Y-106730498D01*
X113924482Y-106694188D01*
X113914879Y-106693242D01*
X113935000Y-106592089D01*
X113935000Y-106407911D01*
X113899068Y-106227271D01*
X113828586Y-106057111D01*
X113726262Y-105903972D01*
X113596028Y-105773738D01*
X113442889Y-105671414D01*
X113272729Y-105600932D01*
X113092089Y-105565000D01*
X112907911Y-105565000D01*
X112727271Y-105600932D01*
X112557111Y-105671414D01*
X112403972Y-105773738D01*
X112273738Y-105903972D01*
X112171414Y-106057111D01*
X112100932Y-106227271D01*
X112065000Y-106407911D01*
X112065000Y-106592089D01*
X112085121Y-106693242D01*
X112075518Y-106694188D01*
X111955820Y-106730498D01*
X111845506Y-106789463D01*
X111748815Y-106868815D01*
X111669463Y-106965506D01*
X111610498Y-107075820D01*
X111574188Y-107195518D01*
X111561928Y-107320000D01*
X110660000Y-107320000D01*
X110660000Y-98500000D01*
X111561928Y-98500000D01*
X111561928Y-100680000D01*
X111574188Y-100804482D01*
X111610498Y-100924180D01*
X111669463Y-101034494D01*
X111748815Y-101131185D01*
X111845506Y-101210537D01*
X111955820Y-101269502D01*
X112075518Y-101305812D01*
X112085121Y-101306758D01*
X112065000Y-101407911D01*
X112065000Y-101592089D01*
X112100932Y-101772729D01*
X112171414Y-101942889D01*
X112273738Y-102096028D01*
X112403972Y-102226262D01*
X112557111Y-102328586D01*
X112727271Y-102399068D01*
X112907911Y-102435000D01*
X113092089Y-102435000D01*
X113272729Y-102399068D01*
X113442889Y-102328586D01*
X113596028Y-102226262D01*
X113726262Y-102096028D01*
X113828586Y-101942889D01*
X113899068Y-101772729D01*
X113935000Y-101592089D01*
X113935000Y-101407911D01*
X113914879Y-101306758D01*
X113924482Y-101305812D01*
X114044180Y-101269502D01*
X114154494Y-101210537D01*
X114251185Y-101131185D01*
X114330537Y-101034494D01*
X114389502Y-100924180D01*
X114425812Y-100804482D01*
X114438072Y-100680000D01*
X114438072Y-98500000D01*
X114425812Y-98375518D01*
X114389502Y-98255820D01*
X114330537Y-98145506D01*
X114251185Y-98048815D01*
X114154494Y-97969463D01*
X114044180Y-97910498D01*
X113924482Y-97874188D01*
X113800000Y-97861928D01*
X112200000Y-97861928D01*
X112075518Y-97874188D01*
X111955820Y-97910498D01*
X111845506Y-97969463D01*
X111748815Y-98048815D01*
X111669463Y-98145506D01*
X111610498Y-98255820D01*
X111574188Y-98375518D01*
X111561928Y-98500000D01*
X110660000Y-98500000D01*
X110660000Y-91500000D01*
X111561928Y-91500000D01*
X111574188Y-91624482D01*
X111610498Y-91744180D01*
X111669463Y-91854494D01*
X111748815Y-91951185D01*
X111845506Y-92030537D01*
X111955820Y-92089502D01*
X112075518Y-92125812D01*
X112200000Y-92138072D01*
X112714250Y-92135000D01*
X112873000Y-91976250D01*
X112873000Y-90537000D01*
X113127000Y-90537000D01*
X113127000Y-91976250D01*
X113285750Y-92135000D01*
X113800000Y-92138072D01*
X113924482Y-92125812D01*
X114044180Y-92089502D01*
X114154494Y-92030537D01*
X114251185Y-91951185D01*
X114330537Y-91854494D01*
X114389502Y-91744180D01*
X114425812Y-91624482D01*
X114438072Y-91500000D01*
X114435000Y-90695750D01*
X114276250Y-90537000D01*
X113127000Y-90537000D01*
X112873000Y-90537000D01*
X111723750Y-90537000D01*
X111565000Y-90695750D01*
X111561928Y-91500000D01*
X110660000Y-91500000D01*
X110660000Y-89320000D01*
X111561928Y-89320000D01*
X111565000Y-90124250D01*
X111723750Y-90283000D01*
X112873000Y-90283000D01*
X112873000Y-88843750D01*
X113127000Y-88843750D01*
X113127000Y-90283000D01*
X114276250Y-90283000D01*
X114435000Y-90124250D01*
X114438072Y-89320000D01*
X114425812Y-89195518D01*
X114389502Y-89075820D01*
X114330537Y-88965506D01*
X114251185Y-88868815D01*
X114154494Y-88789463D01*
X114044180Y-88730498D01*
X113924482Y-88694188D01*
X113800000Y-88681928D01*
X113285750Y-88685000D01*
X113127000Y-88843750D01*
X112873000Y-88843750D01*
X112714250Y-88685000D01*
X112200000Y-88681928D01*
X112075518Y-88694188D01*
X111955820Y-88730498D01*
X111845506Y-88789463D01*
X111748815Y-88868815D01*
X111669463Y-88965506D01*
X111610498Y-89075820D01*
X111574188Y-89195518D01*
X111561928Y-89320000D01*
X110660000Y-89320000D01*
X110660000Y-80500000D01*
X111561928Y-80500000D01*
X111561928Y-82680000D01*
X111574188Y-82804482D01*
X111610498Y-82924180D01*
X111669463Y-83034494D01*
X111748815Y-83131185D01*
X111845506Y-83210537D01*
X111955820Y-83269502D01*
X112075518Y-83305812D01*
X112085121Y-83306758D01*
X112065000Y-83407911D01*
X112065000Y-83592089D01*
X112100932Y-83772729D01*
X112171414Y-83942889D01*
X112273738Y-84096028D01*
X112403972Y-84226262D01*
X112557111Y-84328586D01*
X112727271Y-84399068D01*
X112907911Y-84435000D01*
X113092089Y-84435000D01*
X113272729Y-84399068D01*
X113442889Y-84328586D01*
X113596028Y-84226262D01*
X113726262Y-84096028D01*
X113828586Y-83942889D01*
X113899068Y-83772729D01*
X113935000Y-83592089D01*
X113935000Y-83407911D01*
X113914879Y-83306758D01*
X113924482Y-83305812D01*
X114044180Y-83269502D01*
X114154494Y-83210537D01*
X114251185Y-83131185D01*
X114330537Y-83034494D01*
X114389502Y-82924180D01*
X114425812Y-82804482D01*
X114438072Y-82680000D01*
X114438072Y-80500000D01*
X114425812Y-80375518D01*
X114389502Y-80255820D01*
X114330537Y-80145506D01*
X114251185Y-80048815D01*
X114154494Y-79969463D01*
X114044180Y-79910498D01*
X113924482Y-79874188D01*
X113800000Y-79861928D01*
X112200000Y-79861928D01*
X112075518Y-79874188D01*
X111955820Y-79910498D01*
X111845506Y-79969463D01*
X111748815Y-80048815D01*
X111669463Y-80145506D01*
X111610498Y-80255820D01*
X111574188Y-80375518D01*
X111561928Y-80500000D01*
X110660000Y-80500000D01*
X110660000Y-73500000D01*
X111561928Y-73500000D01*
X111574188Y-73624482D01*
X111610498Y-73744180D01*
X111669463Y-73854494D01*
X111748815Y-73951185D01*
X111845506Y-74030537D01*
X111955820Y-74089502D01*
X112075518Y-74125812D01*
X112200000Y-74138072D01*
X112714250Y-74135000D01*
X112873000Y-73976250D01*
X112873000Y-72537000D01*
X113127000Y-72537000D01*
X113127000Y-73976250D01*
X113285750Y-74135000D01*
X113800000Y-74138072D01*
X113924482Y-74125812D01*
X114044180Y-74089502D01*
X114154494Y-74030537D01*
X114251185Y-73951185D01*
X114330537Y-73854494D01*
X114389502Y-73744180D01*
X114425812Y-73624482D01*
X114438072Y-73500000D01*
X114435000Y-72695750D01*
X114276250Y-72537000D01*
X113127000Y-72537000D01*
X112873000Y-72537000D01*
X111723750Y-72537000D01*
X111565000Y-72695750D01*
X111561928Y-73500000D01*
X110660000Y-73500000D01*
X110660000Y-71320000D01*
X111561928Y-71320000D01*
X111565000Y-72124250D01*
X111723750Y-72283000D01*
X112873000Y-72283000D01*
X112873000Y-70843750D01*
X113127000Y-70843750D01*
X113127000Y-72283000D01*
X114276250Y-72283000D01*
X114435000Y-72124250D01*
X114438072Y-71320000D01*
X114425812Y-71195518D01*
X114389502Y-71075820D01*
X114330537Y-70965506D01*
X114251185Y-70868815D01*
X114154494Y-70789463D01*
X114044180Y-70730498D01*
X113924482Y-70694188D01*
X113800000Y-70681928D01*
X113285750Y-70685000D01*
X113127000Y-70843750D01*
X112873000Y-70843750D01*
X112714250Y-70685000D01*
X112200000Y-70681928D01*
X112075518Y-70694188D01*
X111955820Y-70730498D01*
X111845506Y-70789463D01*
X111748815Y-70868815D01*
X111669463Y-70965506D01*
X111610498Y-71075820D01*
X111574188Y-71195518D01*
X111561928Y-71320000D01*
X110660000Y-71320000D01*
X110660000Y-70660000D01*
X126856333Y-70660000D01*
X126829528Y-70710149D01*
%TA.AperFunction,Conductor*%
D24*
G36*
X126829528Y-70710149D02*
G01*
X126778992Y-70876745D01*
X126761928Y-71049999D01*
X126761928Y-71663271D01*
X126563992Y-71861207D01*
X126534989Y-71885009D01*
X126491989Y-71937405D01*
X126440016Y-72000734D01*
X126404835Y-72066553D01*
X126369444Y-72132764D01*
X126325987Y-72276025D01*
X126314990Y-72387678D01*
X126314990Y-72387688D01*
X126311314Y-72425010D01*
X126314990Y-72462333D01*
X126314991Y-74910189D01*
X125943804Y-74539002D01*
X125920001Y-74509999D01*
X125804276Y-74415026D01*
X125672247Y-74344454D01*
X125628189Y-74331089D01*
X125581185Y-74273815D01*
X125484494Y-74194463D01*
X125374180Y-74135498D01*
X125254482Y-74099188D01*
X125130000Y-74086928D01*
X124910000Y-74086928D01*
X124910000Y-73844569D01*
X124918382Y-73837690D01*
X124987690Y-73768382D01*
X125067042Y-73671691D01*
X125121498Y-73590192D01*
X125180464Y-73479875D01*
X125217973Y-73389319D01*
X125254282Y-73269623D01*
X125273404Y-73173490D01*
X125285664Y-73049009D01*
X125285664Y-73024450D01*
X125288072Y-73000000D01*
X125288072Y-72500000D01*
X125285664Y-72475550D01*
X125285664Y-72450991D01*
X125273404Y-72326510D01*
X125254282Y-72230377D01*
X125217973Y-72110681D01*
X125180464Y-72020125D01*
X125121498Y-71909808D01*
X125067042Y-71828309D01*
X124987690Y-71731618D01*
X124918382Y-71662310D01*
X124821691Y-71582958D01*
X124740192Y-71528502D01*
X124629875Y-71469536D01*
X124539319Y-71432027D01*
X124419623Y-71395718D01*
X124323490Y-71376596D01*
X124199009Y-71364336D01*
X124174450Y-71364336D01*
X124150000Y-71361928D01*
X123650000Y-71361928D01*
X123525518Y-71374188D01*
X123500000Y-71381929D01*
X123474482Y-71374188D01*
X123350000Y-71361928D01*
X122850000Y-71361928D01*
X122825550Y-71364336D01*
X122800991Y-71364336D01*
X122676510Y-71376596D01*
X122580377Y-71395718D01*
X122460681Y-71432027D01*
X122370125Y-71469536D01*
X122259808Y-71528502D01*
X122178309Y-71582958D01*
X122081618Y-71662310D01*
X122012310Y-71731618D01*
X121932958Y-71828309D01*
X121878502Y-71909808D01*
X121819536Y-72020125D01*
X121782027Y-72110681D01*
X121745718Y-72230377D01*
X121726596Y-72326510D01*
X121714336Y-72450991D01*
X121714336Y-72475550D01*
X121711928Y-72500000D01*
X121711928Y-73000000D01*
X121714336Y-73024450D01*
X121714336Y-73049009D01*
X121726596Y-73173490D01*
X121745718Y-73269623D01*
X121782027Y-73389319D01*
X121802261Y-73438169D01*
X121767246Y-73419453D01*
X121623985Y-73375996D01*
X121512332Y-73364999D01*
X121512321Y-73364999D01*
X121474999Y-73361323D01*
X121437677Y-73364999D01*
X116227322Y-73364999D01*
X116189999Y-73361323D01*
X116152677Y-73364999D01*
X116152666Y-73364999D01*
X116041013Y-73375996D01*
X115897752Y-73419453D01*
X115765723Y-73490025D01*
X115649998Y-73584998D01*
X115626195Y-73614002D01*
X115613997Y-73626200D01*
X115584999Y-73649998D01*
X115561201Y-73678996D01*
X115561200Y-73678997D01*
X115490025Y-73765723D01*
X115419453Y-73897753D01*
X115395714Y-73976013D01*
X115375997Y-74041013D01*
X115367897Y-74123255D01*
X115361323Y-74189999D01*
X115365000Y-74227331D01*
X115364999Y-77962676D01*
X115361323Y-77999999D01*
X115364999Y-78037321D01*
X115364999Y-78037331D01*
X115375996Y-78148984D01*
X115403301Y-78238997D01*
X115419453Y-78292245D01*
X115490025Y-78424275D01*
X115500563Y-78437115D01*
X115584998Y-78540000D01*
X115614001Y-78563802D01*
X115811928Y-78761729D01*
X115811928Y-79550000D01*
X115824188Y-79674482D01*
X115860498Y-79794180D01*
X115919463Y-79904494D01*
X115998815Y-80001185D01*
X116095506Y-80080537D01*
X116115000Y-80090957D01*
X116115001Y-80775431D01*
X116094114Y-80786595D01*
X115959538Y-80897038D01*
X115849095Y-81031614D01*
X115767028Y-81185150D01*
X115716492Y-81351746D01*
X115699428Y-81525000D01*
X115699428Y-82201676D01*
X115669453Y-82257755D01*
X115658078Y-82295255D01*
X115625997Y-82401015D01*
X115620188Y-82459999D01*
X115611323Y-82550001D01*
X115615000Y-82587333D01*
X115614999Y-96637677D01*
X115611323Y-96674999D01*
X115614999Y-96712321D01*
X115614999Y-96712331D01*
X115625996Y-96823984D01*
X115648748Y-96898987D01*
X115669453Y-96967245D01*
X115740025Y-97099275D01*
X115779870Y-97147825D01*
X115834998Y-97215000D01*
X115863999Y-97238801D01*
X115886199Y-97261001D01*
X115909999Y-97290001D01*
X116025724Y-97384974D01*
X116061928Y-97404326D01*
X116061928Y-97550000D01*
X116074188Y-97674482D01*
X116110498Y-97794180D01*
X116169463Y-97904494D01*
X116248815Y-98001185D01*
X116345506Y-98080537D01*
X116365000Y-98090957D01*
X116365001Y-98680306D01*
X116285150Y-98704528D01*
X116131614Y-98786595D01*
X115997038Y-98897038D01*
X115886595Y-99031614D01*
X115804528Y-99185150D01*
X115753992Y-99351746D01*
X115736928Y-99525000D01*
X115736928Y-100169019D01*
X115715557Y-100209002D01*
X115669453Y-100295255D01*
X115625996Y-100438516D01*
X115614999Y-100550169D01*
X115614999Y-100550179D01*
X115611323Y-100587501D01*
X115614999Y-100624823D01*
X115615000Y-113962667D01*
X115611323Y-113999999D01*
X115615000Y-114037332D01*
X115625997Y-114148985D01*
X115634434Y-114176798D01*
X115669453Y-114292245D01*
X115740025Y-114424275D01*
X115767501Y-114457754D01*
X115834999Y-114540000D01*
X115863997Y-114563798D01*
X116061928Y-114761729D01*
X116061928Y-115550000D01*
X116074188Y-115674482D01*
X116110498Y-115794180D01*
X116169463Y-115904494D01*
X116248815Y-116001185D01*
X116345506Y-116080537D01*
X116365000Y-116090957D01*
X116365001Y-116668930D01*
X116247650Y-116704528D01*
X116094114Y-116786595D01*
X115959538Y-116897038D01*
X115849095Y-117031614D01*
X115767028Y-117185150D01*
X115716492Y-117351746D01*
X115699428Y-117525000D01*
X115699428Y-118475000D01*
X115716492Y-118648254D01*
X115767028Y-118814850D01*
X115849095Y-118968386D01*
X115959538Y-119102962D01*
X116094114Y-119213405D01*
X116247650Y-119295472D01*
X116394440Y-119340000D01*
X110660000Y-119340000D01*
X110660000Y-118680000D01*
X111561928Y-118680000D01*
X111574188Y-118804482D01*
X111610498Y-118924180D01*
X111669463Y-119034494D01*
X111748815Y-119131185D01*
X111845506Y-119210537D01*
X111955820Y-119269502D01*
X112075518Y-119305812D01*
X112200000Y-119318072D01*
X112714250Y-119315000D01*
X112873000Y-119156250D01*
X112873000Y-117717000D01*
X113127000Y-117717000D01*
X113127000Y-119156250D01*
X113285750Y-119315000D01*
X113800000Y-119318072D01*
X113924482Y-119305812D01*
X114044180Y-119269502D01*
X114154494Y-119210537D01*
X114251185Y-119131185D01*
X114330537Y-119034494D01*
X114389502Y-118924180D01*
X114425812Y-118804482D01*
X114438072Y-118680000D01*
X114435000Y-117875750D01*
X114276250Y-117717000D01*
X113127000Y-117717000D01*
X112873000Y-117717000D01*
X111723750Y-117717000D01*
X111565000Y-117875750D01*
X111561928Y-118680000D01*
X110660000Y-118680000D01*
X110660000Y-116500000D01*
X111561928Y-116500000D01*
X111565000Y-117304250D01*
X111723750Y-117463000D01*
X112873000Y-117463000D01*
X112873000Y-116023750D01*
X113127000Y-116023750D01*
X113127000Y-117463000D01*
X114276250Y-117463000D01*
X114435000Y-117304250D01*
X114438072Y-116500000D01*
X114425812Y-116375518D01*
X114389502Y-116255820D01*
X114330537Y-116145506D01*
X114251185Y-116048815D01*
X114154494Y-115969463D01*
X114044180Y-115910498D01*
X113924482Y-115874188D01*
X113800000Y-115861928D01*
X113285750Y-115865000D01*
X113127000Y-116023750D01*
X112873000Y-116023750D01*
X112714250Y-115865000D01*
X112200000Y-115861928D01*
X112075518Y-115874188D01*
X111955820Y-115910498D01*
X111845506Y-115969463D01*
X111748815Y-116048815D01*
X111669463Y-116145506D01*
X111610498Y-116255820D01*
X111574188Y-116375518D01*
X111561928Y-116500000D01*
X110660000Y-116500000D01*
X110660000Y-107320000D01*
X111561928Y-107320000D01*
X111561928Y-109500000D01*
X111574188Y-109624482D01*
X111610498Y-109744180D01*
X111669463Y-109854494D01*
X111748815Y-109951185D01*
X111845506Y-110030537D01*
X111955820Y-110089502D01*
X112075518Y-110125812D01*
X112200000Y-110138072D01*
X113800000Y-110138072D01*
X113924482Y-110125812D01*
X114044180Y-110089502D01*
X114154494Y-110030537D01*
X114251185Y-109951185D01*
X114330537Y-109854494D01*
X114389502Y-109744180D01*
X114425812Y-109624482D01*
X114438072Y-109500000D01*
X114438072Y-107320000D01*
X114425812Y-107195518D01*
X114389502Y-107075820D01*
X114330537Y-106965506D01*
X114251185Y-106868815D01*
X114154494Y-106789463D01*
X114044180Y-106730498D01*
X113924482Y-106694188D01*
X113914879Y-106693242D01*
X113935000Y-106592089D01*
X113935000Y-106407911D01*
X113899068Y-106227271D01*
X113828586Y-106057111D01*
X113726262Y-105903972D01*
X113596028Y-105773738D01*
X113442889Y-105671414D01*
X113272729Y-105600932D01*
X113092089Y-105565000D01*
X112907911Y-105565000D01*
X112727271Y-105600932D01*
X112557111Y-105671414D01*
X112403972Y-105773738D01*
X112273738Y-105903972D01*
X112171414Y-106057111D01*
X112100932Y-106227271D01*
X112065000Y-106407911D01*
X112065000Y-106592089D01*
X112085121Y-106693242D01*
X112075518Y-106694188D01*
X111955820Y-106730498D01*
X111845506Y-106789463D01*
X111748815Y-106868815D01*
X111669463Y-106965506D01*
X111610498Y-107075820D01*
X111574188Y-107195518D01*
X111561928Y-107320000D01*
X110660000Y-107320000D01*
X110660000Y-98500000D01*
X111561928Y-98500000D01*
X111561928Y-100680000D01*
X111574188Y-100804482D01*
X111610498Y-100924180D01*
X111669463Y-101034494D01*
X111748815Y-101131185D01*
X111845506Y-101210537D01*
X111955820Y-101269502D01*
X112075518Y-101305812D01*
X112085121Y-101306758D01*
X112065000Y-101407911D01*
X112065000Y-101592089D01*
X112100932Y-101772729D01*
X112171414Y-101942889D01*
X112273738Y-102096028D01*
X112403972Y-102226262D01*
X112557111Y-102328586D01*
X112727271Y-102399068D01*
X112907911Y-102435000D01*
X113092089Y-102435000D01*
X113272729Y-102399068D01*
X113442889Y-102328586D01*
X113596028Y-102226262D01*
X113726262Y-102096028D01*
X113828586Y-101942889D01*
X113899068Y-101772729D01*
X113935000Y-101592089D01*
X113935000Y-101407911D01*
X113914879Y-101306758D01*
X113924482Y-101305812D01*
X114044180Y-101269502D01*
X114154494Y-101210537D01*
X114251185Y-101131185D01*
X114330537Y-101034494D01*
X114389502Y-100924180D01*
X114425812Y-100804482D01*
X114438072Y-100680000D01*
X114438072Y-98500000D01*
X114425812Y-98375518D01*
X114389502Y-98255820D01*
X114330537Y-98145506D01*
X114251185Y-98048815D01*
X114154494Y-97969463D01*
X114044180Y-97910498D01*
X113924482Y-97874188D01*
X113800000Y-97861928D01*
X112200000Y-97861928D01*
X112075518Y-97874188D01*
X111955820Y-97910498D01*
X111845506Y-97969463D01*
X111748815Y-98048815D01*
X111669463Y-98145506D01*
X111610498Y-98255820D01*
X111574188Y-98375518D01*
X111561928Y-98500000D01*
X110660000Y-98500000D01*
X110660000Y-91500000D01*
X111561928Y-91500000D01*
X111574188Y-91624482D01*
X111610498Y-91744180D01*
X111669463Y-91854494D01*
X111748815Y-91951185D01*
X111845506Y-92030537D01*
X111955820Y-92089502D01*
X112075518Y-92125812D01*
X112200000Y-92138072D01*
X112714250Y-92135000D01*
X112873000Y-91976250D01*
X112873000Y-90537000D01*
X113127000Y-90537000D01*
X113127000Y-91976250D01*
X113285750Y-92135000D01*
X113800000Y-92138072D01*
X113924482Y-92125812D01*
X114044180Y-92089502D01*
X114154494Y-92030537D01*
X114251185Y-91951185D01*
X114330537Y-91854494D01*
X114389502Y-91744180D01*
X114425812Y-91624482D01*
X114438072Y-91500000D01*
X114435000Y-90695750D01*
X114276250Y-90537000D01*
X113127000Y-90537000D01*
X112873000Y-90537000D01*
X111723750Y-90537000D01*
X111565000Y-90695750D01*
X111561928Y-91500000D01*
X110660000Y-91500000D01*
X110660000Y-89320000D01*
X111561928Y-89320000D01*
X111565000Y-90124250D01*
X111723750Y-90283000D01*
X112873000Y-90283000D01*
X112873000Y-88843750D01*
X113127000Y-88843750D01*
X113127000Y-90283000D01*
X114276250Y-90283000D01*
X114435000Y-90124250D01*
X114438072Y-89320000D01*
X114425812Y-89195518D01*
X114389502Y-89075820D01*
X114330537Y-88965506D01*
X114251185Y-88868815D01*
X114154494Y-88789463D01*
X114044180Y-88730498D01*
X113924482Y-88694188D01*
X113800000Y-88681928D01*
X113285750Y-88685000D01*
X113127000Y-88843750D01*
X112873000Y-88843750D01*
X112714250Y-88685000D01*
X112200000Y-88681928D01*
X112075518Y-88694188D01*
X111955820Y-88730498D01*
X111845506Y-88789463D01*
X111748815Y-88868815D01*
X111669463Y-88965506D01*
X111610498Y-89075820D01*
X111574188Y-89195518D01*
X111561928Y-89320000D01*
X110660000Y-89320000D01*
X110660000Y-80500000D01*
X111561928Y-80500000D01*
X111561928Y-82680000D01*
X111574188Y-82804482D01*
X111610498Y-82924180D01*
X111669463Y-83034494D01*
X111748815Y-83131185D01*
X111845506Y-83210537D01*
X111955820Y-83269502D01*
X112075518Y-83305812D01*
X112085121Y-83306758D01*
X112065000Y-83407911D01*
X112065000Y-83592089D01*
X112100932Y-83772729D01*
X112171414Y-83942889D01*
X112273738Y-84096028D01*
X112403972Y-84226262D01*
X112557111Y-84328586D01*
X112727271Y-84399068D01*
X112907911Y-84435000D01*
X113092089Y-84435000D01*
X113272729Y-84399068D01*
X113442889Y-84328586D01*
X113596028Y-84226262D01*
X113726262Y-84096028D01*
X113828586Y-83942889D01*
X113899068Y-83772729D01*
X113935000Y-83592089D01*
X113935000Y-83407911D01*
X113914879Y-83306758D01*
X113924482Y-83305812D01*
X114044180Y-83269502D01*
X114154494Y-83210537D01*
X114251185Y-83131185D01*
X114330537Y-83034494D01*
X114389502Y-82924180D01*
X114425812Y-82804482D01*
X114438072Y-82680000D01*
X114438072Y-80500000D01*
X114425812Y-80375518D01*
X114389502Y-80255820D01*
X114330537Y-80145506D01*
X114251185Y-80048815D01*
X114154494Y-79969463D01*
X114044180Y-79910498D01*
X113924482Y-79874188D01*
X113800000Y-79861928D01*
X112200000Y-79861928D01*
X112075518Y-79874188D01*
X111955820Y-79910498D01*
X111845506Y-79969463D01*
X111748815Y-80048815D01*
X111669463Y-80145506D01*
X111610498Y-80255820D01*
X111574188Y-80375518D01*
X111561928Y-80500000D01*
X110660000Y-80500000D01*
X110660000Y-73500000D01*
X111561928Y-73500000D01*
X111574188Y-73624482D01*
X111610498Y-73744180D01*
X111669463Y-73854494D01*
X111748815Y-73951185D01*
X111845506Y-74030537D01*
X111955820Y-74089502D01*
X112075518Y-74125812D01*
X112200000Y-74138072D01*
X112714250Y-74135000D01*
X112873000Y-73976250D01*
X112873000Y-72537000D01*
X113127000Y-72537000D01*
X113127000Y-73976250D01*
X113285750Y-74135000D01*
X113800000Y-74138072D01*
X113924482Y-74125812D01*
X114044180Y-74089502D01*
X114154494Y-74030537D01*
X114251185Y-73951185D01*
X114330537Y-73854494D01*
X114389502Y-73744180D01*
X114425812Y-73624482D01*
X114438072Y-73500000D01*
X114435000Y-72695750D01*
X114276250Y-72537000D01*
X113127000Y-72537000D01*
X112873000Y-72537000D01*
X111723750Y-72537000D01*
X111565000Y-72695750D01*
X111561928Y-73500000D01*
X110660000Y-73500000D01*
X110660000Y-71320000D01*
X111561928Y-71320000D01*
X111565000Y-72124250D01*
X111723750Y-72283000D01*
X112873000Y-72283000D01*
X112873000Y-70843750D01*
X113127000Y-70843750D01*
X113127000Y-72283000D01*
X114276250Y-72283000D01*
X114435000Y-72124250D01*
X114438072Y-71320000D01*
X114425812Y-71195518D01*
X114389502Y-71075820D01*
X114330537Y-70965506D01*
X114251185Y-70868815D01*
X114154494Y-70789463D01*
X114044180Y-70730498D01*
X113924482Y-70694188D01*
X113800000Y-70681928D01*
X113285750Y-70685000D01*
X113127000Y-70843750D01*
X112873000Y-70843750D01*
X112714250Y-70685000D01*
X112200000Y-70681928D01*
X112075518Y-70694188D01*
X111955820Y-70730498D01*
X111845506Y-70789463D01*
X111748815Y-70868815D01*
X111669463Y-70965506D01*
X111610498Y-71075820D01*
X111574188Y-71195518D01*
X111561928Y-71320000D01*
X110660000Y-71320000D01*
X110660000Y-70660000D01*
X126856333Y-70660000D01*
X126829528Y-70710149D01*
G37*
%TD.AperFunction*%
D23*
X136739208Y-70681739D02*
X136655525Y-70935920D01*
X137540000Y-71820395D01*
X138424475Y-70935920D01*
X138340792Y-70681739D01*
X138295525Y-70660000D01*
X139368292Y-70660000D01*
X139294192Y-70864587D01*
X140250000Y-71820395D01*
X141205808Y-70864587D01*
X141131708Y-70660000D01*
X145868292Y-70660000D01*
X145794192Y-70864587D01*
X146750000Y-71820395D01*
X147705808Y-70864587D01*
X147631708Y-70660000D01*
X159340000Y-70660000D01*
X159340001Y-119340000D01*
X119747624Y-119340000D01*
X119831680Y-119314502D01*
X119941994Y-119255537D01*
X120038685Y-119176185D01*
X120118037Y-119079494D01*
X120177002Y-118969180D01*
X120213312Y-118849482D01*
X120225572Y-118725000D01*
X120222500Y-118285750D01*
X120063750Y-118127000D01*
X119127000Y-118127000D01*
X119127000Y-118147000D01*
X118873000Y-118147000D01*
X118873000Y-118127000D01*
X118853000Y-118127000D01*
X118853000Y-117873000D01*
X118873000Y-117873000D01*
X118873000Y-116798750D01*
X119127000Y-116798750D01*
X119127000Y-117873000D01*
X120063750Y-117873000D01*
X120222500Y-117714250D01*
X120225572Y-117275000D01*
X120213312Y-117150518D01*
X120177002Y-117030820D01*
X120118037Y-116920506D01*
X120038685Y-116823815D01*
X119941994Y-116744463D01*
X119831680Y-116685498D01*
X119711982Y-116649188D01*
X119587500Y-116636928D01*
X119285750Y-116640000D01*
X119127000Y-116798750D01*
X118873000Y-116798750D01*
X118714250Y-116640000D01*
X118412500Y-116636928D01*
X118288018Y-116649188D01*
X118168320Y-116685498D01*
X118058006Y-116744463D01*
X117961315Y-116823815D01*
X117895842Y-116903594D01*
X117890462Y-116897038D01*
X117885000Y-116892555D01*
X117885000Y-116635001D01*
X141407677Y-116635001D01*
X141444999Y-116638677D01*
X141482321Y-116635001D01*
X141482332Y-116635001D01*
X141593985Y-116624004D01*
X141737246Y-116580547D01*
X141869275Y-116509975D01*
X141985000Y-116415002D01*
X142008803Y-116385998D01*
X142328430Y-116066372D01*
X142482408Y-116097000D01*
X142757592Y-116097000D01*
X143027490Y-116043314D01*
X143281727Y-115938005D01*
X143510535Y-115785120D01*
X143705120Y-115590535D01*
X143792341Y-115460000D01*
X150061928Y-115460000D01*
X150061928Y-115550000D01*
X150074188Y-115674482D01*
X150110498Y-115794180D01*
X150169463Y-115904494D01*
X150248815Y-116001185D01*
X150345506Y-116080537D01*
X150365000Y-116090957D01*
X150365001Y-116430306D01*
X150285150Y-116454528D01*
X150131614Y-116536595D01*
X149997038Y-116647038D01*
X149886595Y-116781614D01*
X149804528Y-116935150D01*
X149753992Y-117101746D01*
X149736928Y-117275000D01*
X149736928Y-118225000D01*
X149753992Y-118398254D01*
X149804528Y-118564850D01*
X149886595Y-118718386D01*
X149997038Y-118852962D01*
X150131614Y-118963405D01*
X150285150Y-119045472D01*
X150451746Y-119096008D01*
X150625000Y-119113072D01*
X151300000Y-119113072D01*
X151473254Y-119096008D01*
X151639850Y-119045472D01*
X151793386Y-118963405D01*
X151927962Y-118852962D01*
X151933342Y-118846406D01*
X151998815Y-118926185D01*
X152095506Y-119005537D01*
X152205820Y-119064502D01*
X152325518Y-119100812D01*
X152450000Y-119113072D01*
X152751750Y-119110000D01*
X152910500Y-118951250D01*
X152910500Y-117877000D01*
X153164500Y-117877000D01*
X153164500Y-118951250D01*
X153323250Y-119110000D01*
X153625000Y-119113072D01*
X153749482Y-119100812D01*
X153869180Y-119064502D01*
X153979494Y-119005537D01*
X154076185Y-118926185D01*
X154155537Y-118829494D01*
X154214502Y-118719180D01*
X154226387Y-118680000D01*
X155561928Y-118680000D01*
X155574188Y-118804482D01*
X155610498Y-118924180D01*
X155669463Y-119034494D01*
X155748815Y-119131185D01*
X155845506Y-119210537D01*
X155955820Y-119269502D01*
X156075518Y-119305812D01*
X156200000Y-119318072D01*
X156714250Y-119315000D01*
X156873000Y-119156250D01*
X156873000Y-117717000D01*
X157127000Y-117717000D01*
X157127000Y-119156250D01*
X157285750Y-119315000D01*
X157800000Y-119318072D01*
X157924482Y-119305812D01*
X158044180Y-119269502D01*
X158154494Y-119210537D01*
X158251185Y-119131185D01*
X158330537Y-119034494D01*
X158389502Y-118924180D01*
X158425812Y-118804482D01*
X158438072Y-118680000D01*
X158435000Y-117875750D01*
X158276250Y-117717000D01*
X157127000Y-117717000D01*
X156873000Y-117717000D01*
X155723750Y-117717000D01*
X155565000Y-117875750D01*
X155561928Y-118680000D01*
X154226387Y-118680000D01*
X154250812Y-118599482D01*
X154263072Y-118475000D01*
X154260000Y-118035750D01*
X154101250Y-117877000D01*
X153164500Y-117877000D01*
X152910500Y-117877000D01*
X152890500Y-117877000D01*
X152890500Y-117623000D01*
X152910500Y-117623000D01*
X152910500Y-116548750D01*
X153164500Y-116548750D01*
X153164500Y-117623000D01*
X154101250Y-117623000D01*
X154260000Y-117464250D01*
X154263072Y-117025000D01*
X154250812Y-116900518D01*
X154214502Y-116780820D01*
X154155537Y-116670506D01*
X154076185Y-116573815D01*
X153986241Y-116500000D01*
X155561928Y-116500000D01*
X155565000Y-117304250D01*
X155723750Y-117463000D01*
X156873000Y-117463000D01*
X156873000Y-116023750D01*
X157127000Y-116023750D01*
X157127000Y-117463000D01*
X158276250Y-117463000D01*
X158435000Y-117304250D01*
X158438072Y-116500000D01*
X158425812Y-116375518D01*
X158389502Y-116255820D01*
X158330537Y-116145506D01*
X158251185Y-116048815D01*
X158154494Y-115969463D01*
X158044180Y-115910498D01*
X157924482Y-115874188D01*
X157800000Y-115861928D01*
X157285750Y-115865000D01*
X157127000Y-116023750D01*
X156873000Y-116023750D01*
X156714250Y-115865000D01*
X156200000Y-115861928D01*
X156075518Y-115874188D01*
X155955820Y-115910498D01*
X155845506Y-115969463D01*
X155748815Y-116048815D01*
X155669463Y-116145506D01*
X155610498Y-116255820D01*
X155574188Y-116375518D01*
X155561928Y-116500000D01*
X153986241Y-116500000D01*
X153979494Y-116494463D01*
X153869180Y-116435498D01*
X153749482Y-116399188D01*
X153625000Y-116386928D01*
X153323250Y-116390000D01*
X153164500Y-116548750D01*
X152910500Y-116548750D01*
X152751750Y-116390000D01*
X152450000Y-116386928D01*
X152325518Y-116399188D01*
X152205820Y-116435498D01*
X152095506Y-116494463D01*
X151998815Y-116573815D01*
X151933342Y-116653594D01*
X151927962Y-116647038D01*
X151885000Y-116611780D01*
X151885000Y-116090957D01*
X151904494Y-116080537D01*
X152000000Y-116002158D01*
X152095506Y-116080537D01*
X152205820Y-116139502D01*
X152325518Y-116175812D01*
X152450000Y-116188072D01*
X153300000Y-116188072D01*
X153424482Y-116175812D01*
X153544180Y-116139502D01*
X153654494Y-116080537D01*
X153751185Y-116001185D01*
X153830537Y-115904494D01*
X153889502Y-115794180D01*
X153925812Y-115674482D01*
X153938072Y-115550000D01*
X153938072Y-113950000D01*
X153925812Y-113825518D01*
X153889502Y-113705820D01*
X153830537Y-113595506D01*
X153751185Y-113498815D01*
X153654494Y-113419463D01*
X153544180Y-113360498D01*
X153424482Y-113324188D01*
X153300000Y-113311928D01*
X152450000Y-113311928D01*
X152325518Y-113324188D01*
X152205820Y-113360498D01*
X152095506Y-113419463D01*
X152000000Y-113497842D01*
X151904494Y-113419463D01*
X151794180Y-113360498D01*
X151674482Y-113324188D01*
X151550000Y-113311928D01*
X151134999Y-113311928D01*
X151134999Y-112688072D01*
X151550000Y-112688072D01*
X151674482Y-112675812D01*
X151794180Y-112639502D01*
X151904494Y-112580537D01*
X152000000Y-112502158D01*
X152095506Y-112580537D01*
X152205820Y-112639502D01*
X152325518Y-112675812D01*
X152450000Y-112688072D01*
X152589250Y-112685000D01*
X152748000Y-112526250D01*
X152748000Y-111377000D01*
X153002000Y-111377000D01*
X153002000Y-112526250D01*
X153160750Y-112685000D01*
X153300000Y-112688072D01*
X153424482Y-112675812D01*
X153544180Y-112639502D01*
X153654494Y-112580537D01*
X153751185Y-112501185D01*
X153830537Y-112404494D01*
X153889502Y-112294180D01*
X153925812Y-112174482D01*
X153938072Y-112050000D01*
X153935000Y-111535750D01*
X153776250Y-111377000D01*
X153002000Y-111377000D01*
X152748000Y-111377000D01*
X152728000Y-111377000D01*
X152728000Y-111123000D01*
X152748000Y-111123000D01*
X152748000Y-111103000D01*
X153002000Y-111103000D01*
X153002000Y-111123000D01*
X153776250Y-111123000D01*
X153935000Y-110964250D01*
X153938072Y-110450000D01*
X153925812Y-110325518D01*
X153889502Y-110205820D01*
X153830537Y-110095506D01*
X153751185Y-109998815D01*
X153654494Y-109919463D01*
X153544180Y-109860498D01*
X153424482Y-109824188D01*
X153300000Y-109811928D01*
X153160750Y-109815000D01*
X153002002Y-109973748D01*
X153002002Y-109815000D01*
X152884990Y-109815000D01*
X152884990Y-107320000D01*
X155561928Y-107320000D01*
X155561928Y-109500000D01*
X155574188Y-109624482D01*
X155610498Y-109744180D01*
X155669463Y-109854494D01*
X155748815Y-109951185D01*
X155845506Y-110030537D01*
X155955820Y-110089502D01*
X156075518Y-110125812D01*
X156200000Y-110138072D01*
X157800000Y-110138072D01*
X157924482Y-110125812D01*
X158044180Y-110089502D01*
X158154494Y-110030537D01*
X158251185Y-109951185D01*
X158330537Y-109854494D01*
X158389502Y-109744180D01*
X158425812Y-109624482D01*
X158438072Y-109500000D01*
X158438072Y-107320000D01*
X158425812Y-107195518D01*
X158389502Y-107075820D01*
X158330537Y-106965506D01*
X158251185Y-106868815D01*
X158154494Y-106789463D01*
X158044180Y-106730498D01*
X157924482Y-106694188D01*
X157914879Y-106693242D01*
X157935000Y-106592089D01*
X157935000Y-106407911D01*
X157899068Y-106227271D01*
X157828586Y-106057111D01*
X157726262Y-105903972D01*
X157596028Y-105773738D01*
X157442889Y-105671414D01*
X157272729Y-105600932D01*
X157092089Y-105565000D01*
X156907911Y-105565000D01*
X156727271Y-105600932D01*
X156557111Y-105671414D01*
X156403972Y-105773738D01*
X156273738Y-105903972D01*
X156171414Y-106057111D01*
X156100932Y-106227271D01*
X156065000Y-106407911D01*
X156065000Y-106592089D01*
X156085121Y-106693242D01*
X156075518Y-106694188D01*
X155955820Y-106730498D01*
X155845506Y-106789463D01*
X155748815Y-106868815D01*
X155669463Y-106965506D01*
X155610498Y-107075820D01*
X155574188Y-107195518D01*
X155561928Y-107320000D01*
X152884990Y-107320000D01*
X152884990Y-101226760D01*
X152910500Y-101201250D01*
X152910500Y-100127000D01*
X153164500Y-100127000D01*
X153164500Y-101201250D01*
X153323250Y-101360000D01*
X153625000Y-101363072D01*
X153749482Y-101350812D01*
X153869180Y-101314502D01*
X153979494Y-101255537D01*
X154076185Y-101176185D01*
X154155537Y-101079494D01*
X154214502Y-100969180D01*
X154250812Y-100849482D01*
X154263072Y-100725000D01*
X154260000Y-100285750D01*
X154101250Y-100127000D01*
X153164500Y-100127000D01*
X152910500Y-100127000D01*
X152890500Y-100127000D01*
X152890500Y-99873000D01*
X152910500Y-99873000D01*
X152910500Y-98798750D01*
X153164500Y-98798750D01*
X153164500Y-99873000D01*
X154101250Y-99873000D01*
X154260000Y-99714250D01*
X154263072Y-99275000D01*
X154250812Y-99150518D01*
X154214502Y-99030820D01*
X154155537Y-98920506D01*
X154076185Y-98823815D01*
X153979494Y-98744463D01*
X153869180Y-98685498D01*
X153749482Y-98649188D01*
X153625000Y-98636928D01*
X153323250Y-98640000D01*
X153164500Y-98798750D01*
X152910500Y-98798750D01*
X152884990Y-98773240D01*
X152884990Y-98500000D01*
X155561928Y-98500000D01*
X155561928Y-100680000D01*
X155574188Y-100804482D01*
X155610498Y-100924180D01*
X155669463Y-101034494D01*
X155748815Y-101131185D01*
X155845506Y-101210537D01*
X155955820Y-101269502D01*
X156075518Y-101305812D01*
X156085121Y-101306758D01*
X156065000Y-101407911D01*
X156065000Y-101592089D01*
X156100932Y-101772729D01*
X156171414Y-101942889D01*
X156273738Y-102096028D01*
X156403972Y-102226262D01*
X156557111Y-102328586D01*
X156727271Y-102399068D01*
X156907911Y-102435000D01*
X157092089Y-102435000D01*
X157272729Y-102399068D01*
X157442889Y-102328586D01*
X157596028Y-102226262D01*
X157726262Y-102096028D01*
X157828586Y-101942889D01*
X157899068Y-101772729D01*
X157935000Y-101592089D01*
X157935000Y-101407911D01*
X157914879Y-101306758D01*
X157924482Y-101305812D01*
X158044180Y-101269502D01*
X158154494Y-101210537D01*
X158251185Y-101131185D01*
X158330537Y-101034494D01*
X158389502Y-100924180D01*
X158425812Y-100804482D01*
X158438072Y-100680000D01*
X158438072Y-98500000D01*
X158425812Y-98375518D01*
X158389502Y-98255820D01*
X158330537Y-98145506D01*
X158251185Y-98048815D01*
X158154494Y-97969463D01*
X158044180Y-97910498D01*
X157924482Y-97874188D01*
X157800000Y-97861928D01*
X156200000Y-97861928D01*
X156075518Y-97874188D01*
X155955820Y-97910498D01*
X155845506Y-97969463D01*
X155748815Y-98048815D01*
X155669463Y-98145506D01*
X155610498Y-98255820D01*
X155574188Y-98375518D01*
X155561928Y-98500000D01*
X152884990Y-98500000D01*
X152884990Y-98188072D01*
X153300000Y-98188072D01*
X153424482Y-98175812D01*
X153544180Y-98139502D01*
X153654494Y-98080537D01*
X153751185Y-98001185D01*
X153830537Y-97904494D01*
X153889502Y-97794180D01*
X153925812Y-97674482D01*
X153938072Y-97550000D01*
X153938072Y-95950000D01*
X153925812Y-95825518D01*
X153889502Y-95705820D01*
X153830537Y-95595506D01*
X153751185Y-95498815D01*
X153654494Y-95419463D01*
X153544180Y-95360498D01*
X153424482Y-95324188D01*
X153300000Y-95311928D01*
X152450000Y-95311928D01*
X152325518Y-95324188D01*
X152205820Y-95360498D01*
X152095506Y-95419463D01*
X152000000Y-95497842D01*
X151904494Y-95419463D01*
X151794180Y-95360498D01*
X151674482Y-95324188D01*
X151550000Y-95311928D01*
X151134999Y-95311928D01*
X151134999Y-94688072D01*
X151550000Y-94688072D01*
X151674482Y-94675812D01*
X151794180Y-94639502D01*
X151904494Y-94580537D01*
X152000000Y-94502158D01*
X152095506Y-94580537D01*
X152205820Y-94639502D01*
X152325518Y-94675812D01*
X152450000Y-94688072D01*
X152589250Y-94685000D01*
X152748000Y-94526250D01*
X152748000Y-93377000D01*
X153002000Y-93377000D01*
X153002000Y-94526250D01*
X153160750Y-94685000D01*
X153300000Y-94688072D01*
X153424482Y-94675812D01*
X153544180Y-94639502D01*
X153654494Y-94580537D01*
X153751185Y-94501185D01*
X153830537Y-94404494D01*
X153889502Y-94294180D01*
X153925812Y-94174482D01*
X153938072Y-94050000D01*
X153935000Y-93535750D01*
X153776250Y-93377000D01*
X153002000Y-93377000D01*
X152748000Y-93377000D01*
X152728000Y-93377000D01*
X152728000Y-93123000D01*
X152748000Y-93123000D01*
X152748000Y-91973750D01*
X153002000Y-91973750D01*
X153002000Y-93123000D01*
X153776250Y-93123000D01*
X153935000Y-92964250D01*
X153938072Y-92450000D01*
X153925812Y-92325518D01*
X153889502Y-92205820D01*
X153830537Y-92095506D01*
X153751185Y-91998815D01*
X153654494Y-91919463D01*
X153544180Y-91860498D01*
X153424482Y-91824188D01*
X153300000Y-91811928D01*
X153160750Y-91815000D01*
X153002000Y-91973750D01*
X152748000Y-91973750D01*
X152635010Y-91860760D01*
X152635010Y-91500000D01*
X155561928Y-91500000D01*
X155574188Y-91624482D01*
X155610498Y-91744180D01*
X155669463Y-91854494D01*
X155748815Y-91951185D01*
X155845506Y-92030537D01*
X155955820Y-92089502D01*
X156075518Y-92125812D01*
X156200000Y-92138072D01*
X156714250Y-92135000D01*
X156873000Y-91976250D01*
X156873000Y-90537000D01*
X157127000Y-90537000D01*
X157127000Y-91976250D01*
X157285750Y-92135000D01*
X157800000Y-92138072D01*
X157924482Y-92125812D01*
X158044180Y-92089502D01*
X158154494Y-92030537D01*
X158251185Y-91951185D01*
X158330537Y-91854494D01*
X158389502Y-91744180D01*
X158425812Y-91624482D01*
X158438072Y-91500000D01*
X158435000Y-90695750D01*
X158276250Y-90537000D01*
X157127000Y-90537000D01*
X156873000Y-90537000D01*
X155723750Y-90537000D01*
X155565000Y-90695750D01*
X155561928Y-91500000D01*
X152635010Y-91500000D01*
X152635010Y-89320000D01*
X155561928Y-89320000D01*
X155565000Y-90124250D01*
X155723750Y-90283000D01*
X156873000Y-90283000D01*
X156873000Y-88843750D01*
X157127000Y-88843750D01*
X157127000Y-90283000D01*
X158276250Y-90283000D01*
X158435000Y-90124250D01*
X158438072Y-89320000D01*
X158425812Y-89195518D01*
X158389502Y-89075820D01*
X158330537Y-88965506D01*
X158251185Y-88868815D01*
X158154494Y-88789463D01*
X158044180Y-88730498D01*
X157924482Y-88694188D01*
X157800000Y-88681928D01*
X157285750Y-88685000D01*
X157127000Y-88843750D01*
X156873000Y-88843750D01*
X156714250Y-88685000D01*
X156200000Y-88681928D01*
X156075518Y-88694188D01*
X155955820Y-88730498D01*
X155845506Y-88789463D01*
X155748815Y-88868815D01*
X155669463Y-88965506D01*
X155610498Y-89075820D01*
X155574188Y-89195518D01*
X155561928Y-89320000D01*
X152635010Y-89320000D01*
X152635010Y-83361188D01*
X152751750Y-83360000D01*
X152910500Y-83201250D01*
X152910500Y-82127000D01*
X153164500Y-82127000D01*
X153164500Y-83201250D01*
X153323250Y-83360000D01*
X153625000Y-83363072D01*
X153749482Y-83350812D01*
X153869180Y-83314502D01*
X153979494Y-83255537D01*
X154076185Y-83176185D01*
X154155537Y-83079494D01*
X154214502Y-82969180D01*
X154250812Y-82849482D01*
X154263072Y-82725000D01*
X154260000Y-82285750D01*
X154101250Y-82127000D01*
X153164500Y-82127000D01*
X152910500Y-82127000D01*
X152890500Y-82127000D01*
X152890500Y-81873000D01*
X152910500Y-81873000D01*
X152910500Y-81853000D01*
X153164500Y-81853000D01*
X153164500Y-81873000D01*
X154101250Y-81873000D01*
X154260000Y-81714250D01*
X154263072Y-81275000D01*
X154250812Y-81150518D01*
X154214502Y-81030820D01*
X154155537Y-80920506D01*
X154076185Y-80823815D01*
X153979494Y-80744463D01*
X153869180Y-80685498D01*
X153749482Y-80649188D01*
X153625000Y-80636928D01*
X153323250Y-80640000D01*
X153164502Y-80798748D01*
X153164502Y-80660301D01*
X153324803Y-80500000D01*
X155561928Y-80500000D01*
X155561928Y-82680000D01*
X155574188Y-82804482D01*
X155610498Y-82924180D01*
X155669463Y-83034494D01*
X155748815Y-83131185D01*
X155845506Y-83210537D01*
X155955820Y-83269502D01*
X156075518Y-83305812D01*
X156085121Y-83306758D01*
X156065000Y-83407911D01*
X156065000Y-83592089D01*
X156100932Y-83772729D01*
X156171414Y-83942889D01*
X156273738Y-84096028D01*
X156403972Y-84226262D01*
X156557111Y-84328586D01*
X156727271Y-84399068D01*
X156907911Y-84435000D01*
X157092089Y-84435000D01*
X157272729Y-84399068D01*
X157442889Y-84328586D01*
X157596028Y-84226262D01*
X157726262Y-84096028D01*
X157828586Y-83942889D01*
X157899068Y-83772729D01*
X157935000Y-83592089D01*
X157935000Y-83407911D01*
X157914879Y-83306758D01*
X157924482Y-83305812D01*
X158044180Y-83269502D01*
X158154494Y-83210537D01*
X158251185Y-83131185D01*
X158330537Y-83034494D01*
X158389502Y-82924180D01*
X158425812Y-82804482D01*
X158438072Y-82680000D01*
X158438072Y-80500000D01*
X158425812Y-80375518D01*
X158389502Y-80255820D01*
X158330537Y-80145506D01*
X158251185Y-80048815D01*
X158154494Y-79969463D01*
X158044180Y-79910498D01*
X157924482Y-79874188D01*
X157800000Y-79861928D01*
X156200000Y-79861928D01*
X156075518Y-79874188D01*
X155955820Y-79910498D01*
X155845506Y-79969463D01*
X155748815Y-80048815D01*
X155669463Y-80145506D01*
X155610498Y-80255820D01*
X155574188Y-80375518D01*
X155561928Y-80500000D01*
X153324803Y-80500000D01*
X153386008Y-80438795D01*
X153415001Y-80415001D01*
X153438795Y-80386008D01*
X153438799Y-80386004D01*
X153509973Y-80299277D01*
X153509974Y-80299276D01*
X153580546Y-80167247D01*
X153597628Y-80110933D01*
X153654494Y-80080537D01*
X153751185Y-80001185D01*
X153830537Y-79904494D01*
X153889502Y-79794180D01*
X153925812Y-79674482D01*
X153938072Y-79550000D01*
X153938072Y-77950000D01*
X153925812Y-77825518D01*
X153889502Y-77705820D01*
X153830537Y-77595506D01*
X153751185Y-77498815D01*
X153654494Y-77419463D01*
X153544180Y-77360498D01*
X153424482Y-77324188D01*
X153300000Y-77311928D01*
X152450000Y-77311928D01*
X152325518Y-77324188D01*
X152205820Y-77360498D01*
X152095506Y-77419463D01*
X152000000Y-77497842D01*
X151904494Y-77419463D01*
X151794180Y-77360498D01*
X151674482Y-77324188D01*
X151550000Y-77311928D01*
X150700000Y-77311928D01*
X150575518Y-77324188D01*
X150455820Y-77360498D01*
X150345506Y-77419463D01*
X150260000Y-77489636D01*
X150260000Y-77189801D01*
X150761729Y-76688072D01*
X151550000Y-76688072D01*
X151674482Y-76675812D01*
X151794180Y-76639502D01*
X151904494Y-76580537D01*
X152000000Y-76502158D01*
X152095506Y-76580537D01*
X152205820Y-76639502D01*
X152325518Y-76675812D01*
X152450000Y-76688072D01*
X152589250Y-76685000D01*
X152748000Y-76526250D01*
X152748000Y-75377000D01*
X153002000Y-75377000D01*
X153002000Y-76526250D01*
X153160750Y-76685000D01*
X153300000Y-76688072D01*
X153424482Y-76675812D01*
X153544180Y-76639502D01*
X153654494Y-76580537D01*
X153751185Y-76501185D01*
X153830537Y-76404494D01*
X153889502Y-76294180D01*
X153925812Y-76174482D01*
X153938072Y-76050000D01*
X153935000Y-75535750D01*
X153776250Y-75377000D01*
X153002000Y-75377000D01*
X152748000Y-75377000D01*
X152728000Y-75377000D01*
X152728000Y-75123000D01*
X152748000Y-75123000D01*
X152748000Y-73973750D01*
X153002000Y-73973750D01*
X153002000Y-75123000D01*
X153776250Y-75123000D01*
X153935000Y-74964250D01*
X153938072Y-74450000D01*
X153925812Y-74325518D01*
X153889502Y-74205820D01*
X153830537Y-74095506D01*
X153751185Y-73998815D01*
X153654494Y-73919463D01*
X153544180Y-73860498D01*
X153424482Y-73824188D01*
X153300000Y-73811928D01*
X153160750Y-73815000D01*
X153002000Y-73973750D01*
X152748000Y-73973750D01*
X152589250Y-73815000D01*
X152450000Y-73811928D01*
X152325518Y-73824188D01*
X152205820Y-73860498D01*
X152095506Y-73919463D01*
X152000000Y-73997842D01*
X151904494Y-73919463D01*
X151794180Y-73860498D01*
X151674482Y-73824188D01*
X151550000Y-73811928D01*
X150700000Y-73811928D01*
X150575518Y-73824188D01*
X150455820Y-73860498D01*
X150345506Y-73919463D01*
X150248815Y-73998815D01*
X150169463Y-74095506D01*
X150110498Y-74205820D01*
X150074188Y-74325518D01*
X150061928Y-74450000D01*
X150061928Y-75238270D01*
X148989003Y-76311196D01*
X148959999Y-76334999D01*
X148922395Y-76380820D01*
X148865026Y-76450724D01*
X148824937Y-76525725D01*
X148794454Y-76582754D01*
X148750997Y-76726015D01*
X148740000Y-76837668D01*
X148740000Y-76837678D01*
X148736324Y-76875000D01*
X148740000Y-76912322D01*
X148740001Y-106573959D01*
X143842126Y-111471834D01*
X143825656Y-111441020D01*
X143585565Y-111374040D01*
X142799605Y-112160000D01*
X142813748Y-112174143D01*
X142634143Y-112353748D01*
X142620000Y-112339605D01*
X142605858Y-112353748D01*
X142426253Y-112174143D01*
X142440395Y-112160000D01*
X141654435Y-111374040D01*
X141414344Y-111441020D01*
X141297244Y-111690048D01*
X141230977Y-111957135D01*
X141218090Y-112232017D01*
X141259078Y-112504133D01*
X141352364Y-112763023D01*
X141400457Y-112852999D01*
X128597110Y-112852999D01*
X128618005Y-112821727D01*
X128723314Y-112567490D01*
X128777000Y-112297592D01*
X128777000Y-112022408D01*
X128723314Y-111752510D01*
X128618005Y-111498273D01*
X128465120Y-111269465D01*
X128270535Y-111074880D01*
X128041727Y-110921995D01*
X127964485Y-110890000D01*
X128041727Y-110858005D01*
X128270535Y-110705120D01*
X128465120Y-110510535D01*
X128618005Y-110281727D01*
X128723314Y-110027490D01*
X128777000Y-109757592D01*
X128777000Y-109482408D01*
X128723314Y-109212510D01*
X128618005Y-108958273D01*
X128465120Y-108729465D01*
X128270535Y-108534880D01*
X128041727Y-108381995D01*
X127970057Y-108352308D01*
X127983023Y-108347636D01*
X128098980Y-108285656D01*
X128165960Y-108045565D01*
X127380000Y-107259605D01*
X126594040Y-108045565D01*
X126661020Y-108285656D01*
X126796760Y-108349485D01*
X126718273Y-108381995D01*
X126489465Y-108534880D01*
X126294880Y-108729465D01*
X126141995Y-108958273D01*
X126036686Y-109212510D01*
X125983000Y-109482408D01*
X125983000Y-109757592D01*
X126036686Y-110027490D01*
X126141995Y-110281727D01*
X126294880Y-110510535D01*
X126489465Y-110705120D01*
X126718273Y-110858005D01*
X126795515Y-110890000D01*
X126718273Y-110921995D01*
X126489465Y-111074880D01*
X126294880Y-111269465D01*
X126141995Y-111498273D01*
X126036686Y-111752510D01*
X125983000Y-112022408D01*
X125983000Y-112297592D01*
X126036686Y-112567490D01*
X126141995Y-112821727D01*
X126162890Y-112852999D01*
X120049323Y-112852999D01*
X120012000Y-112849323D01*
X119974677Y-112852999D01*
X119974668Y-112852999D01*
X119863015Y-112863996D01*
X119719754Y-112907453D01*
X119587725Y-112978025D01*
X119472000Y-113072998D01*
X119448202Y-113101996D01*
X119238270Y-113311928D01*
X118450000Y-113311928D01*
X118325518Y-113324188D01*
X118205820Y-113360498D01*
X118095506Y-113419463D01*
X118000000Y-113497842D01*
X117904494Y-113419463D01*
X117794180Y-113360498D01*
X117674482Y-113324188D01*
X117550000Y-113311928D01*
X117134999Y-113311928D01*
X117134999Y-112688072D01*
X117550000Y-112688072D01*
X117674482Y-112675812D01*
X117794180Y-112639502D01*
X117904494Y-112580537D01*
X118000000Y-112502158D01*
X118095506Y-112580537D01*
X118205820Y-112639502D01*
X118325518Y-112675812D01*
X118450000Y-112688072D01*
X118589250Y-112685000D01*
X118748000Y-112526250D01*
X118748000Y-111377000D01*
X119002000Y-111377000D01*
X119002000Y-112526250D01*
X119160750Y-112685000D01*
X119300000Y-112688072D01*
X119424482Y-112675812D01*
X119544180Y-112639502D01*
X119654494Y-112580537D01*
X119751185Y-112501185D01*
X119830537Y-112404494D01*
X119889502Y-112294180D01*
X119925812Y-112174482D01*
X119938072Y-112050000D01*
X119935000Y-111535750D01*
X119776250Y-111377000D01*
X119002000Y-111377000D01*
X118748000Y-111377000D01*
X118728000Y-111377000D01*
X118728000Y-111123000D01*
X118748000Y-111123000D01*
X118748000Y-111103000D01*
X119002000Y-111103000D01*
X119002000Y-111123000D01*
X119776250Y-111123000D01*
X119935000Y-110964250D01*
X119938072Y-110450000D01*
X119925812Y-110325518D01*
X119889502Y-110205820D01*
X119830537Y-110095506D01*
X119751185Y-109998815D01*
X119654494Y-109919463D01*
X119544180Y-109860498D01*
X119424482Y-109824188D01*
X119300000Y-109811928D01*
X119160750Y-109815000D01*
X119002002Y-109973748D01*
X119002002Y-109815000D01*
X118884990Y-109815000D01*
X118884990Y-107152017D01*
X125978090Y-107152017D01*
X126019078Y-107424133D01*
X126112364Y-107683023D01*
X126174344Y-107798980D01*
X126414435Y-107865960D01*
X127200395Y-107080000D01*
X127559605Y-107080000D01*
X128345565Y-107865960D01*
X128585656Y-107798980D01*
X128702756Y-107549952D01*
X128769023Y-107282865D01*
X128781910Y-107007983D01*
X128740922Y-106735867D01*
X128647636Y-106476977D01*
X128585656Y-106361020D01*
X128345565Y-106294040D01*
X127559605Y-107080000D01*
X127200395Y-107080000D01*
X126414435Y-106294040D01*
X126174344Y-106361020D01*
X126057244Y-106610048D01*
X125990977Y-106877135D01*
X125978090Y-107152017D01*
X118884990Y-107152017D01*
X118884990Y-101226760D01*
X118910500Y-101201250D01*
X118910500Y-100127000D01*
X119164500Y-100127000D01*
X119164500Y-101201250D01*
X119323250Y-101360000D01*
X119625000Y-101363072D01*
X119749482Y-101350812D01*
X119869180Y-101314502D01*
X119979494Y-101255537D01*
X120076185Y-101176185D01*
X120155537Y-101079494D01*
X120214502Y-100969180D01*
X120250812Y-100849482D01*
X120263072Y-100725000D01*
X120260000Y-100285750D01*
X120101250Y-100127000D01*
X119164500Y-100127000D01*
X118910500Y-100127000D01*
X118890500Y-100127000D01*
X118890500Y-99873000D01*
X118910500Y-99873000D01*
X118910500Y-98798750D01*
X119164500Y-98798750D01*
X119164500Y-99873000D01*
X120101250Y-99873000D01*
X120260000Y-99714250D01*
X120263072Y-99275000D01*
X120250812Y-99150518D01*
X120214502Y-99030820D01*
X120155537Y-98920506D01*
X120076185Y-98823815D01*
X119979494Y-98744463D01*
X119869180Y-98685498D01*
X119749482Y-98649188D01*
X119625000Y-98636928D01*
X119323250Y-98640000D01*
X119164500Y-98798750D01*
X118910500Y-98798750D01*
X118884990Y-98773240D01*
X118884990Y-98188072D01*
X119300000Y-98188072D01*
X119424482Y-98175812D01*
X119544180Y-98139502D01*
X119654494Y-98080537D01*
X119751185Y-98001185D01*
X119830537Y-97904494D01*
X119889502Y-97794180D01*
X119925812Y-97674482D01*
X119938072Y-97550000D01*
X119938072Y-95950000D01*
X119925812Y-95825518D01*
X119889502Y-95705820D01*
X119830537Y-95595506D01*
X119751185Y-95498815D01*
X119654494Y-95419463D01*
X119544180Y-95360498D01*
X119424482Y-95324188D01*
X119300000Y-95311928D01*
X118450000Y-95311928D01*
X118325518Y-95324188D01*
X118205820Y-95360498D01*
X118095506Y-95419463D01*
X118000000Y-95497842D01*
X117904494Y-95419463D01*
X117794180Y-95360498D01*
X117674482Y-95324188D01*
X117550000Y-95311928D01*
X117134999Y-95311928D01*
X117134999Y-94688072D01*
X117550000Y-94688072D01*
X117674482Y-94675812D01*
X117794180Y-94639502D01*
X117904494Y-94580537D01*
X118000000Y-94502158D01*
X118095506Y-94580537D01*
X118205820Y-94639502D01*
X118325518Y-94675812D01*
X118450000Y-94688072D01*
X118589250Y-94685000D01*
X118748000Y-94526250D01*
X118748000Y-93377000D01*
X119002000Y-93377000D01*
X119002000Y-94526250D01*
X119160750Y-94685000D01*
X119300000Y-94688072D01*
X119424482Y-94675812D01*
X119544180Y-94639502D01*
X119654494Y-94580537D01*
X119751185Y-94501185D01*
X119830537Y-94404494D01*
X119889502Y-94294180D01*
X119925812Y-94174482D01*
X119938072Y-94050000D01*
X119935000Y-93535750D01*
X119776250Y-93377000D01*
X119002000Y-93377000D01*
X118748000Y-93377000D01*
X118728000Y-93377000D01*
X118728000Y-93123000D01*
X118748000Y-93123000D01*
X118748000Y-92664012D01*
X118793036Y-92579757D01*
X118836493Y-92436496D01*
X118847490Y-92324843D01*
X118847490Y-92324834D01*
X118851166Y-92287511D01*
X118847490Y-92250188D01*
X118847490Y-91973750D01*
X119002000Y-91973750D01*
X119002000Y-93123000D01*
X119776250Y-93123000D01*
X119935000Y-92964250D01*
X119938072Y-92450000D01*
X119925812Y-92325518D01*
X119889502Y-92205820D01*
X119830537Y-92095506D01*
X119751185Y-91998815D01*
X119654494Y-91919463D01*
X119544180Y-91860498D01*
X119424482Y-91824188D01*
X119300000Y-91811928D01*
X119160750Y-91815000D01*
X119002000Y-91973750D01*
X118847490Y-91973750D01*
X118847490Y-83226760D01*
X118873000Y-83201250D01*
X118873000Y-82127000D01*
X119127000Y-82127000D01*
X119127000Y-83201250D01*
X119285750Y-83360000D01*
X119587500Y-83363072D01*
X119711982Y-83350812D01*
X119831680Y-83314502D01*
X119941994Y-83255537D01*
X120038685Y-83176185D01*
X120118037Y-83079494D01*
X120177002Y-82969180D01*
X120213312Y-82849482D01*
X120225572Y-82725000D01*
X120222500Y-82285750D01*
X120063750Y-82127000D01*
X119127000Y-82127000D01*
X118873000Y-82127000D01*
X118853000Y-82127000D01*
X118853000Y-81873000D01*
X118873000Y-81873000D01*
X118873000Y-80798750D01*
X119127000Y-80798750D01*
X119127000Y-81873000D01*
X120063750Y-81873000D01*
X120222500Y-81714250D01*
X120225572Y-81275000D01*
X120213312Y-81150518D01*
X120177002Y-81030820D01*
X120118037Y-80920506D01*
X120038685Y-80823815D01*
X119941994Y-80744463D01*
X119831680Y-80685498D01*
X119711982Y-80649188D01*
X119587500Y-80636928D01*
X119285750Y-80640000D01*
X119127000Y-80798750D01*
X118873000Y-80798750D01*
X118847490Y-80773240D01*
X118847490Y-80188072D01*
X119050000Y-80188072D01*
X119174482Y-80175812D01*
X119294180Y-80139502D01*
X119404494Y-80080537D01*
X119501185Y-80001185D01*
X119580537Y-79904494D01*
X119639502Y-79794180D01*
X119675812Y-79674482D01*
X119688072Y-79550000D01*
X119688072Y-77950000D01*
X119675812Y-77825518D01*
X119640770Y-77710000D01*
X121405532Y-77710000D01*
X121418815Y-77726185D01*
X121515506Y-77805537D01*
X121625820Y-77864502D01*
X121745518Y-77900812D01*
X121870000Y-77913072D01*
X121940001Y-77913072D01*
X121940001Y-78203927D01*
X121912310Y-78231618D01*
X121832958Y-78328309D01*
X121778502Y-78409808D01*
X121719536Y-78520125D01*
X121682027Y-78610681D01*
X121645718Y-78730377D01*
X121626596Y-78826510D01*
X121614336Y-78950991D01*
X121614336Y-78975550D01*
X121611928Y-79000000D01*
X121611928Y-79500000D01*
X121614336Y-79524450D01*
X121614336Y-79549009D01*
X121626596Y-79673490D01*
X121645718Y-79769623D01*
X121682027Y-79889319D01*
X121719536Y-79979875D01*
X121778502Y-80090192D01*
X121832958Y-80171691D01*
X121912310Y-80268382D01*
X121981618Y-80337690D01*
X122078309Y-80417042D01*
X122159808Y-80471498D01*
X122270125Y-80530464D01*
X122360681Y-80567973D01*
X122480377Y-80604282D01*
X122576510Y-80623404D01*
X122700991Y-80635664D01*
X122725550Y-80635664D01*
X122750000Y-80638072D01*
X123240000Y-80638072D01*
X123240001Y-83342668D01*
X123236324Y-83380000D01*
X123240001Y-83417333D01*
X123250998Y-83528986D01*
X123253530Y-83537333D01*
X123294454Y-83672246D01*
X123365026Y-83804276D01*
X123436201Y-83891002D01*
X123460000Y-83920001D01*
X123488998Y-83943799D01*
X126013628Y-86468430D01*
X125983000Y-86622408D01*
X125983000Y-86897592D01*
X126036686Y-87167490D01*
X126141995Y-87421727D01*
X126294880Y-87650535D01*
X126489465Y-87845120D01*
X126718273Y-87998005D01*
X126795515Y-88030000D01*
X126718273Y-88061995D01*
X126489465Y-88214880D01*
X126294880Y-88409465D01*
X126141995Y-88638273D01*
X126036686Y-88892510D01*
X125983000Y-89162408D01*
X125983000Y-89437592D01*
X126036686Y-89707490D01*
X126141995Y-89961727D01*
X126294880Y-90190535D01*
X126489465Y-90385120D01*
X126718273Y-90538005D01*
X126795515Y-90570000D01*
X126718273Y-90601995D01*
X126489465Y-90754880D01*
X126294880Y-90949465D01*
X126141995Y-91178273D01*
X126036686Y-91432510D01*
X125983000Y-91702408D01*
X125983000Y-91977592D01*
X126036686Y-92247490D01*
X126141995Y-92501727D01*
X126294880Y-92730535D01*
X126489465Y-92925120D01*
X126718273Y-93078005D01*
X126795515Y-93110000D01*
X126718273Y-93141995D01*
X126489465Y-93294880D01*
X126294880Y-93489465D01*
X126141995Y-93718273D01*
X126036686Y-93972510D01*
X125983000Y-94242408D01*
X125983000Y-94517592D01*
X126036686Y-94787490D01*
X126141995Y-95041727D01*
X126294880Y-95270535D01*
X126489465Y-95465120D01*
X126718273Y-95618005D01*
X126795515Y-95650000D01*
X126718273Y-95681995D01*
X126489465Y-95834880D01*
X126294880Y-96029465D01*
X126141995Y-96258273D01*
X126036686Y-96512510D01*
X125983000Y-96782408D01*
X125983000Y-97057592D01*
X126036686Y-97327490D01*
X126141995Y-97581727D01*
X126294880Y-97810535D01*
X126489465Y-98005120D01*
X126718273Y-98158005D01*
X126795515Y-98190000D01*
X126718273Y-98221995D01*
X126489465Y-98374880D01*
X126294880Y-98569465D01*
X126141995Y-98798273D01*
X126036686Y-99052510D01*
X125983000Y-99322408D01*
X125983000Y-99597592D01*
X126036686Y-99867490D01*
X126141995Y-100121727D01*
X126294880Y-100350535D01*
X126489465Y-100545120D01*
X126718273Y-100698005D01*
X126795515Y-100730000D01*
X126718273Y-100761995D01*
X126489465Y-100914880D01*
X126294880Y-101109465D01*
X126141995Y-101338273D01*
X126036686Y-101592510D01*
X125983000Y-101862408D01*
X125983000Y-102137592D01*
X126036686Y-102407490D01*
X126141995Y-102661727D01*
X126294880Y-102890535D01*
X126489465Y-103085120D01*
X126718273Y-103238005D01*
X126795515Y-103270000D01*
X126718273Y-103301995D01*
X126489465Y-103454880D01*
X126294880Y-103649465D01*
X126141995Y-103878273D01*
X126036686Y-104132510D01*
X125983000Y-104402408D01*
X125983000Y-104677592D01*
X126036686Y-104947490D01*
X126141995Y-105201727D01*
X126294880Y-105430535D01*
X126489465Y-105625120D01*
X126718273Y-105778005D01*
X126789943Y-105807692D01*
X126776977Y-105812364D01*
X126661020Y-105874344D01*
X126594040Y-106114435D01*
X127380000Y-106900395D01*
X128165960Y-106114435D01*
X128098980Y-105874344D01*
X127963240Y-105810515D01*
X128041727Y-105778005D01*
X128270535Y-105625120D01*
X128465120Y-105430535D01*
X128618005Y-105201727D01*
X128723314Y-104947490D01*
X128777000Y-104677592D01*
X128777000Y-104402408D01*
X128746372Y-104248430D01*
X129862394Y-103132408D01*
X138683000Y-103132408D01*
X138683000Y-103407592D01*
X138736686Y-103677490D01*
X138841995Y-103931727D01*
X138994880Y-104160535D01*
X139189465Y-104355120D01*
X139418273Y-104508005D01*
X139495515Y-104540000D01*
X139418273Y-104571995D01*
X139189465Y-104724880D01*
X138994880Y-104919465D01*
X138841995Y-105148273D01*
X138736686Y-105402510D01*
X138683000Y-105672408D01*
X138683000Y-105947592D01*
X138736686Y-106217490D01*
X138841995Y-106471727D01*
X138994880Y-106700535D01*
X139189465Y-106895120D01*
X139418273Y-107048005D01*
X139672510Y-107153314D01*
X139942408Y-107207000D01*
X140217592Y-107207000D01*
X140487490Y-107153314D01*
X140741727Y-107048005D01*
X140970535Y-106895120D01*
X141165120Y-106700535D01*
X141318005Y-106471727D01*
X141423314Y-106217490D01*
X141477000Y-105947592D01*
X141477000Y-105672408D01*
X141423314Y-105402510D01*
X141318005Y-105148273D01*
X141165120Y-104919465D01*
X140970535Y-104724880D01*
X140741727Y-104571995D01*
X140664485Y-104540000D01*
X140741727Y-104508005D01*
X140970535Y-104355120D01*
X141165120Y-104160535D01*
X141318005Y-103931727D01*
X141423314Y-103677490D01*
X141477000Y-103407592D01*
X141477000Y-103132408D01*
X141423314Y-102862510D01*
X141318005Y-102608273D01*
X141165120Y-102379465D01*
X140970535Y-102184880D01*
X140741727Y-102031995D01*
X140487490Y-101926686D01*
X140217592Y-101873000D01*
X139942408Y-101873000D01*
X139672510Y-101926686D01*
X139418273Y-102031995D01*
X139189465Y-102184880D01*
X138994880Y-102379465D01*
X138841995Y-102608273D01*
X138736686Y-102862510D01*
X138683000Y-103132408D01*
X129862394Y-103132408D01*
X130511003Y-102483799D01*
X130540001Y-102460001D01*
X130634974Y-102344276D01*
X130705546Y-102212247D01*
X130749003Y-102068986D01*
X130760000Y-101957333D01*
X130763677Y-101920000D01*
X130760000Y-101882667D01*
X130760000Y-84019600D01*
X130809578Y-83986473D01*
X130986473Y-83809578D01*
X131000000Y-83789333D01*
X131013527Y-83809578D01*
X131190422Y-83986473D01*
X131398429Y-84125459D01*
X131629555Y-84221195D01*
X131874916Y-84270000D01*
X132125084Y-84270000D01*
X132370445Y-84221195D01*
X132601571Y-84125459D01*
X132809578Y-83986473D01*
X132986473Y-83809578D01*
X133000000Y-83789333D01*
X133013527Y-83809578D01*
X133152999Y-83949050D01*
X133153000Y-87244429D01*
X133149323Y-87281761D01*
X133163997Y-87430746D01*
X133207453Y-87574007D01*
X133278025Y-87706037D01*
X133349200Y-87792763D01*
X133372999Y-87821762D01*
X133401997Y-87845560D01*
X137907443Y-92351008D01*
X137931237Y-92380001D01*
X137960230Y-92403795D01*
X137960234Y-92403799D01*
X138016531Y-92450000D01*
X138046962Y-92474974D01*
X138178991Y-92545546D01*
X138322252Y-92589003D01*
X138433905Y-92600000D01*
X138433914Y-92600000D01*
X138471237Y-92603676D01*
X138508560Y-92600000D01*
X141447659Y-92600000D01*
X141534880Y-92730535D01*
X141729465Y-92925120D01*
X141958273Y-93078005D01*
X142035515Y-93110000D01*
X141958273Y-93141995D01*
X141729465Y-93294880D01*
X141534880Y-93489465D01*
X141381995Y-93718273D01*
X141276686Y-93972510D01*
X141223000Y-94242408D01*
X141223000Y-94517592D01*
X141276686Y-94787490D01*
X141381995Y-95041727D01*
X141534880Y-95270535D01*
X141729465Y-95465120D01*
X141958273Y-95618005D01*
X142035515Y-95650000D01*
X141958273Y-95681995D01*
X141729465Y-95834880D01*
X141534880Y-96029465D01*
X141381995Y-96258273D01*
X141276686Y-96512510D01*
X141223000Y-96782408D01*
X141223000Y-97057592D01*
X141276686Y-97327490D01*
X141381995Y-97581727D01*
X141534880Y-97810535D01*
X141729465Y-98005120D01*
X141958273Y-98158005D01*
X142035515Y-98190000D01*
X141958273Y-98221995D01*
X141729465Y-98374880D01*
X141534880Y-98569465D01*
X141381995Y-98798273D01*
X141276686Y-99052510D01*
X141223000Y-99322408D01*
X141223000Y-99597592D01*
X141276686Y-99867490D01*
X141381995Y-100121727D01*
X141534880Y-100350535D01*
X141729465Y-100545120D01*
X141958273Y-100698005D01*
X142035515Y-100730000D01*
X141958273Y-100761995D01*
X141729465Y-100914880D01*
X141534880Y-101109465D01*
X141381995Y-101338273D01*
X141276686Y-101592510D01*
X141223000Y-101862408D01*
X141223000Y-102137592D01*
X141276686Y-102407490D01*
X141381995Y-102661727D01*
X141534880Y-102890535D01*
X141729465Y-103085120D01*
X141958273Y-103238005D01*
X142035515Y-103270000D01*
X141958273Y-103301995D01*
X141729465Y-103454880D01*
X141534880Y-103649465D01*
X141381995Y-103878273D01*
X141276686Y-104132510D01*
X141223000Y-104402408D01*
X141223000Y-104677592D01*
X141276686Y-104947490D01*
X141381995Y-105201727D01*
X141534880Y-105430535D01*
X141729465Y-105625120D01*
X141958273Y-105778005D01*
X142035515Y-105810000D01*
X141958273Y-105841995D01*
X141729465Y-105994880D01*
X141534880Y-106189465D01*
X141381995Y-106418273D01*
X141276686Y-106672510D01*
X141223000Y-106942408D01*
X141223000Y-107217592D01*
X141276686Y-107487490D01*
X141381995Y-107741727D01*
X141534880Y-107970535D01*
X141729465Y-108165120D01*
X141958273Y-108318005D01*
X142035515Y-108350000D01*
X141958273Y-108381995D01*
X141729465Y-108534880D01*
X141534880Y-108729465D01*
X141381995Y-108958273D01*
X141276686Y-109212510D01*
X141223000Y-109482408D01*
X141223000Y-109757592D01*
X141276686Y-110027490D01*
X141381995Y-110281727D01*
X141534880Y-110510535D01*
X141729465Y-110705120D01*
X141958273Y-110858005D01*
X142029943Y-110887692D01*
X142016977Y-110892364D01*
X141901020Y-110954344D01*
X141834040Y-111194435D01*
X142620000Y-111980395D01*
X143405960Y-111194435D01*
X143338980Y-110954344D01*
X143203240Y-110890515D01*
X143281727Y-110858005D01*
X143510535Y-110705120D01*
X143705120Y-110510535D01*
X143858005Y-110281727D01*
X143963314Y-110027490D01*
X144017000Y-109757592D01*
X144017000Y-109482408D01*
X143963314Y-109212510D01*
X143858005Y-108958273D01*
X143705120Y-108729465D01*
X143510535Y-108534880D01*
X143281727Y-108381995D01*
X143204485Y-108350000D01*
X143281727Y-108318005D01*
X143510535Y-108165120D01*
X143705120Y-107970535D01*
X143858005Y-107741727D01*
X143963314Y-107487490D01*
X144017000Y-107217592D01*
X144017000Y-106942408D01*
X143986372Y-106788430D01*
X144261003Y-106513799D01*
X144290001Y-106490001D01*
X144384974Y-106374276D01*
X144455546Y-106242247D01*
X144499003Y-106098986D01*
X144510000Y-105987333D01*
X144510000Y-105987324D01*
X144513676Y-105950001D01*
X144510000Y-105912678D01*
X144510000Y-83787325D01*
X144513676Y-83750000D01*
X144510000Y-83712675D01*
X144510000Y-83712667D01*
X144499003Y-83601014D01*
X144455546Y-83457753D01*
X144384974Y-83325724D01*
X144290001Y-83209999D01*
X144261004Y-83186202D01*
X143238072Y-82163271D01*
X143238072Y-81000000D01*
X143225812Y-80875518D01*
X143189502Y-80755820D01*
X143130537Y-80645506D01*
X143051185Y-80548815D01*
X142954494Y-80469463D01*
X142844180Y-80410498D01*
X142724482Y-80374188D01*
X142600000Y-80361928D01*
X141400000Y-80361928D01*
X141275518Y-80374188D01*
X141155820Y-80410498D01*
X141045506Y-80469463D01*
X141000000Y-80506809D01*
X140954494Y-80469463D01*
X140844180Y-80410498D01*
X140724482Y-80374188D01*
X140600000Y-80361928D01*
X140285750Y-80365000D01*
X140127000Y-80523750D01*
X140127000Y-81873000D01*
X140147000Y-81873000D01*
X140147000Y-81882533D01*
X140127000Y-81895110D01*
X140127000Y-84104890D01*
X140323113Y-84228215D01*
X140556517Y-84141579D01*
X140768535Y-84011073D01*
X140951018Y-83841712D01*
X140994677Y-83781368D01*
X141013527Y-83809578D01*
X141190422Y-83986473D01*
X141398429Y-84125459D01*
X141629555Y-84221195D01*
X141874916Y-84270000D01*
X142125084Y-84270000D01*
X142370445Y-84221195D01*
X142601571Y-84125459D01*
X142809578Y-83986473D01*
X142860625Y-83935426D01*
X142990000Y-84064802D01*
X142990000Y-85409229D01*
X142757592Y-85363000D01*
X142482408Y-85363000D01*
X142212510Y-85416686D01*
X141958273Y-85521995D01*
X141729465Y-85674880D01*
X141534880Y-85869465D01*
X141381995Y-86098273D01*
X141350000Y-86175515D01*
X141318005Y-86098273D01*
X141165120Y-85869465D01*
X140970535Y-85674880D01*
X140741727Y-85521995D01*
X140487490Y-85416686D01*
X140217592Y-85363000D01*
X139942408Y-85363000D01*
X139672510Y-85416686D01*
X139418273Y-85521995D01*
X139387001Y-85542890D01*
X139387001Y-84106812D01*
X139443483Y-84141579D01*
X139676887Y-84228215D01*
X139873000Y-84104890D01*
X139873000Y-81895110D01*
X139853000Y-81882533D01*
X139853000Y-81873000D01*
X139873000Y-81873000D01*
X139873000Y-80523750D01*
X139714250Y-80365000D01*
X139400000Y-80361928D01*
X139275518Y-80374188D01*
X139155820Y-80410498D01*
X139045506Y-80469463D01*
X139000000Y-80506809D01*
X138954494Y-80469463D01*
X138844180Y-80410498D01*
X138724482Y-80374188D01*
X138600000Y-80361928D01*
X137400000Y-80361928D01*
X137275518Y-80374188D01*
X137155820Y-80410498D01*
X137045506Y-80469463D01*
X137000000Y-80506809D01*
X136954494Y-80469463D01*
X136844180Y-80410498D01*
X136724482Y-80374188D01*
X136600000Y-80361928D01*
X135400000Y-80361928D01*
X135275518Y-80374188D01*
X135155820Y-80410498D01*
X135045506Y-80469463D01*
X135000000Y-80506809D01*
X134954494Y-80469463D01*
X134844180Y-80410498D01*
X134724482Y-80374188D01*
X134600000Y-80361928D01*
X133400000Y-80361928D01*
X133275518Y-80374188D01*
X133155820Y-80410498D01*
X133045506Y-80469463D01*
X133000000Y-80506809D01*
X132954494Y-80469463D01*
X132844180Y-80410498D01*
X132724482Y-80374188D01*
X132600000Y-80361928D01*
X131400000Y-80361928D01*
X131275518Y-80374188D01*
X131155820Y-80410498D01*
X131045506Y-80469463D01*
X131000000Y-80506809D01*
X130954494Y-80469463D01*
X130844180Y-80410498D01*
X130724482Y-80374188D01*
X130600000Y-80361928D01*
X129400000Y-80361928D01*
X129275518Y-80374188D01*
X129155820Y-80410498D01*
X129045506Y-80469463D01*
X129000000Y-80506809D01*
X128954494Y-80469463D01*
X128844180Y-80410498D01*
X128724482Y-80374188D01*
X128600000Y-80361928D01*
X127799999Y-80361928D01*
X127799999Y-80161212D01*
X128536026Y-79425186D01*
X128565019Y-79401392D01*
X128588813Y-79372399D01*
X128588818Y-79372394D01*
X128659993Y-79285667D01*
X128730565Y-79153638D01*
X128774022Y-79010377D01*
X128788695Y-78861391D01*
X128785018Y-78824056D01*
X128785019Y-76338967D01*
X138615000Y-76338967D01*
X138615000Y-76661033D01*
X138677832Y-76976912D01*
X138801082Y-77274463D01*
X138980013Y-77542252D01*
X139207748Y-77769987D01*
X139475537Y-77948918D01*
X139773088Y-78072168D01*
X140088967Y-78135000D01*
X140411033Y-78135000D01*
X140726912Y-78072168D01*
X141024463Y-77948918D01*
X141292252Y-77769987D01*
X141519987Y-77542252D01*
X141698918Y-77274463D01*
X141822168Y-76976912D01*
X141885000Y-76661033D01*
X141885000Y-76338967D01*
X145115000Y-76338967D01*
X145115000Y-76661033D01*
X145177832Y-76976912D01*
X145301082Y-77274463D01*
X145480013Y-77542252D01*
X145707748Y-77769987D01*
X145975537Y-77948918D01*
X146273088Y-78072168D01*
X146588967Y-78135000D01*
X146911033Y-78135000D01*
X147226912Y-78072168D01*
X147524463Y-77948918D01*
X147792252Y-77769987D01*
X148019987Y-77542252D01*
X148198918Y-77274463D01*
X148322168Y-76976912D01*
X148385000Y-76661033D01*
X148385000Y-76338967D01*
X148322168Y-76023088D01*
X148198918Y-75725537D01*
X148019987Y-75457748D01*
X147792252Y-75230013D01*
X147524463Y-75051082D01*
X147226912Y-74927832D01*
X146911033Y-74865000D01*
X146588967Y-74865000D01*
X146273088Y-74927832D01*
X145975537Y-75051082D01*
X145707748Y-75230013D01*
X145480013Y-75457748D01*
X145301082Y-75725537D01*
X145177832Y-76023088D01*
X145115000Y-76338967D01*
X141885000Y-76338967D01*
X141822168Y-76023088D01*
X141698918Y-75725537D01*
X141519987Y-75457748D01*
X141292252Y-75230013D01*
X141024463Y-75051082D01*
X140726912Y-74927832D01*
X140411033Y-74865000D01*
X140088967Y-74865000D01*
X139773088Y-74927832D01*
X139475537Y-75051082D01*
X139207748Y-75230013D01*
X138980013Y-75457748D01*
X138801082Y-75725537D01*
X138677832Y-76023088D01*
X138615000Y-76338967D01*
X128785019Y-76338967D01*
X128785020Y-74719603D01*
X128843387Y-74688405D01*
X128977962Y-74577962D01*
X129000000Y-74551109D01*
X129022038Y-74577962D01*
X129156613Y-74688405D01*
X129310149Y-74770472D01*
X129476745Y-74821008D01*
X129649999Y-74838072D01*
X130350001Y-74838072D01*
X130523255Y-74821008D01*
X130689851Y-74770472D01*
X130843387Y-74688405D01*
X130977962Y-74577962D01*
X131088405Y-74443387D01*
X131170472Y-74289851D01*
X131179527Y-74260000D01*
X133462678Y-74260000D01*
X133500000Y-74263676D01*
X133537322Y-74260000D01*
X133537333Y-74260000D01*
X133648986Y-74249003D01*
X133792247Y-74205546D01*
X133924276Y-74134974D01*
X134040001Y-74040001D01*
X134063804Y-74010997D01*
X134591070Y-73483731D01*
X134848816Y-73535000D01*
X135151184Y-73535000D01*
X135447743Y-73476011D01*
X135727095Y-73360299D01*
X135978505Y-73192312D01*
X136106737Y-73064080D01*
X136655525Y-73064080D01*
X136739208Y-73318261D01*
X137011775Y-73449158D01*
X137304642Y-73524365D01*
X137606553Y-73540991D01*
X137905907Y-73498397D01*
X138191199Y-73398222D01*
X138340792Y-73318261D01*
X138400990Y-73135413D01*
X139294192Y-73135413D01*
X139389956Y-73399814D01*
X139679571Y-73540704D01*
X139991108Y-73622384D01*
X140312595Y-73641718D01*
X140631675Y-73597961D01*
X140936088Y-73492795D01*
X141110044Y-73399814D01*
X141205808Y-73135413D01*
X145794192Y-73135413D01*
X145889956Y-73399814D01*
X146179571Y-73540704D01*
X146491108Y-73622384D01*
X146812595Y-73641718D01*
X147131675Y-73597961D01*
X147415232Y-73500000D01*
X155561928Y-73500000D01*
X155574188Y-73624482D01*
X155610498Y-73744180D01*
X155669463Y-73854494D01*
X155748815Y-73951185D01*
X155845506Y-74030537D01*
X155955820Y-74089502D01*
X156075518Y-74125812D01*
X156200000Y-74138072D01*
X156714250Y-74135000D01*
X156873000Y-73976250D01*
X156873000Y-72537000D01*
X157127000Y-72537000D01*
X157127000Y-73976250D01*
X157285750Y-74135000D01*
X157800000Y-74138072D01*
X157924482Y-74125812D01*
X158044180Y-74089502D01*
X158154494Y-74030537D01*
X158251185Y-73951185D01*
X158330537Y-73854494D01*
X158389502Y-73744180D01*
X158425812Y-73624482D01*
X158438072Y-73500000D01*
X158435000Y-72695750D01*
X158276250Y-72537000D01*
X157127000Y-72537000D01*
X156873000Y-72537000D01*
X155723750Y-72537000D01*
X155565000Y-72695750D01*
X155561928Y-73500000D01*
X147415232Y-73500000D01*
X147436088Y-73492795D01*
X147610044Y-73399814D01*
X147705808Y-73135413D01*
X146750000Y-72179605D01*
X145794192Y-73135413D01*
X141205808Y-73135413D01*
X140250000Y-72179605D01*
X139294192Y-73135413D01*
X138400990Y-73135413D01*
X138424475Y-73064080D01*
X137540000Y-72179605D01*
X136655525Y-73064080D01*
X136106737Y-73064080D01*
X136192312Y-72978505D01*
X136294951Y-72824895D01*
X136475920Y-72884475D01*
X137360395Y-72000000D01*
X137719605Y-72000000D01*
X138604080Y-72884475D01*
X138824463Y-72811919D01*
X138850186Y-72860044D01*
X139114587Y-72955808D01*
X140070395Y-72000000D01*
X140429605Y-72000000D01*
X141385413Y-72955808D01*
X141649814Y-72860044D01*
X141790704Y-72570429D01*
X141872384Y-72258892D01*
X141884189Y-72062595D01*
X145108282Y-72062595D01*
X145152039Y-72381675D01*
X145257205Y-72686088D01*
X145350186Y-72860044D01*
X145614587Y-72955808D01*
X146570395Y-72000000D01*
X146929605Y-72000000D01*
X147885413Y-72955808D01*
X148149814Y-72860044D01*
X148290704Y-72570429D01*
X148372384Y-72258892D01*
X148391718Y-71937405D01*
X148347961Y-71618325D01*
X148244899Y-71320000D01*
X155561928Y-71320000D01*
X155565000Y-72124250D01*
X155723750Y-72283000D01*
X156873000Y-72283000D01*
X156873000Y-70843750D01*
X157127000Y-70843750D01*
X157127000Y-72283000D01*
X158276250Y-72283000D01*
X158435000Y-72124250D01*
X158438072Y-71320000D01*
X158425812Y-71195518D01*
X158389502Y-71075820D01*
X158330537Y-70965506D01*
X158251185Y-70868815D01*
X158154494Y-70789463D01*
X158044180Y-70730498D01*
X157924482Y-70694188D01*
X157800000Y-70681928D01*
X157285750Y-70685000D01*
X157127000Y-70843750D01*
X156873000Y-70843750D01*
X156714250Y-70685000D01*
X156200000Y-70681928D01*
X156075518Y-70694188D01*
X155955820Y-70730498D01*
X155845506Y-70789463D01*
X155748815Y-70868815D01*
X155669463Y-70965506D01*
X155610498Y-71075820D01*
X155574188Y-71195518D01*
X155561928Y-71320000D01*
X148244899Y-71320000D01*
X148242795Y-71313912D01*
X148149814Y-71139956D01*
X147885413Y-71044192D01*
X146929605Y-72000000D01*
X146570395Y-72000000D01*
X145614587Y-71044192D01*
X145350186Y-71139956D01*
X145209296Y-71429571D01*
X145127616Y-71741108D01*
X145108282Y-72062595D01*
X141884189Y-72062595D01*
X141891718Y-71937405D01*
X141847961Y-71618325D01*
X141742795Y-71313912D01*
X141649814Y-71139956D01*
X141385413Y-71044192D01*
X140429605Y-72000000D01*
X140070395Y-72000000D01*
X139114587Y-71044192D01*
X138850186Y-71139956D01*
X138826455Y-71188737D01*
X138604080Y-71115525D01*
X137719605Y-72000000D01*
X137360395Y-72000000D01*
X136475920Y-71115525D01*
X136294951Y-71175105D01*
X136192312Y-71021495D01*
X135978505Y-70807688D01*
X135757475Y-70660000D01*
X136779878Y-70660000D01*
X136739208Y-70681739D01*
%TA.AperFunction,Conductor*%
D24*
G36*
X136739208Y-70681739D02*
G01*
X136655525Y-70935920D01*
X137540000Y-71820395D01*
X138424475Y-70935920D01*
X138340792Y-70681739D01*
X138295525Y-70660000D01*
X139368292Y-70660000D01*
X139294192Y-70864587D01*
X140250000Y-71820395D01*
X141205808Y-70864587D01*
X141131708Y-70660000D01*
X145868292Y-70660000D01*
X145794192Y-70864587D01*
X146750000Y-71820395D01*
X147705808Y-70864587D01*
X147631708Y-70660000D01*
X159340000Y-70660000D01*
X159340001Y-119340000D01*
X119747624Y-119340000D01*
X119831680Y-119314502D01*
X119941994Y-119255537D01*
X120038685Y-119176185D01*
X120118037Y-119079494D01*
X120177002Y-118969180D01*
X120213312Y-118849482D01*
X120225572Y-118725000D01*
X120222500Y-118285750D01*
X120063750Y-118127000D01*
X119127000Y-118127000D01*
X119127000Y-118147000D01*
X118873000Y-118147000D01*
X118873000Y-118127000D01*
X118853000Y-118127000D01*
X118853000Y-117873000D01*
X118873000Y-117873000D01*
X118873000Y-116798750D01*
X119127000Y-116798750D01*
X119127000Y-117873000D01*
X120063750Y-117873000D01*
X120222500Y-117714250D01*
X120225572Y-117275000D01*
X120213312Y-117150518D01*
X120177002Y-117030820D01*
X120118037Y-116920506D01*
X120038685Y-116823815D01*
X119941994Y-116744463D01*
X119831680Y-116685498D01*
X119711982Y-116649188D01*
X119587500Y-116636928D01*
X119285750Y-116640000D01*
X119127000Y-116798750D01*
X118873000Y-116798750D01*
X118714250Y-116640000D01*
X118412500Y-116636928D01*
X118288018Y-116649188D01*
X118168320Y-116685498D01*
X118058006Y-116744463D01*
X117961315Y-116823815D01*
X117895842Y-116903594D01*
X117890462Y-116897038D01*
X117885000Y-116892555D01*
X117885000Y-116635001D01*
X141407677Y-116635001D01*
X141444999Y-116638677D01*
X141482321Y-116635001D01*
X141482332Y-116635001D01*
X141593985Y-116624004D01*
X141737246Y-116580547D01*
X141869275Y-116509975D01*
X141985000Y-116415002D01*
X142008803Y-116385998D01*
X142328430Y-116066372D01*
X142482408Y-116097000D01*
X142757592Y-116097000D01*
X143027490Y-116043314D01*
X143281727Y-115938005D01*
X143510535Y-115785120D01*
X143705120Y-115590535D01*
X143792341Y-115460000D01*
X150061928Y-115460000D01*
X150061928Y-115550000D01*
X150074188Y-115674482D01*
X150110498Y-115794180D01*
X150169463Y-115904494D01*
X150248815Y-116001185D01*
X150345506Y-116080537D01*
X150365000Y-116090957D01*
X150365001Y-116430306D01*
X150285150Y-116454528D01*
X150131614Y-116536595D01*
X149997038Y-116647038D01*
X149886595Y-116781614D01*
X149804528Y-116935150D01*
X149753992Y-117101746D01*
X149736928Y-117275000D01*
X149736928Y-118225000D01*
X149753992Y-118398254D01*
X149804528Y-118564850D01*
X149886595Y-118718386D01*
X149997038Y-118852962D01*
X150131614Y-118963405D01*
X150285150Y-119045472D01*
X150451746Y-119096008D01*
X150625000Y-119113072D01*
X151300000Y-119113072D01*
X151473254Y-119096008D01*
X151639850Y-119045472D01*
X151793386Y-118963405D01*
X151927962Y-118852962D01*
X151933342Y-118846406D01*
X151998815Y-118926185D01*
X152095506Y-119005537D01*
X152205820Y-119064502D01*
X152325518Y-119100812D01*
X152450000Y-119113072D01*
X152751750Y-119110000D01*
X152910500Y-118951250D01*
X152910500Y-117877000D01*
X153164500Y-117877000D01*
X153164500Y-118951250D01*
X153323250Y-119110000D01*
X153625000Y-119113072D01*
X153749482Y-119100812D01*
X153869180Y-119064502D01*
X153979494Y-119005537D01*
X154076185Y-118926185D01*
X154155537Y-118829494D01*
X154214502Y-118719180D01*
X154226387Y-118680000D01*
X155561928Y-118680000D01*
X155574188Y-118804482D01*
X155610498Y-118924180D01*
X155669463Y-119034494D01*
X155748815Y-119131185D01*
X155845506Y-119210537D01*
X155955820Y-119269502D01*
X156075518Y-119305812D01*
X156200000Y-119318072D01*
X156714250Y-119315000D01*
X156873000Y-119156250D01*
X156873000Y-117717000D01*
X157127000Y-117717000D01*
X157127000Y-119156250D01*
X157285750Y-119315000D01*
X157800000Y-119318072D01*
X157924482Y-119305812D01*
X158044180Y-119269502D01*
X158154494Y-119210537D01*
X158251185Y-119131185D01*
X158330537Y-119034494D01*
X158389502Y-118924180D01*
X158425812Y-118804482D01*
X158438072Y-118680000D01*
X158435000Y-117875750D01*
X158276250Y-117717000D01*
X157127000Y-117717000D01*
X156873000Y-117717000D01*
X155723750Y-117717000D01*
X155565000Y-117875750D01*
X155561928Y-118680000D01*
X154226387Y-118680000D01*
X154250812Y-118599482D01*
X154263072Y-118475000D01*
X154260000Y-118035750D01*
X154101250Y-117877000D01*
X153164500Y-117877000D01*
X152910500Y-117877000D01*
X152890500Y-117877000D01*
X152890500Y-117623000D01*
X152910500Y-117623000D01*
X152910500Y-116548750D01*
X153164500Y-116548750D01*
X153164500Y-117623000D01*
X154101250Y-117623000D01*
X154260000Y-117464250D01*
X154263072Y-117025000D01*
X154250812Y-116900518D01*
X154214502Y-116780820D01*
X154155537Y-116670506D01*
X154076185Y-116573815D01*
X153986241Y-116500000D01*
X155561928Y-116500000D01*
X155565000Y-117304250D01*
X155723750Y-117463000D01*
X156873000Y-117463000D01*
X156873000Y-116023750D01*
X157127000Y-116023750D01*
X157127000Y-117463000D01*
X158276250Y-117463000D01*
X158435000Y-117304250D01*
X158438072Y-116500000D01*
X158425812Y-116375518D01*
X158389502Y-116255820D01*
X158330537Y-116145506D01*
X158251185Y-116048815D01*
X158154494Y-115969463D01*
X158044180Y-115910498D01*
X157924482Y-115874188D01*
X157800000Y-115861928D01*
X157285750Y-115865000D01*
X157127000Y-116023750D01*
X156873000Y-116023750D01*
X156714250Y-115865000D01*
X156200000Y-115861928D01*
X156075518Y-115874188D01*
X155955820Y-115910498D01*
X155845506Y-115969463D01*
X155748815Y-116048815D01*
X155669463Y-116145506D01*
X155610498Y-116255820D01*
X155574188Y-116375518D01*
X155561928Y-116500000D01*
X153986241Y-116500000D01*
X153979494Y-116494463D01*
X153869180Y-116435498D01*
X153749482Y-116399188D01*
X153625000Y-116386928D01*
X153323250Y-116390000D01*
X153164500Y-116548750D01*
X152910500Y-116548750D01*
X152751750Y-116390000D01*
X152450000Y-116386928D01*
X152325518Y-116399188D01*
X152205820Y-116435498D01*
X152095506Y-116494463D01*
X151998815Y-116573815D01*
X151933342Y-116653594D01*
X151927962Y-116647038D01*
X151885000Y-116611780D01*
X151885000Y-116090957D01*
X151904494Y-116080537D01*
X152000000Y-116002158D01*
X152095506Y-116080537D01*
X152205820Y-116139502D01*
X152325518Y-116175812D01*
X152450000Y-116188072D01*
X153300000Y-116188072D01*
X153424482Y-116175812D01*
X153544180Y-116139502D01*
X153654494Y-116080537D01*
X153751185Y-116001185D01*
X153830537Y-115904494D01*
X153889502Y-115794180D01*
X153925812Y-115674482D01*
X153938072Y-115550000D01*
X153938072Y-113950000D01*
X153925812Y-113825518D01*
X153889502Y-113705820D01*
X153830537Y-113595506D01*
X153751185Y-113498815D01*
X153654494Y-113419463D01*
X153544180Y-113360498D01*
X153424482Y-113324188D01*
X153300000Y-113311928D01*
X152450000Y-113311928D01*
X152325518Y-113324188D01*
X152205820Y-113360498D01*
X152095506Y-113419463D01*
X152000000Y-113497842D01*
X151904494Y-113419463D01*
X151794180Y-113360498D01*
X151674482Y-113324188D01*
X151550000Y-113311928D01*
X151134999Y-113311928D01*
X151134999Y-112688072D01*
X151550000Y-112688072D01*
X151674482Y-112675812D01*
X151794180Y-112639502D01*
X151904494Y-112580537D01*
X152000000Y-112502158D01*
X152095506Y-112580537D01*
X152205820Y-112639502D01*
X152325518Y-112675812D01*
X152450000Y-112688072D01*
X152589250Y-112685000D01*
X152748000Y-112526250D01*
X152748000Y-111377000D01*
X153002000Y-111377000D01*
X153002000Y-112526250D01*
X153160750Y-112685000D01*
X153300000Y-112688072D01*
X153424482Y-112675812D01*
X153544180Y-112639502D01*
X153654494Y-112580537D01*
X153751185Y-112501185D01*
X153830537Y-112404494D01*
X153889502Y-112294180D01*
X153925812Y-112174482D01*
X153938072Y-112050000D01*
X153935000Y-111535750D01*
X153776250Y-111377000D01*
X153002000Y-111377000D01*
X152748000Y-111377000D01*
X152728000Y-111377000D01*
X152728000Y-111123000D01*
X152748000Y-111123000D01*
X152748000Y-111103000D01*
X153002000Y-111103000D01*
X153002000Y-111123000D01*
X153776250Y-111123000D01*
X153935000Y-110964250D01*
X153938072Y-110450000D01*
X153925812Y-110325518D01*
X153889502Y-110205820D01*
X153830537Y-110095506D01*
X153751185Y-109998815D01*
X153654494Y-109919463D01*
X153544180Y-109860498D01*
X153424482Y-109824188D01*
X153300000Y-109811928D01*
X153160750Y-109815000D01*
X153002002Y-109973748D01*
X153002002Y-109815000D01*
X152884990Y-109815000D01*
X152884990Y-107320000D01*
X155561928Y-107320000D01*
X155561928Y-109500000D01*
X155574188Y-109624482D01*
X155610498Y-109744180D01*
X155669463Y-109854494D01*
X155748815Y-109951185D01*
X155845506Y-110030537D01*
X155955820Y-110089502D01*
X156075518Y-110125812D01*
X156200000Y-110138072D01*
X157800000Y-110138072D01*
X157924482Y-110125812D01*
X158044180Y-110089502D01*
X158154494Y-110030537D01*
X158251185Y-109951185D01*
X158330537Y-109854494D01*
X158389502Y-109744180D01*
X158425812Y-109624482D01*
X158438072Y-109500000D01*
X158438072Y-107320000D01*
X158425812Y-107195518D01*
X158389502Y-107075820D01*
X158330537Y-106965506D01*
X158251185Y-106868815D01*
X158154494Y-106789463D01*
X158044180Y-106730498D01*
X157924482Y-106694188D01*
X157914879Y-106693242D01*
X157935000Y-106592089D01*
X157935000Y-106407911D01*
X157899068Y-106227271D01*
X157828586Y-106057111D01*
X157726262Y-105903972D01*
X157596028Y-105773738D01*
X157442889Y-105671414D01*
X157272729Y-105600932D01*
X157092089Y-105565000D01*
X156907911Y-105565000D01*
X156727271Y-105600932D01*
X156557111Y-105671414D01*
X156403972Y-105773738D01*
X156273738Y-105903972D01*
X156171414Y-106057111D01*
X156100932Y-106227271D01*
X156065000Y-106407911D01*
X156065000Y-106592089D01*
X156085121Y-106693242D01*
X156075518Y-106694188D01*
X155955820Y-106730498D01*
X155845506Y-106789463D01*
X155748815Y-106868815D01*
X155669463Y-106965506D01*
X155610498Y-107075820D01*
X155574188Y-107195518D01*
X155561928Y-107320000D01*
X152884990Y-107320000D01*
X152884990Y-101226760D01*
X152910500Y-101201250D01*
X152910500Y-100127000D01*
X153164500Y-100127000D01*
X153164500Y-101201250D01*
X153323250Y-101360000D01*
X153625000Y-101363072D01*
X153749482Y-101350812D01*
X153869180Y-101314502D01*
X153979494Y-101255537D01*
X154076185Y-101176185D01*
X154155537Y-101079494D01*
X154214502Y-100969180D01*
X154250812Y-100849482D01*
X154263072Y-100725000D01*
X154260000Y-100285750D01*
X154101250Y-100127000D01*
X153164500Y-100127000D01*
X152910500Y-100127000D01*
X152890500Y-100127000D01*
X152890500Y-99873000D01*
X152910500Y-99873000D01*
X152910500Y-98798750D01*
X153164500Y-98798750D01*
X153164500Y-99873000D01*
X154101250Y-99873000D01*
X154260000Y-99714250D01*
X154263072Y-99275000D01*
X154250812Y-99150518D01*
X154214502Y-99030820D01*
X154155537Y-98920506D01*
X154076185Y-98823815D01*
X153979494Y-98744463D01*
X153869180Y-98685498D01*
X153749482Y-98649188D01*
X153625000Y-98636928D01*
X153323250Y-98640000D01*
X153164500Y-98798750D01*
X152910500Y-98798750D01*
X152884990Y-98773240D01*
X152884990Y-98500000D01*
X155561928Y-98500000D01*
X155561928Y-100680000D01*
X155574188Y-100804482D01*
X155610498Y-100924180D01*
X155669463Y-101034494D01*
X155748815Y-101131185D01*
X155845506Y-101210537D01*
X155955820Y-101269502D01*
X156075518Y-101305812D01*
X156085121Y-101306758D01*
X156065000Y-101407911D01*
X156065000Y-101592089D01*
X156100932Y-101772729D01*
X156171414Y-101942889D01*
X156273738Y-102096028D01*
X156403972Y-102226262D01*
X156557111Y-102328586D01*
X156727271Y-102399068D01*
X156907911Y-102435000D01*
X157092089Y-102435000D01*
X157272729Y-102399068D01*
X157442889Y-102328586D01*
X157596028Y-102226262D01*
X157726262Y-102096028D01*
X157828586Y-101942889D01*
X157899068Y-101772729D01*
X157935000Y-101592089D01*
X157935000Y-101407911D01*
X157914879Y-101306758D01*
X157924482Y-101305812D01*
X158044180Y-101269502D01*
X158154494Y-101210537D01*
X158251185Y-101131185D01*
X158330537Y-101034494D01*
X158389502Y-100924180D01*
X158425812Y-100804482D01*
X158438072Y-100680000D01*
X158438072Y-98500000D01*
X158425812Y-98375518D01*
X158389502Y-98255820D01*
X158330537Y-98145506D01*
X158251185Y-98048815D01*
X158154494Y-97969463D01*
X158044180Y-97910498D01*
X157924482Y-97874188D01*
X157800000Y-97861928D01*
X156200000Y-97861928D01*
X156075518Y-97874188D01*
X155955820Y-97910498D01*
X155845506Y-97969463D01*
X155748815Y-98048815D01*
X155669463Y-98145506D01*
X155610498Y-98255820D01*
X155574188Y-98375518D01*
X155561928Y-98500000D01*
X152884990Y-98500000D01*
X152884990Y-98188072D01*
X153300000Y-98188072D01*
X153424482Y-98175812D01*
X153544180Y-98139502D01*
X153654494Y-98080537D01*
X153751185Y-98001185D01*
X153830537Y-97904494D01*
X153889502Y-97794180D01*
X153925812Y-97674482D01*
X153938072Y-97550000D01*
X153938072Y-95950000D01*
X153925812Y-95825518D01*
X153889502Y-95705820D01*
X153830537Y-95595506D01*
X153751185Y-95498815D01*
X153654494Y-95419463D01*
X153544180Y-95360498D01*
X153424482Y-95324188D01*
X153300000Y-95311928D01*
X152450000Y-95311928D01*
X152325518Y-95324188D01*
X152205820Y-95360498D01*
X152095506Y-95419463D01*
X152000000Y-95497842D01*
X151904494Y-95419463D01*
X151794180Y-95360498D01*
X151674482Y-95324188D01*
X151550000Y-95311928D01*
X151134999Y-95311928D01*
X151134999Y-94688072D01*
X151550000Y-94688072D01*
X151674482Y-94675812D01*
X151794180Y-94639502D01*
X151904494Y-94580537D01*
X152000000Y-94502158D01*
X152095506Y-94580537D01*
X152205820Y-94639502D01*
X152325518Y-94675812D01*
X152450000Y-94688072D01*
X152589250Y-94685000D01*
X152748000Y-94526250D01*
X152748000Y-93377000D01*
X153002000Y-93377000D01*
X153002000Y-94526250D01*
X153160750Y-94685000D01*
X153300000Y-94688072D01*
X153424482Y-94675812D01*
X153544180Y-94639502D01*
X153654494Y-94580537D01*
X153751185Y-94501185D01*
X153830537Y-94404494D01*
X153889502Y-94294180D01*
X153925812Y-94174482D01*
X153938072Y-94050000D01*
X153935000Y-93535750D01*
X153776250Y-93377000D01*
X153002000Y-93377000D01*
X152748000Y-93377000D01*
X152728000Y-93377000D01*
X152728000Y-93123000D01*
X152748000Y-93123000D01*
X152748000Y-91973750D01*
X153002000Y-91973750D01*
X153002000Y-93123000D01*
X153776250Y-93123000D01*
X153935000Y-92964250D01*
X153938072Y-92450000D01*
X153925812Y-92325518D01*
X153889502Y-92205820D01*
X153830537Y-92095506D01*
X153751185Y-91998815D01*
X153654494Y-91919463D01*
X153544180Y-91860498D01*
X153424482Y-91824188D01*
X153300000Y-91811928D01*
X153160750Y-91815000D01*
X153002000Y-91973750D01*
X152748000Y-91973750D01*
X152635010Y-91860760D01*
X152635010Y-91500000D01*
X155561928Y-91500000D01*
X155574188Y-91624482D01*
X155610498Y-91744180D01*
X155669463Y-91854494D01*
X155748815Y-91951185D01*
X155845506Y-92030537D01*
X155955820Y-92089502D01*
X156075518Y-92125812D01*
X156200000Y-92138072D01*
X156714250Y-92135000D01*
X156873000Y-91976250D01*
X156873000Y-90537000D01*
X157127000Y-90537000D01*
X157127000Y-91976250D01*
X157285750Y-92135000D01*
X157800000Y-92138072D01*
X157924482Y-92125812D01*
X158044180Y-92089502D01*
X158154494Y-92030537D01*
X158251185Y-91951185D01*
X158330537Y-91854494D01*
X158389502Y-91744180D01*
X158425812Y-91624482D01*
X158438072Y-91500000D01*
X158435000Y-90695750D01*
X158276250Y-90537000D01*
X157127000Y-90537000D01*
X156873000Y-90537000D01*
X155723750Y-90537000D01*
X155565000Y-90695750D01*
X155561928Y-91500000D01*
X152635010Y-91500000D01*
X152635010Y-89320000D01*
X155561928Y-89320000D01*
X155565000Y-90124250D01*
X155723750Y-90283000D01*
X156873000Y-90283000D01*
X156873000Y-88843750D01*
X157127000Y-88843750D01*
X157127000Y-90283000D01*
X158276250Y-90283000D01*
X158435000Y-90124250D01*
X158438072Y-89320000D01*
X158425812Y-89195518D01*
X158389502Y-89075820D01*
X158330537Y-88965506D01*
X158251185Y-88868815D01*
X158154494Y-88789463D01*
X158044180Y-88730498D01*
X157924482Y-88694188D01*
X157800000Y-88681928D01*
X157285750Y-88685000D01*
X157127000Y-88843750D01*
X156873000Y-88843750D01*
X156714250Y-88685000D01*
X156200000Y-88681928D01*
X156075518Y-88694188D01*
X155955820Y-88730498D01*
X155845506Y-88789463D01*
X155748815Y-88868815D01*
X155669463Y-88965506D01*
X155610498Y-89075820D01*
X155574188Y-89195518D01*
X155561928Y-89320000D01*
X152635010Y-89320000D01*
X152635010Y-83361188D01*
X152751750Y-83360000D01*
X152910500Y-83201250D01*
X152910500Y-82127000D01*
X153164500Y-82127000D01*
X153164500Y-83201250D01*
X153323250Y-83360000D01*
X153625000Y-83363072D01*
X153749482Y-83350812D01*
X153869180Y-83314502D01*
X153979494Y-83255537D01*
X154076185Y-83176185D01*
X154155537Y-83079494D01*
X154214502Y-82969180D01*
X154250812Y-82849482D01*
X154263072Y-82725000D01*
X154260000Y-82285750D01*
X154101250Y-82127000D01*
X153164500Y-82127000D01*
X152910500Y-82127000D01*
X152890500Y-82127000D01*
X152890500Y-81873000D01*
X152910500Y-81873000D01*
X152910500Y-81853000D01*
X153164500Y-81853000D01*
X153164500Y-81873000D01*
X154101250Y-81873000D01*
X154260000Y-81714250D01*
X154263072Y-81275000D01*
X154250812Y-81150518D01*
X154214502Y-81030820D01*
X154155537Y-80920506D01*
X154076185Y-80823815D01*
X153979494Y-80744463D01*
X153869180Y-80685498D01*
X153749482Y-80649188D01*
X153625000Y-80636928D01*
X153323250Y-80640000D01*
X153164502Y-80798748D01*
X153164502Y-80660301D01*
X153324803Y-80500000D01*
X155561928Y-80500000D01*
X155561928Y-82680000D01*
X155574188Y-82804482D01*
X155610498Y-82924180D01*
X155669463Y-83034494D01*
X155748815Y-83131185D01*
X155845506Y-83210537D01*
X155955820Y-83269502D01*
X156075518Y-83305812D01*
X156085121Y-83306758D01*
X156065000Y-83407911D01*
X156065000Y-83592089D01*
X156100932Y-83772729D01*
X156171414Y-83942889D01*
X156273738Y-84096028D01*
X156403972Y-84226262D01*
X156557111Y-84328586D01*
X156727271Y-84399068D01*
X156907911Y-84435000D01*
X157092089Y-84435000D01*
X157272729Y-84399068D01*
X157442889Y-84328586D01*
X157596028Y-84226262D01*
X157726262Y-84096028D01*
X157828586Y-83942889D01*
X157899068Y-83772729D01*
X157935000Y-83592089D01*
X157935000Y-83407911D01*
X157914879Y-83306758D01*
X157924482Y-83305812D01*
X158044180Y-83269502D01*
X158154494Y-83210537D01*
X158251185Y-83131185D01*
X158330537Y-83034494D01*
X158389502Y-82924180D01*
X158425812Y-82804482D01*
X158438072Y-82680000D01*
X158438072Y-80500000D01*
X158425812Y-80375518D01*
X158389502Y-80255820D01*
X158330537Y-80145506D01*
X158251185Y-80048815D01*
X158154494Y-79969463D01*
X158044180Y-79910498D01*
X157924482Y-79874188D01*
X157800000Y-79861928D01*
X156200000Y-79861928D01*
X156075518Y-79874188D01*
X155955820Y-79910498D01*
X155845506Y-79969463D01*
X155748815Y-80048815D01*
X155669463Y-80145506D01*
X155610498Y-80255820D01*
X155574188Y-80375518D01*
X155561928Y-80500000D01*
X153324803Y-80500000D01*
X153386008Y-80438795D01*
X153415001Y-80415001D01*
X153438795Y-80386008D01*
X153438799Y-80386004D01*
X153509973Y-80299277D01*
X153509974Y-80299276D01*
X153580546Y-80167247D01*
X153597628Y-80110933D01*
X153654494Y-80080537D01*
X153751185Y-80001185D01*
X153830537Y-79904494D01*
X153889502Y-79794180D01*
X153925812Y-79674482D01*
X153938072Y-79550000D01*
X153938072Y-77950000D01*
X153925812Y-77825518D01*
X153889502Y-77705820D01*
X153830537Y-77595506D01*
X153751185Y-77498815D01*
X153654494Y-77419463D01*
X153544180Y-77360498D01*
X153424482Y-77324188D01*
X153300000Y-77311928D01*
X152450000Y-77311928D01*
X152325518Y-77324188D01*
X152205820Y-77360498D01*
X152095506Y-77419463D01*
X152000000Y-77497842D01*
X151904494Y-77419463D01*
X151794180Y-77360498D01*
X151674482Y-77324188D01*
X151550000Y-77311928D01*
X150700000Y-77311928D01*
X150575518Y-77324188D01*
X150455820Y-77360498D01*
X150345506Y-77419463D01*
X150260000Y-77489636D01*
X150260000Y-77189801D01*
X150761729Y-76688072D01*
X151550000Y-76688072D01*
X151674482Y-76675812D01*
X151794180Y-76639502D01*
X151904494Y-76580537D01*
X152000000Y-76502158D01*
X152095506Y-76580537D01*
X152205820Y-76639502D01*
X152325518Y-76675812D01*
X152450000Y-76688072D01*
X152589250Y-76685000D01*
X152748000Y-76526250D01*
X152748000Y-75377000D01*
X153002000Y-75377000D01*
X153002000Y-76526250D01*
X153160750Y-76685000D01*
X153300000Y-76688072D01*
X153424482Y-76675812D01*
X153544180Y-76639502D01*
X153654494Y-76580537D01*
X153751185Y-76501185D01*
X153830537Y-76404494D01*
X153889502Y-76294180D01*
X153925812Y-76174482D01*
X153938072Y-76050000D01*
X153935000Y-75535750D01*
X153776250Y-75377000D01*
X153002000Y-75377000D01*
X152748000Y-75377000D01*
X152728000Y-75377000D01*
X152728000Y-75123000D01*
X152748000Y-75123000D01*
X152748000Y-73973750D01*
X153002000Y-73973750D01*
X153002000Y-75123000D01*
X153776250Y-75123000D01*
X153935000Y-74964250D01*
X153938072Y-74450000D01*
X153925812Y-74325518D01*
X153889502Y-74205820D01*
X153830537Y-74095506D01*
X153751185Y-73998815D01*
X153654494Y-73919463D01*
X153544180Y-73860498D01*
X153424482Y-73824188D01*
X153300000Y-73811928D01*
X153160750Y-73815000D01*
X153002000Y-73973750D01*
X152748000Y-73973750D01*
X152589250Y-73815000D01*
X152450000Y-73811928D01*
X152325518Y-73824188D01*
X152205820Y-73860498D01*
X152095506Y-73919463D01*
X152000000Y-73997842D01*
X151904494Y-73919463D01*
X151794180Y-73860498D01*
X151674482Y-73824188D01*
X151550000Y-73811928D01*
X150700000Y-73811928D01*
X150575518Y-73824188D01*
X150455820Y-73860498D01*
X150345506Y-73919463D01*
X150248815Y-73998815D01*
X150169463Y-74095506D01*
X150110498Y-74205820D01*
X150074188Y-74325518D01*
X150061928Y-74450000D01*
X150061928Y-75238270D01*
X148989003Y-76311196D01*
X148959999Y-76334999D01*
X148922395Y-76380820D01*
X148865026Y-76450724D01*
X148824937Y-76525725D01*
X148794454Y-76582754D01*
X148750997Y-76726015D01*
X148740000Y-76837668D01*
X148740000Y-76837678D01*
X148736324Y-76875000D01*
X148740000Y-76912322D01*
X148740001Y-106573959D01*
X143842126Y-111471834D01*
X143825656Y-111441020D01*
X143585565Y-111374040D01*
X142799605Y-112160000D01*
X142813748Y-112174143D01*
X142634143Y-112353748D01*
X142620000Y-112339605D01*
X142605858Y-112353748D01*
X142426253Y-112174143D01*
X142440395Y-112160000D01*
X141654435Y-111374040D01*
X141414344Y-111441020D01*
X141297244Y-111690048D01*
X141230977Y-111957135D01*
X141218090Y-112232017D01*
X141259078Y-112504133D01*
X141352364Y-112763023D01*
X141400457Y-112852999D01*
X128597110Y-112852999D01*
X128618005Y-112821727D01*
X128723314Y-112567490D01*
X128777000Y-112297592D01*
X128777000Y-112022408D01*
X128723314Y-111752510D01*
X128618005Y-111498273D01*
X128465120Y-111269465D01*
X128270535Y-111074880D01*
X128041727Y-110921995D01*
X127964485Y-110890000D01*
X128041727Y-110858005D01*
X128270535Y-110705120D01*
X128465120Y-110510535D01*
X128618005Y-110281727D01*
X128723314Y-110027490D01*
X128777000Y-109757592D01*
X128777000Y-109482408D01*
X128723314Y-109212510D01*
X128618005Y-108958273D01*
X128465120Y-108729465D01*
X128270535Y-108534880D01*
X128041727Y-108381995D01*
X127970057Y-108352308D01*
X127983023Y-108347636D01*
X128098980Y-108285656D01*
X128165960Y-108045565D01*
X127380000Y-107259605D01*
X126594040Y-108045565D01*
X126661020Y-108285656D01*
X126796760Y-108349485D01*
X126718273Y-108381995D01*
X126489465Y-108534880D01*
X126294880Y-108729465D01*
X126141995Y-108958273D01*
X126036686Y-109212510D01*
X125983000Y-109482408D01*
X125983000Y-109757592D01*
X126036686Y-110027490D01*
X126141995Y-110281727D01*
X126294880Y-110510535D01*
X126489465Y-110705120D01*
X126718273Y-110858005D01*
X126795515Y-110890000D01*
X126718273Y-110921995D01*
X126489465Y-111074880D01*
X126294880Y-111269465D01*
X126141995Y-111498273D01*
X126036686Y-111752510D01*
X125983000Y-112022408D01*
X125983000Y-112297592D01*
X126036686Y-112567490D01*
X126141995Y-112821727D01*
X126162890Y-112852999D01*
X120049323Y-112852999D01*
X120012000Y-112849323D01*
X119974677Y-112852999D01*
X119974668Y-112852999D01*
X119863015Y-112863996D01*
X119719754Y-112907453D01*
X119587725Y-112978025D01*
X119472000Y-113072998D01*
X119448202Y-113101996D01*
X119238270Y-113311928D01*
X118450000Y-113311928D01*
X118325518Y-113324188D01*
X118205820Y-113360498D01*
X118095506Y-113419463D01*
X118000000Y-113497842D01*
X117904494Y-113419463D01*
X117794180Y-113360498D01*
X117674482Y-113324188D01*
X117550000Y-113311928D01*
X117134999Y-113311928D01*
X117134999Y-112688072D01*
X117550000Y-112688072D01*
X117674482Y-112675812D01*
X117794180Y-112639502D01*
X117904494Y-112580537D01*
X118000000Y-112502158D01*
X118095506Y-112580537D01*
X118205820Y-112639502D01*
X118325518Y-112675812D01*
X118450000Y-112688072D01*
X118589250Y-112685000D01*
X118748000Y-112526250D01*
X118748000Y-111377000D01*
X119002000Y-111377000D01*
X119002000Y-112526250D01*
X119160750Y-112685000D01*
X119300000Y-112688072D01*
X119424482Y-112675812D01*
X119544180Y-112639502D01*
X119654494Y-112580537D01*
X119751185Y-112501185D01*
X119830537Y-112404494D01*
X119889502Y-112294180D01*
X119925812Y-112174482D01*
X119938072Y-112050000D01*
X119935000Y-111535750D01*
X119776250Y-111377000D01*
X119002000Y-111377000D01*
X118748000Y-111377000D01*
X118728000Y-111377000D01*
X118728000Y-111123000D01*
X118748000Y-111123000D01*
X118748000Y-111103000D01*
X119002000Y-111103000D01*
X119002000Y-111123000D01*
X119776250Y-111123000D01*
X119935000Y-110964250D01*
X119938072Y-110450000D01*
X119925812Y-110325518D01*
X119889502Y-110205820D01*
X119830537Y-110095506D01*
X119751185Y-109998815D01*
X119654494Y-109919463D01*
X119544180Y-109860498D01*
X119424482Y-109824188D01*
X119300000Y-109811928D01*
X119160750Y-109815000D01*
X119002002Y-109973748D01*
X119002002Y-109815000D01*
X118884990Y-109815000D01*
X118884990Y-107152017D01*
X125978090Y-107152017D01*
X126019078Y-107424133D01*
X126112364Y-107683023D01*
X126174344Y-107798980D01*
X126414435Y-107865960D01*
X127200395Y-107080000D01*
X127559605Y-107080000D01*
X128345565Y-107865960D01*
X128585656Y-107798980D01*
X128702756Y-107549952D01*
X128769023Y-107282865D01*
X128781910Y-107007983D01*
X128740922Y-106735867D01*
X128647636Y-106476977D01*
X128585656Y-106361020D01*
X128345565Y-106294040D01*
X127559605Y-107080000D01*
X127200395Y-107080000D01*
X126414435Y-106294040D01*
X126174344Y-106361020D01*
X126057244Y-106610048D01*
X125990977Y-106877135D01*
X125978090Y-107152017D01*
X118884990Y-107152017D01*
X118884990Y-101226760D01*
X118910500Y-101201250D01*
X118910500Y-100127000D01*
X119164500Y-100127000D01*
X119164500Y-101201250D01*
X119323250Y-101360000D01*
X119625000Y-101363072D01*
X119749482Y-101350812D01*
X119869180Y-101314502D01*
X119979494Y-101255537D01*
X120076185Y-101176185D01*
X120155537Y-101079494D01*
X120214502Y-100969180D01*
X120250812Y-100849482D01*
X120263072Y-100725000D01*
X120260000Y-100285750D01*
X120101250Y-100127000D01*
X119164500Y-100127000D01*
X118910500Y-100127000D01*
X118890500Y-100127000D01*
X118890500Y-99873000D01*
X118910500Y-99873000D01*
X118910500Y-98798750D01*
X119164500Y-98798750D01*
X119164500Y-99873000D01*
X120101250Y-99873000D01*
X120260000Y-99714250D01*
X120263072Y-99275000D01*
X120250812Y-99150518D01*
X120214502Y-99030820D01*
X120155537Y-98920506D01*
X120076185Y-98823815D01*
X119979494Y-98744463D01*
X119869180Y-98685498D01*
X119749482Y-98649188D01*
X119625000Y-98636928D01*
X119323250Y-98640000D01*
X119164500Y-98798750D01*
X118910500Y-98798750D01*
X118884990Y-98773240D01*
X118884990Y-98188072D01*
X119300000Y-98188072D01*
X119424482Y-98175812D01*
X119544180Y-98139502D01*
X119654494Y-98080537D01*
X119751185Y-98001185D01*
X119830537Y-97904494D01*
X119889502Y-97794180D01*
X119925812Y-97674482D01*
X119938072Y-97550000D01*
X119938072Y-95950000D01*
X119925812Y-95825518D01*
X119889502Y-95705820D01*
X119830537Y-95595506D01*
X119751185Y-95498815D01*
X119654494Y-95419463D01*
X119544180Y-95360498D01*
X119424482Y-95324188D01*
X119300000Y-95311928D01*
X118450000Y-95311928D01*
X118325518Y-95324188D01*
X118205820Y-95360498D01*
X118095506Y-95419463D01*
X118000000Y-95497842D01*
X117904494Y-95419463D01*
X117794180Y-95360498D01*
X117674482Y-95324188D01*
X117550000Y-95311928D01*
X117134999Y-95311928D01*
X117134999Y-94688072D01*
X117550000Y-94688072D01*
X117674482Y-94675812D01*
X117794180Y-94639502D01*
X117904494Y-94580537D01*
X118000000Y-94502158D01*
X118095506Y-94580537D01*
X118205820Y-94639502D01*
X118325518Y-94675812D01*
X118450000Y-94688072D01*
X118589250Y-94685000D01*
X118748000Y-94526250D01*
X118748000Y-93377000D01*
X119002000Y-93377000D01*
X119002000Y-94526250D01*
X119160750Y-94685000D01*
X119300000Y-94688072D01*
X119424482Y-94675812D01*
X119544180Y-94639502D01*
X119654494Y-94580537D01*
X119751185Y-94501185D01*
X119830537Y-94404494D01*
X119889502Y-94294180D01*
X119925812Y-94174482D01*
X119938072Y-94050000D01*
X119935000Y-93535750D01*
X119776250Y-93377000D01*
X119002000Y-93377000D01*
X118748000Y-93377000D01*
X118728000Y-93377000D01*
X118728000Y-93123000D01*
X118748000Y-93123000D01*
X118748000Y-92664012D01*
X118793036Y-92579757D01*
X118836493Y-92436496D01*
X118847490Y-92324843D01*
X118847490Y-92324834D01*
X118851166Y-92287511D01*
X118847490Y-92250188D01*
X118847490Y-91973750D01*
X119002000Y-91973750D01*
X119002000Y-93123000D01*
X119776250Y-93123000D01*
X119935000Y-92964250D01*
X119938072Y-92450000D01*
X119925812Y-92325518D01*
X119889502Y-92205820D01*
X119830537Y-92095506D01*
X119751185Y-91998815D01*
X119654494Y-91919463D01*
X119544180Y-91860498D01*
X119424482Y-91824188D01*
X119300000Y-91811928D01*
X119160750Y-91815000D01*
X119002000Y-91973750D01*
X118847490Y-91973750D01*
X118847490Y-83226760D01*
X118873000Y-83201250D01*
X118873000Y-82127000D01*
X119127000Y-82127000D01*
X119127000Y-83201250D01*
X119285750Y-83360000D01*
X119587500Y-83363072D01*
X119711982Y-83350812D01*
X119831680Y-83314502D01*
X119941994Y-83255537D01*
X120038685Y-83176185D01*
X120118037Y-83079494D01*
X120177002Y-82969180D01*
X120213312Y-82849482D01*
X120225572Y-82725000D01*
X120222500Y-82285750D01*
X120063750Y-82127000D01*
X119127000Y-82127000D01*
X118873000Y-82127000D01*
X118853000Y-82127000D01*
X118853000Y-81873000D01*
X118873000Y-81873000D01*
X118873000Y-80798750D01*
X119127000Y-80798750D01*
X119127000Y-81873000D01*
X120063750Y-81873000D01*
X120222500Y-81714250D01*
X120225572Y-81275000D01*
X120213312Y-81150518D01*
X120177002Y-81030820D01*
X120118037Y-80920506D01*
X120038685Y-80823815D01*
X119941994Y-80744463D01*
X119831680Y-80685498D01*
X119711982Y-80649188D01*
X119587500Y-80636928D01*
X119285750Y-80640000D01*
X119127000Y-80798750D01*
X118873000Y-80798750D01*
X118847490Y-80773240D01*
X118847490Y-80188072D01*
X119050000Y-80188072D01*
X119174482Y-80175812D01*
X119294180Y-80139502D01*
X119404494Y-80080537D01*
X119501185Y-80001185D01*
X119580537Y-79904494D01*
X119639502Y-79794180D01*
X119675812Y-79674482D01*
X119688072Y-79550000D01*
X119688072Y-77950000D01*
X119675812Y-77825518D01*
X119640770Y-77710000D01*
X121405532Y-77710000D01*
X121418815Y-77726185D01*
X121515506Y-77805537D01*
X121625820Y-77864502D01*
X121745518Y-77900812D01*
X121870000Y-77913072D01*
X121940001Y-77913072D01*
X121940001Y-78203927D01*
X121912310Y-78231618D01*
X121832958Y-78328309D01*
X121778502Y-78409808D01*
X121719536Y-78520125D01*
X121682027Y-78610681D01*
X121645718Y-78730377D01*
X121626596Y-78826510D01*
X121614336Y-78950991D01*
X121614336Y-78975550D01*
X121611928Y-79000000D01*
X121611928Y-79500000D01*
X121614336Y-79524450D01*
X121614336Y-79549009D01*
X121626596Y-79673490D01*
X121645718Y-79769623D01*
X121682027Y-79889319D01*
X121719536Y-79979875D01*
X121778502Y-80090192D01*
X121832958Y-80171691D01*
X121912310Y-80268382D01*
X121981618Y-80337690D01*
X122078309Y-80417042D01*
X122159808Y-80471498D01*
X122270125Y-80530464D01*
X122360681Y-80567973D01*
X122480377Y-80604282D01*
X122576510Y-80623404D01*
X122700991Y-80635664D01*
X122725550Y-80635664D01*
X122750000Y-80638072D01*
X123240000Y-80638072D01*
X123240001Y-83342668D01*
X123236324Y-83380000D01*
X123240001Y-83417333D01*
X123250998Y-83528986D01*
X123253530Y-83537333D01*
X123294454Y-83672246D01*
X123365026Y-83804276D01*
X123436201Y-83891002D01*
X123460000Y-83920001D01*
X123488998Y-83943799D01*
X126013628Y-86468430D01*
X125983000Y-86622408D01*
X125983000Y-86897592D01*
X126036686Y-87167490D01*
X126141995Y-87421727D01*
X126294880Y-87650535D01*
X126489465Y-87845120D01*
X126718273Y-87998005D01*
X126795515Y-88030000D01*
X126718273Y-88061995D01*
X126489465Y-88214880D01*
X126294880Y-88409465D01*
X126141995Y-88638273D01*
X126036686Y-88892510D01*
X125983000Y-89162408D01*
X125983000Y-89437592D01*
X126036686Y-89707490D01*
X126141995Y-89961727D01*
X126294880Y-90190535D01*
X126489465Y-90385120D01*
X126718273Y-90538005D01*
X126795515Y-90570000D01*
X126718273Y-90601995D01*
X126489465Y-90754880D01*
X126294880Y-90949465D01*
X126141995Y-91178273D01*
X126036686Y-91432510D01*
X125983000Y-91702408D01*
X125983000Y-91977592D01*
X126036686Y-92247490D01*
X126141995Y-92501727D01*
X126294880Y-92730535D01*
X126489465Y-92925120D01*
X126718273Y-93078005D01*
X126795515Y-93110000D01*
X126718273Y-93141995D01*
X126489465Y-93294880D01*
X126294880Y-93489465D01*
X126141995Y-93718273D01*
X126036686Y-93972510D01*
X125983000Y-94242408D01*
X125983000Y-94517592D01*
X126036686Y-94787490D01*
X126141995Y-95041727D01*
X126294880Y-95270535D01*
X126489465Y-95465120D01*
X126718273Y-95618005D01*
X126795515Y-95650000D01*
X126718273Y-95681995D01*
X126489465Y-95834880D01*
X126294880Y-96029465D01*
X126141995Y-96258273D01*
X126036686Y-96512510D01*
X125983000Y-96782408D01*
X125983000Y-97057592D01*
X126036686Y-97327490D01*
X126141995Y-97581727D01*
X126294880Y-97810535D01*
X126489465Y-98005120D01*
X126718273Y-98158005D01*
X126795515Y-98190000D01*
X126718273Y-98221995D01*
X126489465Y-98374880D01*
X126294880Y-98569465D01*
X126141995Y-98798273D01*
X126036686Y-99052510D01*
X125983000Y-99322408D01*
X125983000Y-99597592D01*
X126036686Y-99867490D01*
X126141995Y-100121727D01*
X126294880Y-100350535D01*
X126489465Y-100545120D01*
X126718273Y-100698005D01*
X126795515Y-100730000D01*
X126718273Y-100761995D01*
X126489465Y-100914880D01*
X126294880Y-101109465D01*
X126141995Y-101338273D01*
X126036686Y-101592510D01*
X125983000Y-101862408D01*
X125983000Y-102137592D01*
X126036686Y-102407490D01*
X126141995Y-102661727D01*
X126294880Y-102890535D01*
X126489465Y-103085120D01*
X126718273Y-103238005D01*
X126795515Y-103270000D01*
X126718273Y-103301995D01*
X126489465Y-103454880D01*
X126294880Y-103649465D01*
X126141995Y-103878273D01*
X126036686Y-104132510D01*
X125983000Y-104402408D01*
X125983000Y-104677592D01*
X126036686Y-104947490D01*
X126141995Y-105201727D01*
X126294880Y-105430535D01*
X126489465Y-105625120D01*
X126718273Y-105778005D01*
X126789943Y-105807692D01*
X126776977Y-105812364D01*
X126661020Y-105874344D01*
X126594040Y-106114435D01*
X127380000Y-106900395D01*
X128165960Y-106114435D01*
X128098980Y-105874344D01*
X127963240Y-105810515D01*
X128041727Y-105778005D01*
X128270535Y-105625120D01*
X128465120Y-105430535D01*
X128618005Y-105201727D01*
X128723314Y-104947490D01*
X128777000Y-104677592D01*
X128777000Y-104402408D01*
X128746372Y-104248430D01*
X129862394Y-103132408D01*
X138683000Y-103132408D01*
X138683000Y-103407592D01*
X138736686Y-103677490D01*
X138841995Y-103931727D01*
X138994880Y-104160535D01*
X139189465Y-104355120D01*
X139418273Y-104508005D01*
X139495515Y-104540000D01*
X139418273Y-104571995D01*
X139189465Y-104724880D01*
X138994880Y-104919465D01*
X138841995Y-105148273D01*
X138736686Y-105402510D01*
X138683000Y-105672408D01*
X138683000Y-105947592D01*
X138736686Y-106217490D01*
X138841995Y-106471727D01*
X138994880Y-106700535D01*
X139189465Y-106895120D01*
X139418273Y-107048005D01*
X139672510Y-107153314D01*
X139942408Y-107207000D01*
X140217592Y-107207000D01*
X140487490Y-107153314D01*
X140741727Y-107048005D01*
X140970535Y-106895120D01*
X141165120Y-106700535D01*
X141318005Y-106471727D01*
X141423314Y-106217490D01*
X141477000Y-105947592D01*
X141477000Y-105672408D01*
X141423314Y-105402510D01*
X141318005Y-105148273D01*
X141165120Y-104919465D01*
X140970535Y-104724880D01*
X140741727Y-104571995D01*
X140664485Y-104540000D01*
X140741727Y-104508005D01*
X140970535Y-104355120D01*
X141165120Y-104160535D01*
X141318005Y-103931727D01*
X141423314Y-103677490D01*
X141477000Y-103407592D01*
X141477000Y-103132408D01*
X141423314Y-102862510D01*
X141318005Y-102608273D01*
X141165120Y-102379465D01*
X140970535Y-102184880D01*
X140741727Y-102031995D01*
X140487490Y-101926686D01*
X140217592Y-101873000D01*
X139942408Y-101873000D01*
X139672510Y-101926686D01*
X139418273Y-102031995D01*
X139189465Y-102184880D01*
X138994880Y-102379465D01*
X138841995Y-102608273D01*
X138736686Y-102862510D01*
X138683000Y-103132408D01*
X129862394Y-103132408D01*
X130511003Y-102483799D01*
X130540001Y-102460001D01*
X130634974Y-102344276D01*
X130705546Y-102212247D01*
X130749003Y-102068986D01*
X130760000Y-101957333D01*
X130763677Y-101920000D01*
X130760000Y-101882667D01*
X130760000Y-84019600D01*
X130809578Y-83986473D01*
X130986473Y-83809578D01*
X131000000Y-83789333D01*
X131013527Y-83809578D01*
X131190422Y-83986473D01*
X131398429Y-84125459D01*
X131629555Y-84221195D01*
X131874916Y-84270000D01*
X132125084Y-84270000D01*
X132370445Y-84221195D01*
X132601571Y-84125459D01*
X132809578Y-83986473D01*
X132986473Y-83809578D01*
X133000000Y-83789333D01*
X133013527Y-83809578D01*
X133152999Y-83949050D01*
X133153000Y-87244429D01*
X133149323Y-87281761D01*
X133163997Y-87430746D01*
X133207453Y-87574007D01*
X133278025Y-87706037D01*
X133349200Y-87792763D01*
X133372999Y-87821762D01*
X133401997Y-87845560D01*
X137907443Y-92351008D01*
X137931237Y-92380001D01*
X137960230Y-92403795D01*
X137960234Y-92403799D01*
X138016531Y-92450000D01*
X138046962Y-92474974D01*
X138178991Y-92545546D01*
X138322252Y-92589003D01*
X138433905Y-92600000D01*
X138433914Y-92600000D01*
X138471237Y-92603676D01*
X138508560Y-92600000D01*
X141447659Y-92600000D01*
X141534880Y-92730535D01*
X141729465Y-92925120D01*
X141958273Y-93078005D01*
X142035515Y-93110000D01*
X141958273Y-93141995D01*
X141729465Y-93294880D01*
X141534880Y-93489465D01*
X141381995Y-93718273D01*
X141276686Y-93972510D01*
X141223000Y-94242408D01*
X141223000Y-94517592D01*
X141276686Y-94787490D01*
X141381995Y-95041727D01*
X141534880Y-95270535D01*
X141729465Y-95465120D01*
X141958273Y-95618005D01*
X142035515Y-95650000D01*
X141958273Y-95681995D01*
X141729465Y-95834880D01*
X141534880Y-96029465D01*
X141381995Y-96258273D01*
X141276686Y-96512510D01*
X141223000Y-96782408D01*
X141223000Y-97057592D01*
X141276686Y-97327490D01*
X141381995Y-97581727D01*
X141534880Y-97810535D01*
X141729465Y-98005120D01*
X141958273Y-98158005D01*
X142035515Y-98190000D01*
X141958273Y-98221995D01*
X141729465Y-98374880D01*
X141534880Y-98569465D01*
X141381995Y-98798273D01*
X141276686Y-99052510D01*
X141223000Y-99322408D01*
X141223000Y-99597592D01*
X141276686Y-99867490D01*
X141381995Y-100121727D01*
X141534880Y-100350535D01*
X141729465Y-100545120D01*
X141958273Y-100698005D01*
X142035515Y-100730000D01*
X141958273Y-100761995D01*
X141729465Y-100914880D01*
X141534880Y-101109465D01*
X141381995Y-101338273D01*
X141276686Y-101592510D01*
X141223000Y-101862408D01*
X141223000Y-102137592D01*
X141276686Y-102407490D01*
X141381995Y-102661727D01*
X141534880Y-102890535D01*
X141729465Y-103085120D01*
X141958273Y-103238005D01*
X142035515Y-103270000D01*
X141958273Y-103301995D01*
X141729465Y-103454880D01*
X141534880Y-103649465D01*
X141381995Y-103878273D01*
X141276686Y-104132510D01*
X141223000Y-104402408D01*
X141223000Y-104677592D01*
X141276686Y-104947490D01*
X141381995Y-105201727D01*
X141534880Y-105430535D01*
X141729465Y-105625120D01*
X141958273Y-105778005D01*
X142035515Y-105810000D01*
X141958273Y-105841995D01*
X141729465Y-105994880D01*
X141534880Y-106189465D01*
X141381995Y-106418273D01*
X141276686Y-106672510D01*
X141223000Y-106942408D01*
X141223000Y-107217592D01*
X141276686Y-107487490D01*
X141381995Y-107741727D01*
X141534880Y-107970535D01*
X141729465Y-108165120D01*
X141958273Y-108318005D01*
X142035515Y-108350000D01*
X141958273Y-108381995D01*
X141729465Y-108534880D01*
X141534880Y-108729465D01*
X141381995Y-108958273D01*
X141276686Y-109212510D01*
X141223000Y-109482408D01*
X141223000Y-109757592D01*
X141276686Y-110027490D01*
X141381995Y-110281727D01*
X141534880Y-110510535D01*
X141729465Y-110705120D01*
X141958273Y-110858005D01*
X142029943Y-110887692D01*
X142016977Y-110892364D01*
X141901020Y-110954344D01*
X141834040Y-111194435D01*
X142620000Y-111980395D01*
X143405960Y-111194435D01*
X143338980Y-110954344D01*
X143203240Y-110890515D01*
X143281727Y-110858005D01*
X143510535Y-110705120D01*
X143705120Y-110510535D01*
X143858005Y-110281727D01*
X143963314Y-110027490D01*
X144017000Y-109757592D01*
X144017000Y-109482408D01*
X143963314Y-109212510D01*
X143858005Y-108958273D01*
X143705120Y-108729465D01*
X143510535Y-108534880D01*
X143281727Y-108381995D01*
X143204485Y-108350000D01*
X143281727Y-108318005D01*
X143510535Y-108165120D01*
X143705120Y-107970535D01*
X143858005Y-107741727D01*
X143963314Y-107487490D01*
X144017000Y-107217592D01*
X144017000Y-106942408D01*
X143986372Y-106788430D01*
X144261003Y-106513799D01*
X144290001Y-106490001D01*
X144384974Y-106374276D01*
X144455546Y-106242247D01*
X144499003Y-106098986D01*
X144510000Y-105987333D01*
X144510000Y-105987324D01*
X144513676Y-105950001D01*
X144510000Y-105912678D01*
X144510000Y-83787325D01*
X144513676Y-83750000D01*
X144510000Y-83712675D01*
X144510000Y-83712667D01*
X144499003Y-83601014D01*
X144455546Y-83457753D01*
X144384974Y-83325724D01*
X144290001Y-83209999D01*
X144261004Y-83186202D01*
X143238072Y-82163271D01*
X143238072Y-81000000D01*
X143225812Y-80875518D01*
X143189502Y-80755820D01*
X143130537Y-80645506D01*
X143051185Y-80548815D01*
X142954494Y-80469463D01*
X142844180Y-80410498D01*
X142724482Y-80374188D01*
X142600000Y-80361928D01*
X141400000Y-80361928D01*
X141275518Y-80374188D01*
X141155820Y-80410498D01*
X141045506Y-80469463D01*
X141000000Y-80506809D01*
X140954494Y-80469463D01*
X140844180Y-80410498D01*
X140724482Y-80374188D01*
X140600000Y-80361928D01*
X140285750Y-80365000D01*
X140127000Y-80523750D01*
X140127000Y-81873000D01*
X140147000Y-81873000D01*
X140147000Y-81882533D01*
X140127000Y-81895110D01*
X140127000Y-84104890D01*
X140323113Y-84228215D01*
X140556517Y-84141579D01*
X140768535Y-84011073D01*
X140951018Y-83841712D01*
X140994677Y-83781368D01*
X141013527Y-83809578D01*
X141190422Y-83986473D01*
X141398429Y-84125459D01*
X141629555Y-84221195D01*
X141874916Y-84270000D01*
X142125084Y-84270000D01*
X142370445Y-84221195D01*
X142601571Y-84125459D01*
X142809578Y-83986473D01*
X142860625Y-83935426D01*
X142990000Y-84064802D01*
X142990000Y-85409229D01*
X142757592Y-85363000D01*
X142482408Y-85363000D01*
X142212510Y-85416686D01*
X141958273Y-85521995D01*
X141729465Y-85674880D01*
X141534880Y-85869465D01*
X141381995Y-86098273D01*
X141350000Y-86175515D01*
X141318005Y-86098273D01*
X141165120Y-85869465D01*
X140970535Y-85674880D01*
X140741727Y-85521995D01*
X140487490Y-85416686D01*
X140217592Y-85363000D01*
X139942408Y-85363000D01*
X139672510Y-85416686D01*
X139418273Y-85521995D01*
X139387001Y-85542890D01*
X139387001Y-84106812D01*
X139443483Y-84141579D01*
X139676887Y-84228215D01*
X139873000Y-84104890D01*
X139873000Y-81895110D01*
X139853000Y-81882533D01*
X139853000Y-81873000D01*
X139873000Y-81873000D01*
X139873000Y-80523750D01*
X139714250Y-80365000D01*
X139400000Y-80361928D01*
X139275518Y-80374188D01*
X139155820Y-80410498D01*
X139045506Y-80469463D01*
X139000000Y-80506809D01*
X138954494Y-80469463D01*
X138844180Y-80410498D01*
X138724482Y-80374188D01*
X138600000Y-80361928D01*
X137400000Y-80361928D01*
X137275518Y-80374188D01*
X137155820Y-80410498D01*
X137045506Y-80469463D01*
X137000000Y-80506809D01*
X136954494Y-80469463D01*
X136844180Y-80410498D01*
X136724482Y-80374188D01*
X136600000Y-80361928D01*
X135400000Y-80361928D01*
X135275518Y-80374188D01*
X135155820Y-80410498D01*
X135045506Y-80469463D01*
X135000000Y-80506809D01*
X134954494Y-80469463D01*
X134844180Y-80410498D01*
X134724482Y-80374188D01*
X134600000Y-80361928D01*
X133400000Y-80361928D01*
X133275518Y-80374188D01*
X133155820Y-80410498D01*
X133045506Y-80469463D01*
X133000000Y-80506809D01*
X132954494Y-80469463D01*
X132844180Y-80410498D01*
X132724482Y-80374188D01*
X132600000Y-80361928D01*
X131400000Y-80361928D01*
X131275518Y-80374188D01*
X131155820Y-80410498D01*
X131045506Y-80469463D01*
X131000000Y-80506809D01*
X130954494Y-80469463D01*
X130844180Y-80410498D01*
X130724482Y-80374188D01*
X130600000Y-80361928D01*
X129400000Y-80361928D01*
X129275518Y-80374188D01*
X129155820Y-80410498D01*
X129045506Y-80469463D01*
X129000000Y-80506809D01*
X128954494Y-80469463D01*
X128844180Y-80410498D01*
X128724482Y-80374188D01*
X128600000Y-80361928D01*
X127799999Y-80361928D01*
X127799999Y-80161212D01*
X128536026Y-79425186D01*
X128565019Y-79401392D01*
X128588813Y-79372399D01*
X128588818Y-79372394D01*
X128659993Y-79285667D01*
X128730565Y-79153638D01*
X128774022Y-79010377D01*
X128788695Y-78861391D01*
X128785018Y-78824056D01*
X128785019Y-76338967D01*
X138615000Y-76338967D01*
X138615000Y-76661033D01*
X138677832Y-76976912D01*
X138801082Y-77274463D01*
X138980013Y-77542252D01*
X139207748Y-77769987D01*
X139475537Y-77948918D01*
X139773088Y-78072168D01*
X140088967Y-78135000D01*
X140411033Y-78135000D01*
X140726912Y-78072168D01*
X141024463Y-77948918D01*
X141292252Y-77769987D01*
X141519987Y-77542252D01*
X141698918Y-77274463D01*
X141822168Y-76976912D01*
X141885000Y-76661033D01*
X141885000Y-76338967D01*
X145115000Y-76338967D01*
X145115000Y-76661033D01*
X145177832Y-76976912D01*
X145301082Y-77274463D01*
X145480013Y-77542252D01*
X145707748Y-77769987D01*
X145975537Y-77948918D01*
X146273088Y-78072168D01*
X146588967Y-78135000D01*
X146911033Y-78135000D01*
X147226912Y-78072168D01*
X147524463Y-77948918D01*
X147792252Y-77769987D01*
X148019987Y-77542252D01*
X148198918Y-77274463D01*
X148322168Y-76976912D01*
X148385000Y-76661033D01*
X148385000Y-76338967D01*
X148322168Y-76023088D01*
X148198918Y-75725537D01*
X148019987Y-75457748D01*
X147792252Y-75230013D01*
X147524463Y-75051082D01*
X147226912Y-74927832D01*
X146911033Y-74865000D01*
X146588967Y-74865000D01*
X146273088Y-74927832D01*
X145975537Y-75051082D01*
X145707748Y-75230013D01*
X145480013Y-75457748D01*
X145301082Y-75725537D01*
X145177832Y-76023088D01*
X145115000Y-76338967D01*
X141885000Y-76338967D01*
X141822168Y-76023088D01*
X141698918Y-75725537D01*
X141519987Y-75457748D01*
X141292252Y-75230013D01*
X141024463Y-75051082D01*
X140726912Y-74927832D01*
X140411033Y-74865000D01*
X140088967Y-74865000D01*
X139773088Y-74927832D01*
X139475537Y-75051082D01*
X139207748Y-75230013D01*
X138980013Y-75457748D01*
X138801082Y-75725537D01*
X138677832Y-76023088D01*
X138615000Y-76338967D01*
X128785019Y-76338967D01*
X128785020Y-74719603D01*
X128843387Y-74688405D01*
X128977962Y-74577962D01*
X129000000Y-74551109D01*
X129022038Y-74577962D01*
X129156613Y-74688405D01*
X129310149Y-74770472D01*
X129476745Y-74821008D01*
X129649999Y-74838072D01*
X130350001Y-74838072D01*
X130523255Y-74821008D01*
X130689851Y-74770472D01*
X130843387Y-74688405D01*
X130977962Y-74577962D01*
X131088405Y-74443387D01*
X131170472Y-74289851D01*
X131179527Y-74260000D01*
X133462678Y-74260000D01*
X133500000Y-74263676D01*
X133537322Y-74260000D01*
X133537333Y-74260000D01*
X133648986Y-74249003D01*
X133792247Y-74205546D01*
X133924276Y-74134974D01*
X134040001Y-74040001D01*
X134063804Y-74010997D01*
X134591070Y-73483731D01*
X134848816Y-73535000D01*
X135151184Y-73535000D01*
X135447743Y-73476011D01*
X135727095Y-73360299D01*
X135978505Y-73192312D01*
X136106737Y-73064080D01*
X136655525Y-73064080D01*
X136739208Y-73318261D01*
X137011775Y-73449158D01*
X137304642Y-73524365D01*
X137606553Y-73540991D01*
X137905907Y-73498397D01*
X138191199Y-73398222D01*
X138340792Y-73318261D01*
X138400990Y-73135413D01*
X139294192Y-73135413D01*
X139389956Y-73399814D01*
X139679571Y-73540704D01*
X139991108Y-73622384D01*
X140312595Y-73641718D01*
X140631675Y-73597961D01*
X140936088Y-73492795D01*
X141110044Y-73399814D01*
X141205808Y-73135413D01*
X145794192Y-73135413D01*
X145889956Y-73399814D01*
X146179571Y-73540704D01*
X146491108Y-73622384D01*
X146812595Y-73641718D01*
X147131675Y-73597961D01*
X147415232Y-73500000D01*
X155561928Y-73500000D01*
X155574188Y-73624482D01*
X155610498Y-73744180D01*
X155669463Y-73854494D01*
X155748815Y-73951185D01*
X155845506Y-74030537D01*
X155955820Y-74089502D01*
X156075518Y-74125812D01*
X156200000Y-74138072D01*
X156714250Y-74135000D01*
X156873000Y-73976250D01*
X156873000Y-72537000D01*
X157127000Y-72537000D01*
X157127000Y-73976250D01*
X157285750Y-74135000D01*
X157800000Y-74138072D01*
X157924482Y-74125812D01*
X158044180Y-74089502D01*
X158154494Y-74030537D01*
X158251185Y-73951185D01*
X158330537Y-73854494D01*
X158389502Y-73744180D01*
X158425812Y-73624482D01*
X158438072Y-73500000D01*
X158435000Y-72695750D01*
X158276250Y-72537000D01*
X157127000Y-72537000D01*
X156873000Y-72537000D01*
X155723750Y-72537000D01*
X155565000Y-72695750D01*
X155561928Y-73500000D01*
X147415232Y-73500000D01*
X147436088Y-73492795D01*
X147610044Y-73399814D01*
X147705808Y-73135413D01*
X146750000Y-72179605D01*
X145794192Y-73135413D01*
X141205808Y-73135413D01*
X140250000Y-72179605D01*
X139294192Y-73135413D01*
X138400990Y-73135413D01*
X138424475Y-73064080D01*
X137540000Y-72179605D01*
X136655525Y-73064080D01*
X136106737Y-73064080D01*
X136192312Y-72978505D01*
X136294951Y-72824895D01*
X136475920Y-72884475D01*
X137360395Y-72000000D01*
X137719605Y-72000000D01*
X138604080Y-72884475D01*
X138824463Y-72811919D01*
X138850186Y-72860044D01*
X139114587Y-72955808D01*
X140070395Y-72000000D01*
X140429605Y-72000000D01*
X141385413Y-72955808D01*
X141649814Y-72860044D01*
X141790704Y-72570429D01*
X141872384Y-72258892D01*
X141884189Y-72062595D01*
X145108282Y-72062595D01*
X145152039Y-72381675D01*
X145257205Y-72686088D01*
X145350186Y-72860044D01*
X145614587Y-72955808D01*
X146570395Y-72000000D01*
X146929605Y-72000000D01*
X147885413Y-72955808D01*
X148149814Y-72860044D01*
X148290704Y-72570429D01*
X148372384Y-72258892D01*
X148391718Y-71937405D01*
X148347961Y-71618325D01*
X148244899Y-71320000D01*
X155561928Y-71320000D01*
X155565000Y-72124250D01*
X155723750Y-72283000D01*
X156873000Y-72283000D01*
X156873000Y-70843750D01*
X157127000Y-70843750D01*
X157127000Y-72283000D01*
X158276250Y-72283000D01*
X158435000Y-72124250D01*
X158438072Y-71320000D01*
X158425812Y-71195518D01*
X158389502Y-71075820D01*
X158330537Y-70965506D01*
X158251185Y-70868815D01*
X158154494Y-70789463D01*
X158044180Y-70730498D01*
X157924482Y-70694188D01*
X157800000Y-70681928D01*
X157285750Y-70685000D01*
X157127000Y-70843750D01*
X156873000Y-70843750D01*
X156714250Y-70685000D01*
X156200000Y-70681928D01*
X156075518Y-70694188D01*
X155955820Y-70730498D01*
X155845506Y-70789463D01*
X155748815Y-70868815D01*
X155669463Y-70965506D01*
X155610498Y-71075820D01*
X155574188Y-71195518D01*
X155561928Y-71320000D01*
X148244899Y-71320000D01*
X148242795Y-71313912D01*
X148149814Y-71139956D01*
X147885413Y-71044192D01*
X146929605Y-72000000D01*
X146570395Y-72000000D01*
X145614587Y-71044192D01*
X145350186Y-71139956D01*
X145209296Y-71429571D01*
X145127616Y-71741108D01*
X145108282Y-72062595D01*
X141884189Y-72062595D01*
X141891718Y-71937405D01*
X141847961Y-71618325D01*
X141742795Y-71313912D01*
X141649814Y-71139956D01*
X141385413Y-71044192D01*
X140429605Y-72000000D01*
X140070395Y-72000000D01*
X139114587Y-71044192D01*
X138850186Y-71139956D01*
X138826455Y-71188737D01*
X138604080Y-71115525D01*
X137719605Y-72000000D01*
X137360395Y-72000000D01*
X136475920Y-71115525D01*
X136294951Y-71175105D01*
X136192312Y-71021495D01*
X135978505Y-70807688D01*
X135757475Y-70660000D01*
X136779878Y-70660000D01*
X136739208Y-70681739D01*
G37*
%TD.AperFunction*%
D23*
X137013527Y-83809578D02*
X137190422Y-83986473D01*
X137398429Y-84125459D01*
X137629555Y-84221195D01*
X137867002Y-84268426D01*
X137867001Y-85400676D01*
X137677592Y-85363000D01*
X137402408Y-85363000D01*
X137132510Y-85416686D01*
X136878273Y-85521995D01*
X136649465Y-85674880D01*
X136454880Y-85869465D01*
X136301995Y-86098273D01*
X136272308Y-86169943D01*
X136267636Y-86156977D01*
X136205656Y-86041020D01*
X135965565Y-85974040D01*
X135179605Y-86760000D01*
X135965565Y-87545960D01*
X136205656Y-87478980D01*
X136269485Y-87343240D01*
X136301995Y-87421727D01*
X136454880Y-87650535D01*
X136649465Y-87845120D01*
X136878273Y-87998005D01*
X137132510Y-88103314D01*
X137402408Y-88157000D01*
X137677592Y-88157000D01*
X137947490Y-88103314D01*
X138201727Y-87998005D01*
X138430535Y-87845120D01*
X138456046Y-87819609D01*
X140447439Y-89811003D01*
X140471237Y-89840001D01*
X140586962Y-89934974D01*
X140718991Y-90005546D01*
X140862252Y-90049003D01*
X140973905Y-90060000D01*
X140973914Y-90060000D01*
X141011237Y-90063676D01*
X141048560Y-90060000D01*
X141447659Y-90060000D01*
X141534880Y-90190535D01*
X141729465Y-90385120D01*
X141958273Y-90538005D01*
X142035515Y-90570000D01*
X141958273Y-90601995D01*
X141729465Y-90754880D01*
X141534880Y-90949465D01*
X141447659Y-91080000D01*
X138786041Y-91080000D01*
X135688166Y-87982126D01*
X135718980Y-87965656D01*
X135785960Y-87725565D01*
X135000000Y-86939605D01*
X134985858Y-86953748D01*
X134806253Y-86774143D01*
X134820395Y-86760000D01*
X134806253Y-86745858D01*
X134985858Y-86566253D01*
X135000000Y-86580395D01*
X135785960Y-85794435D01*
X135718980Y-85554344D01*
X135469952Y-85437244D01*
X135202865Y-85370977D01*
X134927983Y-85358090D01*
X134672999Y-85396497D01*
X134672999Y-84077732D01*
X134809578Y-83986473D01*
X134986473Y-83809578D01*
X135000000Y-83789333D01*
X135013527Y-83809578D01*
X135190422Y-83986473D01*
X135398429Y-84125459D01*
X135629555Y-84221195D01*
X135874916Y-84270000D01*
X136125084Y-84270000D01*
X136370445Y-84221195D01*
X136601571Y-84125459D01*
X136809578Y-83986473D01*
X136986473Y-83809578D01*
X137000000Y-83789333D01*
X137013527Y-83809578D01*
%TA.AperFunction,Conductor*%
D24*
G36*
X137013527Y-83809578D02*
G01*
X137190422Y-83986473D01*
X137398429Y-84125459D01*
X137629555Y-84221195D01*
X137867002Y-84268426D01*
X137867001Y-85400676D01*
X137677592Y-85363000D01*
X137402408Y-85363000D01*
X137132510Y-85416686D01*
X136878273Y-85521995D01*
X136649465Y-85674880D01*
X136454880Y-85869465D01*
X136301995Y-86098273D01*
X136272308Y-86169943D01*
X136267636Y-86156977D01*
X136205656Y-86041020D01*
X135965565Y-85974040D01*
X135179605Y-86760000D01*
X135965565Y-87545960D01*
X136205656Y-87478980D01*
X136269485Y-87343240D01*
X136301995Y-87421727D01*
X136454880Y-87650535D01*
X136649465Y-87845120D01*
X136878273Y-87998005D01*
X137132510Y-88103314D01*
X137402408Y-88157000D01*
X137677592Y-88157000D01*
X137947490Y-88103314D01*
X138201727Y-87998005D01*
X138430535Y-87845120D01*
X138456046Y-87819609D01*
X140447439Y-89811003D01*
X140471237Y-89840001D01*
X140586962Y-89934974D01*
X140718991Y-90005546D01*
X140862252Y-90049003D01*
X140973905Y-90060000D01*
X140973914Y-90060000D01*
X141011237Y-90063676D01*
X141048560Y-90060000D01*
X141447659Y-90060000D01*
X141534880Y-90190535D01*
X141729465Y-90385120D01*
X141958273Y-90538005D01*
X142035515Y-90570000D01*
X141958273Y-90601995D01*
X141729465Y-90754880D01*
X141534880Y-90949465D01*
X141447659Y-91080000D01*
X138786041Y-91080000D01*
X135688166Y-87982126D01*
X135718980Y-87965656D01*
X135785960Y-87725565D01*
X135000000Y-86939605D01*
X134985858Y-86953748D01*
X134806253Y-86774143D01*
X134820395Y-86760000D01*
X134806253Y-86745858D01*
X134985858Y-86566253D01*
X135000000Y-86580395D01*
X135785960Y-85794435D01*
X135718980Y-85554344D01*
X135469952Y-85437244D01*
X135202865Y-85370977D01*
X134927983Y-85358090D01*
X134672999Y-85396497D01*
X134672999Y-84077732D01*
X134809578Y-83986473D01*
X134986473Y-83809578D01*
X135000000Y-83789333D01*
X135013527Y-83809578D01*
X135190422Y-83986473D01*
X135398429Y-84125459D01*
X135629555Y-84221195D01*
X135874916Y-84270000D01*
X136125084Y-84270000D01*
X136370445Y-84221195D01*
X136601571Y-84125459D01*
X136809578Y-83986473D01*
X136986473Y-83809578D01*
X137000000Y-83789333D01*
X137013527Y-83809578D01*
G37*
%TD.AperFunction*%
D23*
X121231928Y-74956729D02*
X121231928Y-75375000D01*
X121244188Y-75499482D01*
X121251929Y-75525000D01*
X121244188Y-75550518D01*
X121231928Y-75675000D01*
X121235000Y-75714250D01*
X121393750Y-75873000D01*
X121475859Y-75873000D01*
X121515506Y-75905537D01*
X121625820Y-75964502D01*
X121742841Y-76000000D01*
X121625820Y-76035498D01*
X121515506Y-76094463D01*
X121475859Y-76127000D01*
X121393750Y-76127000D01*
X121330750Y-76190000D01*
X119671105Y-76190000D01*
X119675812Y-76174482D01*
X119688072Y-76050000D01*
X119685000Y-75535750D01*
X119526250Y-75377000D01*
X118752000Y-75377000D01*
X118752000Y-75397000D01*
X118498000Y-75397000D01*
X118498000Y-75377000D01*
X118478000Y-75377000D01*
X118478000Y-75123000D01*
X118498000Y-75123000D01*
X118498000Y-75103000D01*
X118752000Y-75103000D01*
X118752000Y-75123000D01*
X119526250Y-75123000D01*
X119685000Y-74964250D01*
X119685473Y-74884999D01*
X121160198Y-74884999D01*
X121231928Y-74956729D01*
%TA.AperFunction,Conductor*%
D24*
G36*
X121231928Y-74956729D02*
G01*
X121231928Y-75375000D01*
X121244188Y-75499482D01*
X121251929Y-75525000D01*
X121244188Y-75550518D01*
X121231928Y-75675000D01*
X121235000Y-75714250D01*
X121393750Y-75873000D01*
X121475859Y-75873000D01*
X121515506Y-75905537D01*
X121625820Y-75964502D01*
X121742841Y-76000000D01*
X121625820Y-76035498D01*
X121515506Y-76094463D01*
X121475859Y-76127000D01*
X121393750Y-76127000D01*
X121330750Y-76190000D01*
X119671105Y-76190000D01*
X119675812Y-76174482D01*
X119688072Y-76050000D01*
X119685000Y-75535750D01*
X119526250Y-75377000D01*
X118752000Y-75377000D01*
X118752000Y-75397000D01*
X118498000Y-75397000D01*
X118498000Y-75377000D01*
X118478000Y-75377000D01*
X118478000Y-75123000D01*
X118498000Y-75123000D01*
X118498000Y-75103000D01*
X118752000Y-75103000D01*
X118752000Y-75123000D01*
X119526250Y-75123000D01*
X119685000Y-74964250D01*
X119685473Y-74884999D01*
X121160198Y-74884999D01*
X121231928Y-74956729D01*
G37*
%TD.AperFunction*%
%TD*%
M02*
