M48
; DRILL file {KiCad (5.1.9)-1} date 04/07/21 01:06:46
; FORMAT={-:-/ absolute / inch / decimal}
; #@! TF.CreationDate,2021-04-07T01:06:46+02:00
; #@! TF.GenerationSoftware,Kicad,Pcbnew,(5.1.9)-1
; #@! TF.FileFunction,Plated,1,2,PTH
FMAT,2
INCH
T1C0.0118
T2C0.0300
T3C0.0354
T4C0.0433
%
G90
G05
T1
X4.4488Y-3.2874
X4.4488Y-3.9961
X4.4488Y-4.1929
X4.7441Y-2.9921
X4.9803Y-3.0512
X6.1811Y-3.2874
X6.1811Y-3.9961
X6.1811Y-4.1929
X6.2106Y-3.4744
T2
X5.015Y-3.4157
X5.015Y-3.5157
X5.015Y-3.6157
X5.015Y-3.7157
X5.015Y-3.8157
X5.015Y-3.9157
X5.015Y-4.0157
X5.015Y-4.1157
X5.015Y-4.2157
X5.015Y-4.3157
X5.015Y-4.4157
X5.015Y-4.5157
X5.0394Y-3.2677
X5.1181Y-3.2677
X5.1969Y-3.2677
X5.2756Y-3.2677
X5.315Y-3.4157
X5.3543Y-3.2677
X5.415Y-3.4157
X5.4331Y-3.2677
X5.5118Y-3.2677
X5.515Y-3.4157
X5.515Y-4.0657
X5.515Y-4.1657
X5.5906Y-3.2677
X5.615Y-3.4157
X5.615Y-3.5157
X5.615Y-3.6157
X5.615Y-3.7157
X5.615Y-3.8157
X5.615Y-3.9157
X5.615Y-4.0157
X5.615Y-4.1157
X5.615Y-4.2157
X5.615Y-4.3157
X5.615Y-4.4157
X5.615Y-4.5157
T3
X5.215Y-2.8346
X5.315Y-2.8346
X5.415Y-2.8346
T4
X5.5217Y-2.8346
X5.5217Y-3.0118
X5.7776Y-2.8346
X5.7776Y-3.0118
T0
M30
